<?xml version="1.0" encoding="UTF-8"?>
<!DOCTYPE svg PUBLIC "-//W3C//DTD SVG 1.1//EN" "http://www.w3.org/Graphics/SVG/1.1/DTD/svg11.dtd">
<svg xmlns="http://www.w3.org/2000/svg" version="1.1" width="3105px" height="792px" style="shape-rendering:geometricPrecision; text-rendering:geometricPrecision; image-rendering:optimizeQuality; fill-rule:evenodd; clip-rule:evenodd" xmlns:xlink="http://www.w3.org/1999/xlink">
<g><path style="opacity:0.997" fill="#fefefe" d="M -0.5,-0.5 C 1034.5,-0.5 2069.5,-0.5 3104.5,-0.5C 3104.5,263.5 3104.5,527.5 3104.5,791.5C 2069.5,791.5 1034.5,791.5 -0.5,791.5C -0.5,527.5 -0.5,263.5 -0.5,-0.5 Z"/></g>
<g><path style="opacity:1" fill="#ce6258" d="M 3095.5,783.5 C 3095.5,525.167 3095.5,266.833 3095.5,8.5C 2326.83,8.5 1558.17,8.5 789.5,8.5C 789.5,266.833 789.5,525.167 789.5,783.5C 788.5,525.001 788.167,266.334 788.5,7.5C 1557.83,7.5 2327.17,7.5 3096.5,7.5C 3096.83,266.334 3096.5,525.001 3095.5,783.5 Z"/></g>
<g><path style="opacity:1" fill="#898888" d="M 780.5,8.5 C 523.167,8.5 265.833,8.5 8.5,8.5C 8.5,266.833 8.5,525.167 8.5,783.5C 7.50022,525.001 7.16688,266.334 7.5,7.5C 265.334,7.16688 523.001,7.50022 780.5,8.5 Z"/></g>
<g><path style="opacity:1" fill="#000000" d="M 780.5,8.5 C 780.5,266.833 780.5,525.167 780.5,783.5C 523.167,783.5 265.833,783.5 8.5,783.5C 8.5,525.167 8.5,266.833 8.5,8.5C 265.833,8.5 523.167,8.5 780.5,8.5 Z"/></g>
<g><path style="opacity:1" fill="#be2830" d="M 3095.5,783.5 C 2326.83,783.5 1558.17,783.5 789.5,783.5C 789.5,525.167 789.5,266.833 789.5,8.5C 1558.17,8.5 2326.83,8.5 3095.5,8.5C 3095.5,266.833 3095.5,525.167 3095.5,783.5 Z"/></g>
<g><path style="opacity:1" fill="#f8f8f8" d="M 396.5,66.5 C 506.812,176.146 616.812,286.146 726.5,396.5C 616.847,506.653 507.014,616.653 397,726.5C 286.986,616.653 177.153,506.653 67.5,396.5C 177.188,286.479 286.854,176.479 396.5,66.5 Z"/></g>
<g><path style="opacity:1" fill="#000000" d="M 395.5,90.5 C 498.431,191.764 600.764,293.764 702.5,396.5C 600.847,498.653 499.014,600.653 397,702.5C 294.986,600.653 193.153,498.653 91.5,396.5C 192.486,295.014 293.653,193.68 395,92.5C 395.464,91.9056 395.631,91.2389 395.5,90.5 Z"/></g>
<g><path style="opacity:1" fill="#fdfdfd" d="M 343.5,602.5 C 343.17,464.793 343.503,327.126 344.5,189.5C 361.506,171.661 379.006,154.327 397,137.5C 415.293,154.792 433.293,172.459 451,190.5C 451.5,232.832 451.667,275.165 451.5,317.5C 440.5,317.5 429.5,317.5 418.5,317.5C 418.667,279.832 418.5,242.165 418,204.5C 411,197.5 404,190.5 397,183.5C 390,190.5 383,197.5 376,204.5C 375.333,332.5 375.333,460.5 376,588.5C 383,595.5 390,602.5 397,609.5C 404,602.5 411,595.5 418,588.5C 418.5,551.168 418.667,513.835 418.5,476.5C 429.167,476.5 439.833,476.5 450.5,476.5C 450.667,518.835 450.5,561.168 450,603.5C 432.333,621.167 414.667,638.833 397,656.5C 378.965,638.632 361.132,620.632 343.5,602.5 Z"/></g>
<g><path style="opacity:1" fill="#929291" d="M 344.5,189.5 C 343.503,327.126 343.17,464.793 343.5,602.5C 342.334,465.334 342.167,328.001 343,190.5C 343.383,189.944 343.883,189.611 344.5,189.5 Z"/></g>
<g><path style="opacity:1" fill="#646363" d="M 473.5,213.5 C 472.167,335.833 472.167,458.167 473.5,580.5C 473.44,581.043 473.107,581.376 472.5,581.5C 471.167,458.5 471.167,335.5 472.5,212.5C 473.107,212.624 473.44,212.957 473.5,213.5 Z"/></g>
<g><path style="opacity:1" fill="#fcfcfc" d="M 473.5,213.5 C 507.5,246.833 541.167,280.5 574.5,314.5C 574.83,330.009 574.496,345.342 573.5,360.5C 551.229,337.728 528.729,315.062 506,292.5C 505.5,322.165 505.333,351.831 505.5,381.5C 520.833,381.5 536.167,381.5 551.5,381.5C 551.5,391.833 551.5,402.167 551.5,412.5C 536.167,412.5 520.833,412.5 505.5,412.5C 505.333,441.835 505.5,471.169 506,500.5C 529,477.5 552,454.5 575,431.5C 575.667,447.167 575.667,462.833 575,478.5C 540.938,512.395 507.105,546.395 473.5,580.5C 472.167,458.167 472.167,335.833 473.5,213.5 Z"/></g>
<g><path style="opacity:1" fill="#fcfcfc" d="M 319.5,214.5 C 320.666,335.999 320.833,457.666 320,579.5C 309.333,568.833 298.667,558.167 288,547.5C 287.5,502.501 287.333,457.501 287.5,412.5C 274.833,412.5 262.167,412.5 249.5,412.5C 249.667,444.168 249.5,475.835 249,507.5C 238.333,496.833 227.667,486.167 217,475.5C 216.333,422.833 216.333,370.167 217,317.5C 251.368,283.299 285.535,248.965 319.5,214.5 Z"/></g>
<g><path style="opacity:1" fill="#d0d0d0" d="M 287.5,293.5 C 287.56,292.957 287.893,292.624 288.5,292.5C 289.83,322.331 289.83,351.997 288.5,381.5C 288.831,351.995 288.498,322.662 287.5,293.5 Z"/></g>
<g><path style="opacity:1" fill="#000000" d="M 287.5,293.5 C 288.498,322.662 288.831,351.995 288.5,381.5C 275.833,381.5 263.167,381.5 250.5,381.5C 250.333,364.497 250.5,347.497 251,330.5C 263.369,318.298 275.535,305.965 287.5,293.5 Z"/></g>
<g><path style="opacity:1" fill="#fefcfc" d="M 1085.5,309.5 C 1095.81,308.693 1105.81,310.026 1115.5,313.5C 1116.67,323.149 1116.83,332.816 1116,342.5C 1104.43,330.77 1091.93,329.603 1078.5,339C 1071.37,347.731 1069.54,357.564 1073,368.5C 1078.25,379.71 1087.08,384.544 1099.5,383C 1106.23,381.928 1111.73,378.761 1116,373.5C 1116.83,383.184 1116.67,392.851 1115.5,402.5C 1091.9,411.148 1071.73,406.148 1055,387.5C 1042.11,367.26 1042.45,347.26 1056,327.5C 1063.99,318.323 1073.82,312.323 1085.5,309.5 Z"/></g>
<g><path style="opacity:1" fill="#fefcfc" d="M 1320.5,313.5 C 1320.83,323.015 1320.49,332.348 1319.5,341.5C 1306.7,329.543 1293.86,329.543 1281,341.5C 1272.49,355.218 1273.99,367.718 1285.5,379C 1298.74,386.325 1310.58,384.492 1321,373.5C 1321.5,383.161 1321.67,392.828 1321.5,402.5C 1296.34,411.307 1275.17,405.64 1258,385.5C 1243.96,358.514 1248.79,335.681 1272.5,317C 1287.91,308.347 1303.91,307.18 1320.5,313.5 Z"/></g>
<g><path style="opacity:1" fill="#fefcfc" d="M 1375.5,308.5 C 1401.7,306.18 1420.87,316.513 1433,339.5C 1439.88,363.534 1433.71,383.368 1414.5,399C 1391.9,411.43 1370.23,410.097 1349.5,395C 1332.35,376.311 1329.19,355.478 1340,332.5C 1348.73,319.886 1360.57,311.886 1375.5,308.5 Z"/></g>
<g><path style="opacity:1" fill="#fefcfc" d="M 1587.5,309.5 C 1599.25,308.847 1610.58,310.681 1621.5,315C 1622.91,315.368 1623.91,316.201 1624.5,317.5C 1621.59,323.658 1618.42,329.658 1615,335.5C 1609.24,331.025 1602.74,329.191 1595.5,330C 1588.79,332.993 1587.79,337.326 1592.5,343C 1601.28,346.029 1609.95,349.362 1618.5,353C 1627.64,360.427 1630.81,369.927 1628,381.5C 1624.62,395.969 1615.46,404.136 1600.5,406C 1585.5,408.419 1572.17,404.919 1560.5,395.5C 1563.49,388.845 1566.99,382.512 1571,376.5C 1578.22,384.182 1587.05,387.016 1597.5,385C 1604.96,380.38 1605.3,375.38 1598.5,370C 1590.77,367.534 1583.1,364.867 1575.5,362C 1565.87,355.821 1562.04,346.987 1564,335.5C 1566.46,321.875 1574.3,313.209 1587.5,309.5 Z"/></g>
<g><path style="opacity:1" fill="#fefcfc" d="M 2068.5,308.5 C 2087.01,306.386 2102.18,312.386 2114,326.5C 2115.18,328.87 2116.35,331.203 2117.5,333.5C 2117.18,334.647 2116.52,335.481 2115.5,336C 2109.16,338.503 2102.83,341.003 2096.5,343.5C 2093.7,340.53 2091.04,337.363 2088.5,334C 2071.9,325.71 2060.07,330.21 2053,347.5C 2049.03,361.899 2052.53,374.065 2063.5,384C 2074.98,390.09 2084.81,388.256 2093,378.5C 2093.98,376.26 2094.48,373.927 2094.5,371.5C 2088.17,371.5 2081.83,371.5 2075.5,371.5C 2075.5,365.167 2075.5,358.833 2075.5,352.5C 2091.5,352.5 2107.5,352.5 2123.5,352.5C 2121.86,394.982 2100.2,412.482 2058.5,405C 2037.17,396.659 2026.5,380.992 2026.5,358C 2027.42,330.257 2041.42,313.757 2068.5,308.5 Z"/></g>
<g><path style="opacity:1" fill="#fefcfc" d="M 2406.5,308.5 C 2424.98,306.318 2440.48,311.985 2453,325.5C 2455.32,328.48 2456.82,331.813 2457.5,335.5C 2450.42,337.872 2443.42,340.539 2436.5,343.5C 2433.38,339.875 2430.04,336.375 2426.5,333C 2408.92,326.374 2397.42,332.207 2392,350.5C 2389.65,361.939 2392.15,372.106 2399.5,381C 2409.73,389.425 2420.07,389.592 2430.5,381.5C 2432.81,378.563 2434.15,375.23 2434.5,371.5C 2428.17,371.5 2421.83,371.5 2415.5,371.5C 2415.5,365.167 2415.5,358.833 2415.5,352.5C 2431.17,352.5 2446.83,352.5 2462.5,352.5C 2463.01,390.494 2444.34,408.661 2406.5,407C 2375.44,398.88 2362.28,378.713 2367,346.5C 2372.53,325.798 2385.7,313.131 2406.5,308.5 Z"/></g>
<g><path style="opacity:1" fill="#fefcfc" d="M 2893.5,309.5 C 2906.94,308.239 2919.6,310.739 2931.5,317C 2928.31,323.215 2924.98,329.381 2921.5,335.5C 2915.63,330.709 2908.96,328.876 2901.5,330C 2894.47,333.479 2893.8,337.813 2899.5,343C 2908.73,346.218 2917.73,349.884 2926.5,354C 2934.12,360.872 2936.96,369.372 2935,379.5C 2932.2,394.297 2923.37,403.131 2908.5,406C 2893.09,408.314 2879.09,404.98 2866.5,396C 2869.83,390 2873.17,384 2876.5,378C 2877.5,377.333 2878.5,377.333 2879.5,378C 2886.45,385.054 2894.78,387.388 2904.5,385C 2909.07,382.459 2910.57,378.625 2909,373.5C 2908.17,372.667 2907.33,371.833 2906.5,371C 2897.83,367.667 2889.17,364.333 2880.5,361C 2875.49,357.822 2872.32,353.322 2871,347.5C 2868.37,328.669 2875.87,316.002 2893.5,309.5 Z"/></g>
<g><path style="opacity:1" fill="#efccc3" d="M 1138.5,312.5 C 1155.99,311.503 1173.66,311.17 1191.5,311.5C 1191.5,318.5 1191.5,325.5 1191.5,332.5C 1181.83,332.5 1172.17,332.5 1162.5,332.5C 1171.65,331.506 1180.99,331.173 1190.5,331.5C 1190.5,325.167 1190.5,318.833 1190.5,312.5C 1173.17,312.5 1155.83,312.5 1138.5,312.5 Z"/></g>
<g><path style="opacity:1" fill="#fefcfb" d="M 976.5,311.5 C 985.525,311.168 994.525,311.502 1003.5,312.5C 1014.97,342.923 1026.64,373.256 1038.5,403.5C 1029.83,404.833 1021.17,404.833 1012.5,403.5C 1010.59,398.609 1008.59,393.776 1006.5,389C 995.5,388.333 984.5,388.333 973.5,389C 971.407,393.776 969.407,398.609 967.5,403.5C 958.833,404.833 950.167,404.833 941.5,403.5C 953.57,372.954 965.236,342.287 976.5,311.5 Z"/></g>
<g><path style="opacity:1" fill="#fefefe" d="M 1138.5,312.5 C 1155.83,312.5 1173.17,312.5 1190.5,312.5C 1190.5,318.833 1190.5,325.167 1190.5,331.5C 1180.99,331.173 1171.65,331.506 1162.5,332.5C 1162.5,337.5 1162.5,342.5 1162.5,347.5C 1171.5,347.5 1180.5,347.5 1189.5,347.5C 1189.5,354.5 1189.5,361.5 1189.5,368.5C 1180.5,368.5 1171.5,368.5 1162.5,368.5C 1162.5,373.5 1162.5,378.5 1162.5,383.5C 1171.65,384.494 1180.99,384.827 1190.5,384.5C 1190.5,390.833 1190.5,397.167 1190.5,403.5C 1173.17,403.5 1155.83,403.5 1138.5,403.5C 1138.5,373.167 1138.5,342.833 1138.5,312.5 Z"/></g>
<g><path style="opacity:1" fill="#fefdfd" d="M 1519.5,367.5 C 1520.5,349.341 1520.83,331.008 1520.5,312.5C 1528.17,312.5 1535.83,312.5 1543.5,312.5C 1543.5,343.167 1543.5,373.833 1543.5,404.5C 1535.49,404.666 1527.49,404.5 1519.5,404C 1505.12,385.409 1490.62,366.909 1476,348.5C 1475.5,367.164 1475.33,385.83 1475.5,404.5C 1467.5,404.5 1459.5,404.5 1451.5,404.5C 1451.5,373.5 1451.5,342.5 1451.5,311.5C 1459.86,311.169 1468.19,311.502 1476.5,312.5C 1490.61,331.084 1504.95,349.417 1519.5,367.5 Z"/></g>
<g><path style="opacity:1" fill="#ebb9ae" d="M 1543.5,404.5 C 1543.5,373.833 1543.5,343.167 1543.5,312.5C 1535.83,312.5 1528.17,312.5 1520.5,312.5C 1520.83,331.008 1520.5,349.341 1519.5,367.5C 1519.5,348.833 1519.5,330.167 1519.5,311.5C 1527.83,311.5 1536.17,311.5 1544.5,311.5C 1544.83,342.671 1544.5,373.671 1543.5,404.5 Z"/></g>
<g><path style="opacity:1" fill="#ebbdb2" d="M 1666.5,367.5 C 1665.5,349.341 1665.17,331.008 1665.5,312.5C 1657.83,312.5 1650.17,312.5 1642.5,312.5C 1642.5,332.5 1642.5,352.5 1642.5,372.5C 1641.5,352.34 1641.17,332.007 1641.5,311.5C 1649.83,311.5 1658.17,311.5 1666.5,311.5C 1666.5,330.167 1666.5,348.833 1666.5,367.5 Z"/></g>
<g><path style="opacity:1" fill="#fefdfd" d="M 1642.5,372.5 C 1642.5,352.5 1642.5,332.5 1642.5,312.5C 1650.17,312.5 1657.83,312.5 1665.5,312.5C 1665.17,331.008 1665.5,349.341 1666.5,367.5C 1667.12,382.81 1674.78,388.31 1689.5,384C 1693.58,381.688 1696.08,378.188 1697,373.5C 1698.4,352.866 1698.9,332.199 1698.5,311.5C 1706.5,311.5 1714.5,311.5 1722.5,311.5C 1722.67,333.169 1722.5,354.836 1722,376.5C 1719.28,394.548 1708.78,404.382 1690.5,406C 1676.12,408.623 1663.12,405.623 1651.5,397C 1645.04,390.136 1642.04,381.97 1642.5,372.5 Z"/></g>
<g><path style="opacity:1" fill="#ecc0b5" d="M 1764.5,383.5 C 1763.5,360.006 1763.17,336.339 1763.5,312.5C 1755.83,312.5 1748.17,312.5 1740.5,312.5C 1740.5,342.833 1740.5,373.167 1740.5,403.5C 1757.83,403.5 1775.17,403.5 1792.5,403.5C 1775.01,404.497 1757.34,404.83 1739.5,404.5C 1739.5,373.5 1739.5,342.5 1739.5,311.5C 1747.83,311.5 1756.17,311.5 1764.5,311.5C 1764.5,335.5 1764.5,359.5 1764.5,383.5 Z"/></g>
<g><path style="opacity:1" fill="#fefefe" d="M 1764.5,383.5 C 1773.83,383.5 1783.17,383.5 1792.5,383.5C 1792.5,390.167 1792.5,396.833 1792.5,403.5C 1775.17,403.5 1757.83,403.5 1740.5,403.5C 1740.5,373.167 1740.5,342.833 1740.5,312.5C 1748.17,312.5 1755.83,312.5 1763.5,312.5C 1763.17,336.339 1763.5,360.006 1764.5,383.5 Z"/></g>
<g><path style="opacity:1" fill="#fefdfc" d="M 1838.5,332.5 C 1837.5,355.994 1837.17,379.661 1837.5,403.5C 1829.83,403.5 1822.17,403.5 1814.5,403.5C 1814.83,379.661 1814.5,355.994 1813.5,332.5C 1807.17,332.5 1800.83,332.5 1794.5,332.5C 1794.5,325.5 1794.5,318.5 1794.5,311.5C 1815.5,311.5 1836.5,311.5 1857.5,311.5C 1857.5,318.5 1857.5,325.5 1857.5,332.5C 1851.17,332.5 1844.83,332.5 1838.5,332.5 Z"/></g>
<g><path style="opacity:1" fill="#ebbcb2" d="M 1873.5,311.5 C 1881.83,311.5 1890.17,311.5 1898.5,311.5C 1898.5,342.5 1898.5,373.5 1898.5,404.5C 1890.17,404.5 1881.83,404.5 1873.5,404.5C 1873.5,373.5 1873.5,342.5 1873.5,311.5 Z"/></g>
<g><path style="opacity:1" fill="#fefffe" d="M 1874.5,312.5 C 1882.17,312.5 1889.83,312.5 1897.5,312.5C 1897.5,342.833 1897.5,373.167 1897.5,403.5C 1889.83,403.5 1882.17,403.5 1874.5,403.5C 1874.5,373.167 1874.5,342.833 1874.5,312.5 Z"/></g>
<g><path style="opacity:1" fill="#fefdfd" d="M 1984.5,365.5 C 1984.78,366.289 1985.28,366.956 1986,367.5C 1986.5,348.836 1986.67,330.17 1986.5,311.5C 1994.5,311.5 2002.5,311.5 2010.5,311.5C 2010.5,342.5 2010.5,373.5 2010.5,404.5C 2002.49,404.666 1994.49,404.5 1986.5,404C 1972,385.5 1957.5,367 1943,348.5C 1942.5,367.164 1942.33,385.83 1942.5,404.5C 1934.5,404.5 1926.5,404.5 1918.5,404.5C 1918.5,373.5 1918.5,342.5 1918.5,311.5C 1926.51,311.334 1934.51,311.5 1942.5,312C 1956.36,330.02 1970.36,347.853 1984.5,365.5 Z"/></g>
<g><path style="opacity:1" fill="#cd6258" d="M 1986.5,311.5 C 1986.67,330.17 1986.5,348.836 1986,367.5C 1985.28,366.956 1984.78,366.289 1984.5,365.5C 1985.17,347.5 1985.83,329.5 1986.5,311.5 Z"/></g>
<g><path style="opacity:1" fill="#fefcfc" d="M 2235.5,383.5 C 2235.5,390.167 2235.5,396.833 2235.5,403.5C 2218.17,403.5 2200.83,403.5 2183.5,403.5C 2183.5,372.833 2183.5,342.167 2183.5,311.5C 2200.83,311.5 2218.17,311.5 2235.5,311.5C 2235.5,318.5 2235.5,325.5 2235.5,332.5C 2226.17,332.5 2216.83,332.5 2207.5,332.5C 2207.5,337.5 2207.5,342.5 2207.5,347.5C 2216.5,347.5 2225.5,347.5 2234.5,347.5C 2234.5,354.5 2234.5,361.5 2234.5,368.5C 2225.5,368.5 2216.5,368.5 2207.5,368.5C 2207.5,373.5 2207.5,378.5 2207.5,383.5C 2216.83,383.5 2226.17,383.5 2235.5,383.5 Z"/></g>
<g><path style="opacity:1" fill="#fefdfd" d="M 2258.5,311.5 C 2266.51,311.334 2274.51,311.5 2282.5,312C 2297,330.5 2311.5,349 2326,367.5C 2326.5,348.836 2326.67,330.17 2326.5,311.5C 2334.5,311.5 2342.5,311.5 2350.5,311.5C 2350.5,342.5 2350.5,373.5 2350.5,404.5C 2342.14,404.831 2333.81,404.498 2325.5,403.5C 2311.39,384.916 2297.05,366.583 2282.5,348.5C 2281.5,366.659 2281.17,384.992 2281.5,403.5C 2273.83,403.5 2266.17,403.5 2258.5,403.5C 2258.5,372.833 2258.5,342.167 2258.5,311.5 Z"/></g>
<g><path style="opacity:1" fill="#ebbcb2" d="M 2478.5,311.5 C 2486.83,311.5 2495.17,311.5 2503.5,311.5C 2503.5,342.5 2503.5,373.5 2503.5,404.5C 2495.17,404.5 2486.83,404.5 2478.5,404.5C 2478.5,373.5 2478.5,342.5 2478.5,311.5 Z"/></g>
<g><path style="opacity:1" fill="#fefffe" d="M 2479.5,312.5 C 2487.17,312.5 2494.83,312.5 2502.5,312.5C 2502.5,342.833 2502.5,373.167 2502.5,403.5C 2494.83,403.5 2487.17,403.5 2479.5,403.5C 2479.5,373.167 2479.5,342.833 2479.5,312.5 Z"/></g>
<g><path style="opacity:1" fill="#fefdfd" d="M 2523.5,311.5 C 2531.51,311.334 2539.51,311.5 2547.5,312C 2562,330.5 2576.5,349 2591,367.5C 2591.5,348.836 2591.67,330.17 2591.5,311.5C 2599.5,311.5 2607.5,311.5 2615.5,311.5C 2615.5,342.5 2615.5,373.5 2615.5,404.5C 2607.49,404.666 2599.49,404.5 2591.5,404C 2577,385.5 2562.5,367 2548,348.5C 2547.5,367.164 2547.33,385.83 2547.5,404.5C 2539.5,404.5 2531.5,404.5 2523.5,404.5C 2523.5,373.5 2523.5,342.5 2523.5,311.5 Z"/></g>
<g><path style="opacity:1" fill="#fefcfb" d="M 2636.5,311.5 C 2653.83,311.5 2671.17,311.5 2688.5,311.5C 2688.5,318.5 2688.5,325.5 2688.5,332.5C 2679.17,332.5 2669.83,332.5 2660.5,332.5C 2660.5,337.5 2660.5,342.5 2660.5,347.5C 2669.5,347.5 2678.5,347.5 2687.5,347.5C 2687.5,354.5 2687.5,361.5 2687.5,368.5C 2678.5,368.5 2669.5,368.5 2660.5,368.5C 2660.5,373.5 2660.5,378.5 2660.5,383.5C 2669.83,383.5 2679.17,383.5 2688.5,383.5C 2688.5,390.167 2688.5,396.833 2688.5,403.5C 2671.17,403.5 2653.83,403.5 2636.5,403.5C 2636.5,372.833 2636.5,342.167 2636.5,311.5 Z"/></g>
<g><path style="opacity:1" fill="#fefcfc" d="M 2760.5,383.5 C 2760.5,390.167 2760.5,396.833 2760.5,403.5C 2743.17,403.5 2725.83,403.5 2708.5,403.5C 2708.5,372.833 2708.5,342.167 2708.5,311.5C 2725.83,311.5 2743.17,311.5 2760.5,311.5C 2760.5,318.5 2760.5,325.5 2760.5,332.5C 2751.17,332.5 2741.83,332.5 2732.5,332.5C 2732.5,337.5 2732.5,342.5 2732.5,347.5C 2741.5,347.5 2750.5,347.5 2759.5,347.5C 2759.5,354.5 2759.5,361.5 2759.5,368.5C 2750.5,368.5 2741.5,368.5 2732.5,368.5C 2732.5,373.5 2732.5,378.5 2732.5,383.5C 2741.83,383.5 2751.17,383.5 2760.5,383.5 Z"/></g>
<g><path style="opacity:1" fill="#efccc2" d="M 2825.5,312.5 C 2811.5,312.5 2797.5,312.5 2783.5,312.5C 2783.5,342.833 2783.5,373.167 2783.5,403.5C 2791.17,403.5 2798.83,403.5 2806.5,403.5C 2806.5,403.833 2806.5,404.167 2806.5,404.5C 2798.5,404.5 2790.5,404.5 2782.5,404.5C 2782.5,373.5 2782.5,342.5 2782.5,311.5C 2797.01,311.171 2811.34,311.504 2825.5,312.5 Z"/></g>
<g><path style="opacity:1" fill="#fefdfd" d="M 2825.5,312.5 C 2841.64,314.139 2849.98,322.972 2850.5,339C 2851.36,353.285 2845.03,362.619 2831.5,367C 2840.72,378.71 2849.72,390.543 2858.5,402.5C 2849.01,403.494 2839.35,403.827 2829.5,403.5C 2822.26,392.706 2815.26,381.706 2808.5,370.5C 2808.44,369.957 2808.11,369.624 2807.5,369.5C 2806.5,380.814 2806.17,392.147 2806.5,403.5C 2798.83,403.5 2791.17,403.5 2783.5,403.5C 2783.5,373.167 2783.5,342.833 2783.5,312.5C 2797.5,312.5 2811.5,312.5 2825.5,312.5 Z"/></g>
<g><path style="opacity:1" fill="#df9588" d="M 1320.5,313.5 C 1321.82,323.008 1321.82,332.675 1320.5,342.5C 1319.89,342.376 1319.56,342.043 1319.5,341.5C 1320.49,332.348 1320.83,323.015 1320.5,313.5 Z"/></g>
<g><path style="opacity:1" fill="#9b9b9a" d="M 574.5,314.5 C 575.827,330.005 575.827,345.672 574.5,361.5C 573.893,361.376 573.56,361.043 573.5,360.5C 574.496,345.342 574.83,330.009 574.5,314.5 Z"/></g>
<g><path style="opacity:1" fill="#be2b31" d="M 2807.5,330.5 C 2820.38,328.55 2826.21,333.883 2825,346.5C 2823.52,349.663 2821.02,351.496 2817.5,352C 2814.18,352.498 2810.85,352.665 2807.5,352.5C 2807.5,345.167 2807.5,337.833 2807.5,330.5 Z"/></g>
<g><path style="opacity:1" fill="#be2a31" d="M 1377.5,332.5 C 1399.01,330.523 1409.85,340.19 1410,361.5C 1405.58,378.296 1394.75,385.463 1377.5,383C 1363.77,377.044 1357.6,366.544 1359,351.5C 1362.02,341.984 1368.18,335.651 1377.5,332.5 Z"/></g>
<g><path style="opacity:1" fill="#ebbcb1" d="M 1813.5,332.5 C 1814.5,355.994 1814.83,379.661 1814.5,403.5C 1822.17,403.5 1829.83,403.5 1837.5,403.5C 1837.17,379.661 1837.5,355.994 1838.5,332.5C 1838.5,356.5 1838.5,380.5 1838.5,404.5C 1830.17,404.5 1821.83,404.5 1813.5,404.5C 1813.5,380.5 1813.5,356.5 1813.5,332.5 Z"/></g>
<g><path style="opacity:1" fill="#c03135" d="M 989.5,341.5 C 993.789,350.357 997.122,359.69 999.5,369.5C 993.132,369.83 986.798,369.496 980.5,368.5C 983.705,359.55 986.705,350.55 989.5,341.5 Z"/></g>
<g><path style="opacity:1" fill="#ebb9ae" d="M 2258.5,311.5 C 2258.5,342.167 2258.5,372.833 2258.5,403.5C 2266.17,403.5 2273.83,403.5 2281.5,403.5C 2281.17,384.992 2281.5,366.659 2282.5,348.5C 2282.5,367.167 2282.5,385.833 2282.5,404.5C 2274.17,404.5 2265.83,404.5 2257.5,404.5C 2257.17,373.329 2257.5,342.329 2258.5,311.5 Z"/></g>
<g><path style="opacity:1" fill="#e0978a" d="M 2808.5,370.5 C 2807.83,381.833 2807.17,393.167 2806.5,404.5C 2806.5,404.167 2806.5,403.833 2806.5,403.5C 2806.17,392.147 2806.5,380.814 2807.5,369.5C 2808.11,369.624 2808.44,369.957 2808.5,370.5 Z"/></g>
<g><path style="opacity:1" fill="#efccc3" d="M 1162.5,383.5 C 1172.17,383.5 1181.83,383.5 1191.5,383.5C 1191.5,390.5 1191.5,397.5 1191.5,404.5C 1173.66,404.83 1155.99,404.497 1138.5,403.5C 1155.83,403.5 1173.17,403.5 1190.5,403.5C 1190.5,397.167 1190.5,390.833 1190.5,384.5C 1180.99,384.827 1171.65,384.494 1162.5,383.5 Z"/></g>
<g><path style="opacity:1" fill="#ecc0b6" d="M 2235.5,383.5 C 2236.49,390.313 2236.82,397.313 2236.5,404.5C 2218.66,404.83 2200.99,404.497 2183.5,403.5C 2200.83,403.5 2218.17,403.5 2235.5,403.5C 2235.5,396.833 2235.5,390.167 2235.5,383.5 Z"/></g>
<g><path style="opacity:1" fill="#eab7ac" d="M 2636.5,311.5 C 2636.5,342.167 2636.5,372.833 2636.5,403.5C 2653.83,403.5 2671.17,403.5 2688.5,403.5C 2671.01,404.497 2653.34,404.83 2635.5,404.5C 2635.17,373.329 2635.5,342.329 2636.5,311.5 Z"/></g>
<g><path style="opacity:1" fill="#ecc0b6" d="M 2760.5,383.5 C 2761.49,390.313 2761.82,397.313 2761.5,404.5C 2743.66,404.83 2725.99,404.497 2708.5,403.5C 2725.83,403.5 2743.17,403.5 2760.5,403.5C 2760.5,396.833 2760.5,390.167 2760.5,383.5 Z"/></g>
<g><path style="opacity:1" fill="#efcbc2" d="M 2858.5,402.5 C 2859.04,402.56 2859.38,402.893 2859.5,403.5C 2849.34,404.823 2839.34,404.823 2829.5,403.5C 2839.35,403.827 2849.01,403.494 2858.5,402.5 Z"/></g>
<g><path style="opacity:1" fill="#fefcfc" d="M 1106.5,469.5 C 1135.54,468.746 1154.38,482.079 1163,509.5C 1164,550.169 1144.16,569.669 1103.5,568C 1081.22,563.719 1067.39,550.552 1062,528.5C 1058.95,495.247 1073.78,475.581 1106.5,469.5 Z"/></g>
<g><path style="opacity:1" fill="#fefcfc" d="M 2256.5,469.5 C 2282.18,468.409 2300.34,479.409 2311,502.5C 2316.09,522.233 2311.92,539.733 2298.5,555C 2282.43,567.748 2264.43,571.415 2244.5,566C 2227.33,559.494 2216.49,547.327 2212,529.5C 2208.62,495.9 2223.46,475.9 2256.5,469.5 Z"/></g>
<g><path style="opacity:1" fill="#fefcfb" d="M 955.5,472.5 C 963.528,472.169 971.528,472.502 979.5,473.5C 985.565,489.528 991.732,505.528 998,521.5C 1004.4,505.46 1010.9,489.46 1017.5,473.5C 1025.48,472.335 1033.48,472.168 1041.5,473C 1046.94,503.68 1051.61,534.513 1055.5,565.5C 1047.5,565.5 1039.5,565.5 1031.5,565.5C 1029.42,547.835 1027.25,530.169 1025,512.5C 1017.68,529.799 1010.34,547.133 1003,564.5C 1001.26,565.127 999.429,565.46 997.5,565.5C 995.359,565.387 993.525,564.72 992,563.5C 985.333,546.833 978.667,530.167 972,513.5C 968.987,530.758 966.487,548.092 964.5,565.5C 956.5,565.5 948.5,565.5 940.5,565.5C 944.958,534.42 949.958,503.42 955.5,472.5 Z"/></g>
<g><path style="opacity:1" fill="#fefdfd" d="M 1232.5,473.5 C 1240.5,473.5 1248.5,473.5 1256.5,473.5C 1256.5,504.167 1256.5,534.833 1256.5,565.5C 1248.5,565.5 1240.5,565.5 1232.5,565.5C 1232.5,552.833 1232.5,540.167 1232.5,527.5C 1221.17,527.5 1209.83,527.5 1198.5,527.5C 1198.5,540.167 1198.5,552.833 1198.5,565.5C 1190.5,565.5 1182.5,565.5 1174.5,565.5C 1174.5,534.5 1174.5,503.5 1174.5,472.5C 1182.5,472.5 1190.5,472.5 1198.5,472.5C 1198.5,484.5 1198.5,496.5 1198.5,508.5C 1209.83,508.5 1221.17,508.5 1232.5,508.5C 1232.5,496.833 1232.5,485.167 1232.5,473.5 Z"/></g>
<g><path style="opacity:1" fill="#df9689" d="M 1232.5,473.5 C 1240.65,472.507 1248.98,472.174 1257.5,472.5C 1257.83,503.671 1257.5,534.671 1256.5,565.5C 1256.5,534.833 1256.5,504.167 1256.5,473.5C 1248.5,473.5 1240.5,473.5 1232.5,473.5 Z"/></g>
<g><path style="opacity:1" fill="#fefcfc" d="M 1304.5,472.5 C 1313.5,472.5 1322.5,472.5 1331.5,472.5C 1342.63,503.23 1353.97,533.897 1365.5,564.5C 1356.83,565.833 1348.17,565.833 1339.5,564.5C 1337.54,559.583 1335.87,554.583 1334.5,549.5C 1323.17,549.5 1311.83,549.5 1300.5,549.5C 1299.19,554.923 1297.19,560.089 1294.5,565C 1286.17,565.5 1277.84,565.666 1269.5,565.5C 1280.97,534.434 1292.63,503.434 1304.5,472.5 Z"/></g>
<g><path style="opacity:1" fill="#ecbfb4" d="M 1420.5,473.5 C 1406.5,473.5 1392.5,473.5 1378.5,473.5C 1378.5,504.167 1378.5,534.833 1378.5,565.5C 1377.5,534.671 1377.17,503.671 1377.5,472.5C 1392.01,472.171 1406.34,472.504 1420.5,473.5 Z"/></g>
<g><path style="opacity:1" fill="#fefdfc" d="M 1420.5,473.5 C 1437.07,475.235 1445.4,484.402 1445.5,501C 1446.04,514.944 1439.71,523.944 1426.5,528C 1435.83,540.333 1445.17,552.667 1454.5,565C 1444.5,565.667 1434.5,565.667 1424.5,565C 1417.33,553.833 1410.17,542.667 1403,531.5C 1402.5,542.828 1402.33,554.162 1402.5,565.5C 1394.5,565.5 1386.5,565.5 1378.5,565.5C 1378.5,534.833 1378.5,504.167 1378.5,473.5C 1392.5,473.5 1406.5,473.5 1420.5,473.5 Z"/></g>
<g><path style="opacity:1" fill="#fefbfb" d="M 1491.5,531.5 C 1491.44,530.957 1491.11,530.624 1490.5,530.5C 1489.5,542.148 1489.17,553.814 1489.5,565.5C 1481.5,565.5 1473.5,565.5 1465.5,565.5C 1465.5,534.833 1465.5,504.167 1465.5,473.5C 1481.17,473.333 1496.84,473.5 1512.5,474C 1526.82,477.14 1533.82,485.973 1533.5,500.5C 1534.2,514.626 1527.86,523.793 1514.5,528C 1523.71,540.257 1533.05,552.423 1542.5,564.5C 1532.52,565.666 1522.52,565.832 1512.5,565C 1505.28,553.949 1498.28,542.782 1491.5,531.5 Z"/></g>
<g><path style="opacity:1" fill="#fefcfc" d="M 1586.5,472.5 C 1595.42,472.183 1604.25,472.516 1613,473.5C 1624,504.006 1635.5,534.339 1647.5,564.5C 1638.85,565.665 1630.19,565.832 1621.5,565C 1619.7,559.92 1617.7,554.92 1615.5,550C 1604.48,549.168 1593.48,549.334 1582.5,550.5C 1580.5,555.167 1578.5,559.833 1576.5,564.5C 1567.85,565.665 1559.19,565.832 1550.5,565C 1562.37,534.1 1574.37,503.267 1586.5,472.5 Z"/></g>
<g><path style="opacity:1" fill="#fefcfc" d="M 1676.5,472.5 C 1684.75,472.184 1692.92,472.518 1701,473.5C 1706.69,489.409 1712.86,505.076 1719.5,520.5C 1725.83,505.176 1732.16,489.843 1738.5,474.5C 1746.81,473.502 1755.14,473.169 1763.5,473.5C 1768.16,504.118 1772.49,534.785 1776.5,565.5C 1768.5,565.5 1760.5,565.5 1752.5,565.5C 1750.88,548.108 1748.71,530.774 1746,513.5C 1738.14,530.586 1730.97,547.92 1724.5,565.5C 1720.89,565.789 1717.39,565.456 1714,564.5C 1707.26,547.356 1700.26,530.356 1693,513.5C 1690.17,530.789 1687.67,548.123 1685.5,565.5C 1677.5,565.5 1669.5,565.5 1661.5,565.5C 1666.39,534.486 1671.39,503.486 1676.5,472.5 Z"/></g>
<g><path style="opacity:1" fill="#fefdfd" d="M 1836.5,473.5 C 1851.5,473.333 1866.5,473.5 1881.5,474C 1895.54,478.84 1901.04,488.673 1898,503.5C 1896.72,509.113 1893.55,513.28 1888.5,516C 1901.19,518.376 1907.19,526.043 1906.5,539C 1906.92,549.833 1902.25,557.5 1892.5,562C 1888.28,563.472 1883.94,564.472 1879.5,565C 1865.17,565.5 1850.84,565.667 1836.5,565.5C 1836.5,534.833 1836.5,504.167 1836.5,473.5 Z"/></g>
<g><path style="opacity:1" fill="#fefcfc" d="M 1946.5,472.5 C 1955.17,472.334 1963.84,472.5 1972.5,473C 1984.25,503.422 1995.92,533.922 2007.5,564.5C 1998.83,565.833 1990.17,565.833 1981.5,564.5C 1979.23,559.686 1977.56,554.686 1976.5,549.5C 1965.15,549.168 1953.81,549.501 1942.5,550.5C 1940.59,555.391 1938.59,560.224 1936.5,565C 1927.83,565.667 1919.17,565.667 1910.5,565C 1922.6,534.194 1934.6,503.361 1946.5,472.5 Z"/></g>
<g><path style="opacity:1" fill="#fefcfc" d="M 2017.5,472.5 C 2025.5,472.5 2033.5,472.5 2041.5,472.5C 2041.33,485.171 2041.5,497.838 2042,510.5C 2051.14,497.731 2060.64,485.231 2070.5,473C 2080.5,472.333 2090.5,472.333 2100.5,473C 2088.26,487.501 2076.26,502.168 2064.5,517C 2077.11,533.279 2090.11,549.279 2103.5,565C 2093.17,565.667 2082.83,565.667 2072.5,565C 2062.33,552.167 2052.17,539.333 2042,526.5C 2041.5,539.496 2041.33,552.496 2041.5,565.5C 2033.5,565.5 2025.5,565.5 2017.5,565.5C 2017.5,534.5 2017.5,503.5 2017.5,472.5 Z"/></g>
<g><path style="opacity:1" fill="#fefcfc" d="M 2114.5,473.5 C 2122.5,473.5 2130.5,473.5 2138.5,473.5C 2138.17,485.345 2138.51,497.012 2139.5,508.5C 2150.83,508.5 2162.17,508.5 2173.5,508.5C 2173.5,496.5 2173.5,484.5 2173.5,472.5C 2181.5,472.5 2189.5,472.5 2197.5,472.5C 2197.5,503.5 2197.5,534.5 2197.5,565.5C 2189.5,565.5 2181.5,565.5 2173.5,565.5C 2173.5,552.833 2173.5,540.167 2173.5,527.5C 2162.17,527.5 2150.83,527.5 2139.5,527.5C 2139.5,540.167 2139.5,552.833 2139.5,565.5C 2131.17,565.5 2122.83,565.5 2114.5,565.5C 2114.5,534.833 2114.5,504.167 2114.5,473.5 Z"/></g>
<g><path style="opacity:1" fill="#df9689" d="M 2114.5,473.5 C 2122.65,472.507 2130.98,472.174 2139.5,472.5C 2139.5,484.5 2139.5,496.5 2139.5,508.5C 2138.51,497.012 2138.17,485.345 2138.5,473.5C 2130.5,473.5 2122.5,473.5 2114.5,473.5 Z"/></g>
<g><path style="opacity:1" fill="#fefdfd" d="M 2326.5,473.5 C 2334.17,473.5 2341.83,473.5 2349.5,473.5C 2349.17,491.341 2349.5,509.008 2350.5,526.5C 2349.74,541.573 2356.74,548.073 2371.5,546C 2378.01,543.535 2381.51,538.702 2382,531.5C 2382.5,511.836 2382.67,492.169 2382.5,472.5C 2390.5,472.5 2398.5,472.5 2406.5,472.5C 2406.67,494.503 2406.5,516.503 2406,538.5C 2403.1,555.07 2393.26,564.57 2376.5,567C 2359.01,570.759 2344.17,566.259 2332,553.5C 2329.34,549.186 2327.67,544.519 2327,539.5C 2326.5,517.503 2326.33,495.503 2326.5,473.5 Z"/></g>
<g><path style="opacity:1" fill="#ecbfb5" d="M 2326.5,473.5 C 2334.32,472.508 2342.32,472.174 2350.5,472.5C 2350.5,490.5 2350.5,508.5 2350.5,526.5C 2349.5,509.008 2349.17,491.341 2349.5,473.5C 2341.83,473.5 2334.17,473.5 2326.5,473.5 Z"/></g>
<g><path style="opacity:1" fill="#fefcfc" d="M 2436.5,472.5 C 2444.75,472.184 2452.92,472.518 2461,473.5C 2467,489.5 2473,505.5 2479,521.5C 2485.6,505.874 2492.1,490.207 2498.5,474.5C 2506.81,473.502 2515.14,473.169 2523.5,473.5C 2527.84,504.179 2532.17,534.846 2536.5,565.5C 2528.5,565.5 2520.5,565.5 2512.5,565.5C 2510.83,548.11 2508.66,530.777 2506,513.5C 2498.15,530.553 2490.98,547.886 2484.5,565.5C 2480.83,565.5 2477.17,565.5 2473.5,565.5C 2467.16,547.971 2460.32,530.637 2453,513.5C 2449.84,530.742 2447.34,548.075 2445.5,565.5C 2437.5,565.5 2429.5,565.5 2421.5,565.5C 2426.59,534.528 2431.59,503.528 2436.5,472.5 Z"/></g>
<g><path style="opacity:1" fill="#de9184" d="M 1402.5,491.5 C 1402.5,498.833 1402.5,506.167 1402.5,513.5C 1405.5,513.5 1408.5,513.5 1411.5,513.5C 1408.38,514.479 1405.04,514.813 1401.5,514.5C 1401.17,506.648 1401.51,498.982 1402.5,491.5 Z"/></g>
<g><path style="opacity:1" fill="#be2b31" d="M 1402.5,491.5 C 1406.56,491.485 1410.56,491.985 1414.5,493C 1417,494.167 1418.83,496 1420,498.5C 1422.31,506.558 1419.48,511.558 1411.5,513.5C 1408.5,513.5 1405.5,513.5 1402.5,513.5C 1402.5,506.167 1402.5,498.833 1402.5,491.5 Z"/></g>
<g><path style="opacity:1" fill="#bf2d32" d="M 1490.5,491.5 C 1495.41,491.063 1500.08,491.896 1504.5,494C 1508.26,497.743 1509.43,502.243 1508,507.5C 1503.64,513.256 1497.81,515.59 1490.5,514.5C 1490.5,506.833 1490.5,499.167 1490.5,491.5 Z"/></g>
<g><path style="opacity:1" fill="#bf2e33" d="M 1860.5,491.5 C 1865.08,491.113 1869.41,491.947 1873.5,494C 1875.03,495.648 1875.7,497.648 1875.5,500C 1875.72,505.453 1873.05,508.453 1867.5,509C 1865.19,509.497 1862.86,509.663 1860.5,509.5C 1860.5,503.5 1860.5,497.5 1860.5,491.5 Z"/></g>
<g><path style="opacity:1" fill="#be2a31" d="M 1105.5,493.5 C 1120.13,491.731 1130.63,497.397 1137,510.5C 1139.33,534.507 1128.49,545.674 1104.5,544C 1087.62,535.704 1082.79,522.87 1090,505.5C 1094.02,499.919 1099.19,495.919 1105.5,493.5 Z"/></g>
<g><path style="opacity:1" fill="#be2a31" d="M 2255.5,493.5 C 2270.13,491.729 2280.63,497.395 2287,510.5C 2289.31,534.518 2278.48,545.685 2254.5,544C 2238.22,536.16 2233.05,523.66 2239,506.5C 2243.17,500.35 2248.67,496.017 2255.5,493.5 Z"/></g>
<g><path style="opacity:1" fill="#c03336" d="M 1598.5,502.5 C 1602.79,511.357 1606.12,520.69 1608.5,530.5C 1602.13,530.83 1595.8,530.496 1589.5,529.5C 1592.71,520.55 1595.71,511.55 1598.5,502.5 Z"/></g>
<g><path style="opacity:1" fill="#c13336" d="M 1316.5,502.5 C 1317.5,502.47 1318.16,502.97 1318.5,504C 1321.68,512.708 1324.35,521.541 1326.5,530.5C 1320.5,530.5 1314.5,530.5 1308.5,530.5C 1310.96,521.114 1313.63,511.781 1316.5,502.5 Z"/></g>
<g><path style="opacity:1" fill="#c03335" d="M 1958.5,503.5 C 1959.46,503.953 1960.29,504.619 1961,505.5C 1964.01,513.708 1966.51,522.042 1968.5,530.5C 1962.16,530.666 1955.82,530.5 1949.5,530C 1952.8,521.271 1955.8,512.438 1958.5,503.5 Z"/></g>
<g><path style="opacity:1" fill="#be2b31" d="M 1860.5,527.5 C 1865.51,527.334 1870.51,527.501 1875.5,528C 1882.39,530.851 1884.23,535.684 1881,542.5C 1880.1,543.701 1878.93,544.535 1877.5,545C 1871.91,546.289 1866.24,546.789 1860.5,546.5C 1860.5,540.167 1860.5,533.833 1860.5,527.5 Z"/></g>
<g><path style="opacity:1" fill="#efccc3" d="M 1491.5,531.5 C 1490.83,542.833 1490.17,554.167 1489.5,565.5C 1489.17,553.814 1489.5,542.148 1490.5,530.5C 1491.11,530.624 1491.44,530.957 1491.5,531.5 Z"/></g>
<g><path style="opacity:1" fill="#fefbfa" d="M 1796.5,539.5 C 1806.23,537.115 1813.06,540.449 1817,549.5C 1817.51,562.981 1811.01,568.814 1797.5,567C 1788.17,561.718 1786,554.218 1791,544.5C 1792.81,542.7 1794.65,541.033 1796.5,539.5 Z"/></g>
</svg>
