<?xml version="1.0" encoding="UTF-8"?>
<!DOCTYPE svg PUBLIC "-//W3C//DTD SVG 1.1//EN" "http://www.w3.org/Graphics/SVG/1.1/DTD/svg11.dtd">

<svg xmlns="http://www.w3.org/2000/svg" xmlns:xlink="http://www.w3.org/1999/xlink" version="1.1" id="Isolation_Mode" x="0px" y="0px" class="w-100 h-100" style="enable-background:new 0 0 288 87;" xml:space="preserve" viewBox="17.3 10.9 246.5 66.8">
    							<style type="text/css">
    								.st0{fill:#000000;}
    								.st1{fill:#F37028;}
    								.st2{fill:#243E87;}
    							</style>
    							<path class="st0" d="M73.4,30.6h-3.7l-8.4,22.9h3.2l2.5-6.8H76l2.5,6.8h3.3L73.4,30.6z M68,44.2L71.6,34l3.6,10.2H68z"></path>
    							<polygon class="st0" points="125.7,53.9 125.7,30.8 128.8,30.8 128.8,40.3 140.8,40.3 140.8,30.8 143.8,30.8 143.8,53.9 140.8,53.9   140.8,43 128.8,43 128.8,53.9 "></polygon>
    							<rect x="148" y="30.6" class="st0" width="3.2" height="23.1"></rect>
    							<path class="st0" d="M195.3,35.6c-0.9-1.9-2.2-3.3-3.9-4.3c-1.7-1-3.6-1.6-5.8-1.6c-3.3,0-5.9,1.1-8,3.3c-2.1,2.2-3.1,5.3-3.1,9.2  c0,2.1,0.4,4,1.3,5.9c0.9,1.8,2.2,3.3,3.9,4.4c1.7,1.1,3.7,1.6,5.8,1.6c2,0,3.9-0.5,5.6-1.5c1.7-1,3.1-2.4,4-4.3  c0.9-1.9,1.4-4,1.4-6.4C196.6,39.6,196.2,37.5,195.3,35.6 M191.2,48.9c-1.5,1.6-3.4,2.5-5.7,2.5c-2.3,0-4.1-0.8-5.6-2.4  c-1.5-1.6-2.3-3.9-2.3-6.7c0-3.5,0.8-6.1,2.3-7.6c1.6-1.5,3.4-2.3,5.6-2.3c1.5,0,2.9,0.4,4.1,1.2c1.2,0.8,2.2,1.9,2.8,3.3  c0.6,1.4,1,3.1,1,5C193.5,44.9,192.7,47.2,191.2,48.9"></path>
    							<path class="st0" d="M220.2,42.3c0-3.9,1-7,3.1-9.2c2.1-2.2,4.8-3.3,8.1-3.3c2.2,0,4.1,0.5,5.9,1.6c1.7,1,3.1,2.5,4,4.3  c0.9,1.9,1.4,4,1.4,6.3c0,2.4-0.5,4.5-1.4,6.4c-1,1.9-2.3,3.3-4.1,4.3c-1.8,1-3.7,1.5-5.7,1.5c-2.2,0-4.2-0.5-5.9-1.6  c-1.7-1.1-3.1-2.5-4-4.4C220.6,46.3,220.2,44.3,220.2,42.3 M223.4,42.3c0,2.8,0.8,5.1,2.3,6.7c1.5,1.6,3.4,2.4,5.7,2.4  c2.3,0,4.3-0.8,5.8-2.5c1.5-1.6,2.3-4,2.3-7c0-1.9-0.3-3.6-1-5c-0.6-1.4-1.6-2.5-2.8-3.3c-1.2-0.8-2.6-1.2-4.2-1.2  c-2.2,0-4.1,0.8-5.7,2.3C224.2,36.2,223.4,38.8,223.4,42.3"></path>
    							<path class="st0" d="M217.3,36.1c-1.5-4.8-7.4-5.6-7.4-5.6h-10.4v23.1h8.3l3-0.2C219.7,50.4,218.8,41,217.3,36.1 M209.7,50.7h-7  V33.3h7.2c0,0,4.6,0.8,5,6.3C214.8,39.7,216.7,48.9,209.7,50.7"></path>
    							<polygon class="st0" points="245.3,53.6 245.3,30.1 248.5,30.1 260.8,48.5 260.8,30.1 263.8,30.1 263.8,53.6 260.6,53.6 248.3,35.1   248.3,53.6 "></polygon>
    							<path class="st0" d="M99.9,50.4l-0.4-5.7c-0.2-2-2.3-2.5-2.3-2.5c4.2-2,2.9-6.7,2.9-6.7c-0.9-5.1-6.2-4.9-6.2-4.9H83.4v22.9v0.1  l3.1,0.1l0-9.9l7.1,0.1c3.3,0,3.1,3.4,3.1,3.4l0.3,4.3c0.1,1.5,0.5,2.1,0.5,2.1h3.5v-0.8C99.9,52.4,99.9,50.4,99.9,50.4 M97.1,38  c0,0-0.1,2.8-3.7,3h-6.9v-7.8h6.1c0,0,4.5,0,4.5,2.7V38z"></path>
    							<path class="st0" d="M171.7,50.4l-0.4-5.7c-0.2-2-2.3-2.5-2.3-2.5c4.2-2,2.9-6.7,2.9-6.7c-0.9-5.1-6.2-4.9-6.2-4.9h-10.5v22.9v0.1  l3.1,0.1l0-9.9l7,0.1c3.3,0,3.1,3.4,3.1,3.4l0.3,4.3c0.1,1.5,0.5,2.1,0.5,2.1h3.5v-0.8C171.6,52.4,171.7,50.4,171.7,50.4 M165.7,41  h-6.9v-7.8h6.1c0,0,4.5,0,4.5,2.7v2C169.5,38,169.4,40.8,165.7,41"></path>
    							<path class="st0" d="M120.1,45.1c0,0-0.2,6.4-6.5,6.4c0,0-5.9,0.6-7.2-7.1c0,0-2.1-10.8,6.8-11.6c0,0,5.6-0.5,6.5,4.7h3.1  c0,0-0.4-7.5-9.7-7.6c0,0-9.6,0.1-10.4,10.8c0,0-1.1,13.3,10.2,13.6c0,0,9.3,0.6,10-9.2H120.1z"></path>
    							<path class="st1" d="M25,29.6L17.3,43L25,29.6z"></path>
    							<polygon class="st1" points="26.6,26.9 35.8,43 54.3,43 35.8,10.9 26.6,26.9 "></polygon>
    							<polygon class="st1" points="17.3,43 32.8,43 25,29.6 "></polygon>
    							<path class="st1" d="M25,59l-7.7-13.4L25,59z"></path>
    							<polygon class="st2" points="26.6,61.7 35.8,45.6 54.3,45.6 35.8,77.7 26.6,61.6 "></polygon>
    							<polygon class="st2" points="17.3,45.6 32.8,45.6 25,59 "></polygon>
    							</svg>
