<?xml version="1.0" encoding="UTF-8"?>
<!DOCTYPE svg PUBLIC "-//W3C//DTD SVG 1.1//EN" "http://www.w3.org/Graphics/SVG/1.1/DTD/svg11.dtd">
<svg xmlns="http://www.w3.org/2000/svg" version="1.1" width="4536px" height="1123px" style="shape-rendering:geometricPrecision; text-rendering:geometricPrecision; image-rendering:optimizeQuality; fill-rule:evenodd; clip-rule:evenodd" xmlns:xlink="http://www.w3.org/1999/xlink">
<g><path style="opacity:0.997" fill="#e0e1e2" d="M 367.5,107.5 C 366.833,108.5 366.167,109.5 365.5,110.5C 347.654,123.59 329.987,136.924 312.5,150.5C 312.103,149.475 311.437,149.308 310.5,150C 301.423,156.955 292.256,163.788 283,170.5C 267.725,138.286 252.225,106.286 236.5,74.5C 228.493,57.4653 220.493,40.4653 212.5,23.5C 212.369,22.6236 212.702,21.9569 213.5,21.5C 264.861,50.1788 316.194,78.8454 367.5,107.5 Z"/></g>
<g><path style="opacity:1" fill="#919095" d="M 212.5,23.5 C 220.493,40.4653 228.493,57.4653 236.5,74.5C 250.988,107.478 265.488,140.478 280,173.5C 281.224,253.162 281.724,332.829 281.5,412.5C 282.167,524.499 282.5,636.499 282.5,748.5C 282.17,767.341 282.503,786.007 283.5,804.5C 283.5,835.833 283.5,867.167 283.5,898.5C 283.5,898.833 283.5,899.167 283.5,899.5C 259.317,886.824 235.484,873.491 212,859.5C 211.917,580.834 212.084,302.167 212.5,23.5 Z"/></g>
<g><path style="opacity:1" fill="#f8f8f9" d="M 236.5,74.5 C 252.225,106.286 267.725,138.286 283,170.5C 292.256,163.788 301.423,156.955 310.5,150C 311.437,149.308 312.103,149.475 312.5,150.5C 303.945,156.937 295.612,163.604 287.5,170.5C 285.938,170.733 284.605,171.4 283.5,172.5C 282.833,252.5 282.167,332.5 281.5,412.5C 281.724,332.829 281.224,253.162 280,173.5C 265.488,140.478 250.988,107.478 236.5,74.5 Z"/></g>
<g><path style="opacity:0.753" fill="#b8bbbc" d="M 367.5,107.5 C 368.833,358.5 368.833,609.5 367.5,860.5C 367.833,610.666 367.5,360.999 366.5,111.5C 366.5,110.833 366.167,110.5 365.5,110.5C 366.167,109.5 366.833,108.5 367.5,107.5 Z"/></g>
<g><path style="opacity:1" fill="#a0a2a6" d="M 365.5,110.5 C 366.167,110.5 366.5,110.833 366.5,111.5C 349.472,171.979 335.972,233.312 326,295.5C 301.634,453.56 288.134,612.56 285.5,772.5C 284.883,772.389 284.383,772.056 284,771.5C 283.5,782.495 283.333,793.495 283.5,804.5C 282.503,786.007 282.17,767.341 282.5,748.5C 283.5,600.001 283.833,451.334 283.5,302.5C 284.333,259.669 284.833,216.669 285,173.5C 286.045,172.627 286.878,171.627 287.5,170.5C 295.612,163.604 303.945,156.937 312.5,150.5C 329.987,136.924 347.654,123.59 365.5,110.5 Z"/></g>
<g><path style="opacity:1" fill="#c6c7c9" d="M 366.5,111.5 C 367.5,360.999 367.833,610.666 367.5,860.5C 339.658,873.889 311.658,886.889 283.5,899.5C 283.5,899.167 283.5,898.833 283.5,898.5C 284.299,856.664 284.966,814.664 285.5,772.5C 288.134,612.56 301.634,453.56 326,295.5C 335.972,233.312 349.472,171.979 366.5,111.5 Z"/></g>
<g><path style="opacity:1" fill="#6d6e71" d="M 287.5,170.5 C 286.878,171.627 286.045,172.627 285,173.5C 284.833,216.669 284.333,259.669 283.5,302.5C 283.5,259.167 283.5,215.833 283.5,172.5C 284.605,171.4 285.938,170.733 287.5,170.5 Z"/></g>
<g><path style="opacity:0.993" fill="#d8d9da" d="M 179.5,266.5 C 179.167,267.167 178.833,267.833 178.5,268.5C 160.63,280.597 142.963,292.93 125.5,305.5C 114.9,312.252 104.4,319.252 94,326.5C 80.1351,297.44 66.3018,268.44 52.5,239.5C 43.0263,219.081 33.3596,198.748 23.5,178.5C 23.3691,177.624 23.7025,176.957 24.5,176.5C 76.3579,206.259 128.025,236.259 179.5,266.5 Z"/></g>
<g><path style="opacity:1" fill="#919095" d="M 23.5,178.5 C 33.3596,198.748 43.0263,219.081 52.5,239.5C 65.1164,269.4 78.283,299.067 92,328.5C 93.1612,451.164 93.6612,573.831 93.5,696.5C 93.8333,761.833 94.1667,827.167 94.5,892.5C 94.7136,931.14 95.0469,969.807 95.5,1008.5C 71.3172,995.824 47.4839,982.491 24,968.5C 23.5,705.167 23.3333,441.834 23.5,178.5 Z"/></g>
<g><path style="opacity:0.993" fill="#d8d9da" d="M 556.5,228.5 C 547.106,248.955 537.44,269.288 527.5,289.5C 513.669,317.166 500.335,345.166 487.5,373.5C 486.635,374.583 485.635,374.749 484.5,374C 474.213,365.866 463.546,358.366 452.5,351.5C 435.863,339.509 419.196,327.509 402.5,315.5C 402.167,314.5 401.5,313.833 400.5,313.5C 451.666,284.53 503,255.697 554.5,227C 555.816,226.472 556.483,226.972 556.5,228.5 Z"/></g>
<g><path style="opacity:1" fill="#919095" d="M 556.5,228.5 C 556.833,507.167 556.5,785.834 555.5,1064.5C 532.139,1077.51 508.806,1090.51 485.5,1103.5C 485.5,1063.17 485.5,1022.83 485.5,982.5C 486.17,930.169 486.503,877.836 486.5,825.5C 486.432,675.825 487.266,526.159 489,376.5C 502.133,347.588 514.966,318.588 527.5,289.5C 537.44,269.288 547.106,248.955 556.5,228.5 Z"/></g>
<g><path style="opacity:0.439" fill="#b6b8ba" d="M 179.5,266.5 C 180.833,500.5 180.833,734.5 179.5,968.5C 179.833,734.999 179.5,501.666 178.5,268.5C 178.833,267.833 179.167,267.167 179.5,266.5 Z"/></g>
<g><path style="opacity:1" fill="#a0a2a6" d="M 178.5,268.5 C 159.142,326.264 144.642,385.264 135,445.5C 110.581,599.856 97.7482,755.189 96.5,911.5C 95.5098,905.355 95.1765,899.022 95.5,892.5C 95.8328,778.999 95.4995,665.665 94.5,552.5C 94.5,486.5 94.5,420.5 94.5,354.5C 95.3294,346.343 95.8294,338.01 96,329.5C 98.1906,328.167 100.024,326.5 101.5,324.5C 109.5,318.167 117.5,311.833 125.5,305.5C 142.963,292.93 160.63,280.597 178.5,268.5 Z"/></g>
<g><path style="opacity:1" fill="#c6c7c9" d="M 178.5,268.5 C 179.5,501.666 179.833,734.999 179.5,968.5C 152.478,982.009 125.145,995.009 97.5,1007.5C 96.5018,975.671 96.1684,943.671 96.5,911.5C 97.7482,755.189 110.581,599.856 135,445.5C 144.642,385.264 159.142,326.264 178.5,268.5 Z"/></g>
<g><path style="opacity:1" fill="#fafafa" d="M 52.5,239.5 C 66.3018,268.44 80.1351,297.44 94,326.5C 104.4,319.252 114.9,312.252 125.5,305.5C 117.5,311.833 109.5,318.167 101.5,324.5C 99.1386,325.435 96.9719,326.768 95,328.5C 94.5002,337.16 94.3336,345.827 94.5,354.5C 94.5,420.5 94.5,486.5 94.5,552.5C 94.8322,600.67 94.4988,648.67 93.5,696.5C 93.6612,573.831 93.1612,451.164 92,328.5C 78.283,299.067 65.1164,269.4 52.5,239.5 Z"/></g>
<g><path style="opacity:1" fill="#c6c7c9" d="M 400.5,313.5 C 401.5,313.833 402.167,314.5 402.5,315.5C 422.275,387.863 437.441,461.53 448,536.5C 474.305,724.574 486.472,913.574 484.5,1103.5C 456.734,1090.78 429.068,1077.78 401.5,1064.5C 400.5,814.168 400.167,563.834 400.5,313.5 Z"/></g>
<g><path style="opacity:1" fill="#a1a3a7" d="M 402.5,315.5 C 419.196,327.509 435.863,339.509 452.5,351.5C 461.167,358.5 469.833,365.5 478.5,372.5C 479.838,374.67 481.672,376.336 484,377.5C 484.5,465.499 484.667,553.499 484.5,641.5C 484.824,691.523 484.491,741.523 483.5,791.5C 484.137,807.314 484.804,822.98 485.5,838.5C 484.17,886.598 484.17,934.598 485.5,982.5C 485.5,1022.83 485.5,1063.17 485.5,1103.5C 485.167,1103.5 484.833,1103.5 484.5,1103.5C 486.472,913.574 474.305,724.574 448,536.5C 437.441,461.53 422.275,387.863 402.5,315.5 Z"/></g>
<g><path style="opacity:0.991" fill="#00223c" d="M 1508.5,326.5 C 1544.86,324.977 1580.03,330.644 1614,343.5C 1614.83,369.173 1614.67,394.84 1613.5,420.5C 1590.47,402.992 1564.47,393.325 1535.5,391.5C 1519.47,391.448 1505.64,396.781 1494,407.5C 1487.93,416.403 1488.26,425.07 1495,433.5C 1498.88,437.05 1503.05,440.217 1507.5,443C 1532.25,452.471 1556.91,462.137 1581.5,472C 1596.11,479.216 1609.61,488.05 1622,498.5C 1637.94,516.898 1643.94,538.232 1640,562.5C 1636.86,580.45 1629.19,596.117 1617,609.5C 1586.29,639.093 1549.46,654.927 1506.5,657C 1482.22,658.369 1458.22,656.369 1434.5,651C 1417.87,647.067 1401.54,642.233 1385.5,636.5C 1385.33,609.498 1385.5,582.498 1386,555.5C 1406.49,570.158 1428.99,580.658 1453.5,587C 1474.83,592.905 1495.5,591.239 1515.5,582C 1533.87,572.464 1539.03,558.298 1531,539.5C 1522.47,530.316 1512.3,523.483 1500.5,519C 1480.09,511.643 1460.09,503.309 1440.5,494C 1428.68,487.843 1417.68,480.51 1407.5,472C 1385.37,449.125 1379.87,422.625 1391,392.5C 1403.88,366.952 1423.71,349.119 1450.5,339C 1469.38,332.059 1488.72,327.892 1508.5,326.5 Z"/></g>
<g><path style="opacity:0.991" fill="#00223c" d="M 1816.5,326.5 C 1853.04,324.812 1888.37,330.479 1922.5,343.5C 1923.83,369.167 1923.83,394.833 1922.5,420.5C 1903.46,406.986 1882.46,397.819 1859.5,393C 1842.67,389.832 1826.67,392.166 1811.5,400C 1797.82,408.141 1794.99,418.974 1803,432.5C 1811.11,440.478 1820.61,446.312 1831.5,450C 1856.38,457.515 1880.38,467.181 1903.5,479C 1944.79,501.522 1958.29,535.356 1944,580.5C 1935.94,599.236 1923.44,614.403 1906.5,626C 1879.24,645.072 1848.91,655.406 1815.5,657C 1774.42,658.875 1734.75,652.209 1696.5,637C 1695.18,623.556 1694.51,609.889 1694.5,596C 1694.67,582.5 1694.83,569 1695,555.5C 1722.82,576.402 1754.15,588.068 1789,590.5C 1808.86,590.898 1825.53,583.898 1839,569.5C 1847.16,555.302 1844.99,542.802 1832.5,532C 1825.76,527.6 1818.76,523.6 1811.5,520C 1794.83,513.333 1778.17,506.667 1761.5,500C 1741.2,491.351 1723.37,479.184 1708,463.5C 1696.18,447.411 1691.84,429.411 1695,409.5C 1698.16,391.001 1706.66,375.501 1720.5,363C 1738.17,347.664 1758.5,337.33 1781.5,332C 1793.22,329.581 1804.89,327.748 1816.5,326.5 Z"/></g>
<g><path style="opacity:1" fill="#707174" d="M 101.5,324.5 C 100.024,326.5 98.1906,328.167 96,329.5C 95.8294,338.01 95.3294,346.343 94.5,354.5C 94.3336,345.827 94.5002,337.16 95,328.5C 96.9719,326.768 99.1386,325.435 101.5,324.5 Z"/></g>
<g><path style="opacity:1" fill="#f5f5f6" d="M 527.5,289.5 C 514.966,318.588 502.133,347.588 489,376.5C 487.266,526.159 486.432,675.825 486.5,825.5C 486.167,825.5 485.833,825.5 485.5,825.5C 485.5,764.167 485.5,702.833 485.5,641.5C 485.667,553.166 485.5,464.833 485,376.5C 482.931,374.915 480.764,373.581 478.5,372.5C 469.833,365.5 461.167,358.5 452.5,351.5C 463.546,358.366 474.213,365.866 484.5,374C 485.635,374.749 486.635,374.583 487.5,373.5C 500.335,345.166 513.669,317.166 527.5,289.5 Z"/></g>
<g><path style="opacity:0.987" fill="#00223c" d="M 686.5,331.5 C 720.5,331.5 754.5,331.5 788.5,331.5C 788.5,372.833 788.5,414.167 788.5,455.5C 814.833,455.5 841.167,455.5 867.5,455.5C 867.5,414.167 867.5,372.833 867.5,331.5C 901.833,331.5 936.167,331.5 970.5,331.5C 970.5,438.5 970.5,545.5 970.5,652.5C 936.167,652.5 901.833,652.5 867.5,652.5C 867.5,607.833 867.5,563.167 867.5,518.5C 841.167,518.5 814.833,518.5 788.5,518.5C 788.5,563.167 788.5,607.833 788.5,652.5C 754.5,652.5 720.5,652.5 686.5,652.5C 686.5,545.5 686.5,438.5 686.5,331.5 Z"/></g>
<g><path style="opacity:0.991" fill="#00223c" d="M 1132.5,331.5 C 1166.5,331.5 1200.5,331.5 1234.5,331.5C 1272.5,438.5 1310.5,545.5 1348.5,652.5C 1311.5,652.667 1274.5,652.5 1237.5,652C 1232.11,631.258 1226.94,610.425 1222,589.5C 1194.57,588.172 1167.07,588.172 1139.5,589.5C 1134.17,610.167 1128.83,630.833 1123.5,651.5C 1088.5,652.833 1053.5,652.833 1018.5,651.5C 1056.71,544.881 1094.71,438.214 1132.5,331.5 Z M 1180.5,441.5 C 1189.79,470.628 1198.79,499.961 1207.5,529.5C 1189.85,530.5 1172.18,530.833 1154.5,530.5C 1163.17,500.827 1171.84,471.161 1180.5,441.5 Z"/></g>
<g><path style="opacity:0.991" fill="#00223c" d="M 2097.5,331.5 C 2131.74,331.171 2165.91,331.504 2200,332.5C 2238.07,438.871 2276.23,545.205 2314.5,651.5C 2277.17,652.5 2239.84,652.833 2202.5,652.5C 2197.5,631.168 2192.5,609.835 2187.5,588.5C 2160.16,588.333 2132.83,588.5 2105.5,589C 2099.78,610.052 2094.45,631.218 2089.5,652.5C 2054.5,652.5 2019.5,652.5 1984.5,652.5C 2022.36,545.575 2060.03,438.575 2097.5,331.5 Z M 2146.5,441.5 C 2155.61,470.939 2164.28,500.605 2172.5,530.5C 2154.83,530.667 2137.16,530.5 2119.5,530C 2128.8,500.6 2137.8,471.1 2146.5,441.5 Z"/></g>
<g><path style="opacity:0.989" fill="#00223c" d="M 2359.5,331.5 C 2394.51,331.167 2429.51,331.5 2464.5,332.5C 2485.27,374.377 2505.77,416.377 2526,458.5C 2533.78,475.177 2540.78,492.177 2547,509.5C 2548.05,511.107 2549.55,511.773 2551.5,511.5C 2549.7,451.518 2549.04,391.518 2549.5,331.5C 2582.17,331.5 2614.83,331.5 2647.5,331.5C 2647.5,438.5 2647.5,545.5 2647.5,652.5C 2612.83,652.833 2578.16,652.5 2543.5,651.5C 2524.67,613.167 2505.83,574.833 2487,536.5C 2477.55,516.159 2468.89,495.492 2461,474.5C 2459.6,472.808 2457.77,472.141 2455.5,472.5C 2456.48,488.482 2457.32,504.482 2458,520.5C 2458.5,564.499 2458.67,608.499 2458.5,652.5C 2425.5,652.5 2392.5,652.5 2359.5,652.5C 2359.5,545.5 2359.5,438.5 2359.5,331.5 Z"/></g>
<g><path style="opacity:0.991" fill="#00223c" d="M 2986.5,331.5 C 3020.74,331.171 3054.91,331.504 3089,332.5C 3127.07,438.871 3165.23,545.205 3203.5,651.5C 3166.17,652.5 3128.84,652.833 3091.5,652.5C 3086.5,631.168 3081.5,609.835 3076.5,588.5C 3049.16,588.333 3021.83,588.5 2994.5,589C 2988.78,610.052 2983.45,631.218 2978.5,652.5C 2943.5,652.5 2908.5,652.5 2873.5,652.5C 2911.36,545.575 2949.03,438.575 2986.5,331.5 Z M 3035.5,442.5 C 3044.77,471.559 3053.44,500.892 3061.5,530.5C 3043.83,530.667 3026.16,530.5 3008.5,530C 3017.6,500.857 3026.6,471.691 3035.5,442.5 Z"/></g>
<g><path style="opacity:0.995" fill="#00233c" d="M 3251.5,331.5 C 3285.5,331.5 3319.5,331.5 3353.5,331.5C 3353.5,416.5 3353.5,501.5 3353.5,586.5C 3400.17,586.5 3446.83,586.5 3493.5,586.5C 3493.5,608.5 3493.5,630.5 3493.5,652.5C 3412.83,652.5 3332.17,652.5 3251.5,652.5C 3251.5,545.5 3251.5,438.5 3251.5,331.5 Z"/></g>
<g><path style="opacity:0.987" fill="#00223c" d="M 3532.5,331.5 C 3566.83,331.5 3601.17,331.5 3635.5,331.5C 3635.5,416.5 3635.5,501.5 3635.5,586.5C 3682.17,586.5 3728.83,586.5 3775.5,586.5C 3775.5,608.5 3775.5,630.5 3775.5,652.5C 3694.5,652.5 3613.5,652.5 3532.5,652.5C 3532.5,545.5 3532.5,438.5 3532.5,331.5 Z"/></g>
<g><path style="opacity:0.991" fill="#00223c" d="M 3898.5,331.5 C 3932.74,331.171 3966.91,331.504 4001,332.5C 4039.07,438.871 4077.23,545.205 4115.5,651.5C 4078.17,652.5 4040.84,652.833 4003.5,652.5C 3998.5,631.168 3993.5,609.835 3988.5,588.5C 3961.16,588.333 3933.83,588.5 3906.5,589C 3900.78,610.052 3895.45,631.218 3890.5,652.5C 3855.5,652.5 3820.5,652.5 3785.5,652.5C 3823.36,545.575 3861.03,438.575 3898.5,331.5 Z M 3947.5,441.5 C 3956.56,470.887 3965.56,500.387 3974.5,530C 3956.5,530.667 3938.5,530.667 3920.5,530C 3929.8,500.6 3938.8,471.1 3947.5,441.5 Z"/></g>
<g><path style="opacity:0.99" fill="#00223c" d="M 4162.5,331.5 C 4199.83,331.333 4237.17,331.5 4274.5,332C 4294.27,372.368 4314.43,412.535 4335,452.5C 4355.1,412.623 4374.94,372.623 4394.5,332.5C 4432.16,331.5 4469.83,331.167 4507.5,331.5C 4507.5,438.5 4507.5,545.5 4507.5,652.5C 4474.17,652.5 4440.83,652.5 4407.5,652.5C 4407.67,582.833 4407.5,513.166 4407,443.5C 4383.06,495.049 4358.89,546.383 4334.5,597.5C 4310.4,546.296 4286.56,494.962 4263,443.5C 4262.5,513.166 4262.33,582.833 4262.5,652.5C 4229.17,652.5 4195.83,652.5 4162.5,652.5C 4162.5,545.5 4162.5,438.5 4162.5,331.5 Z"/></g>
<g><path style="opacity:1" fill="#d0d0d2" d="M 283.5,172.5 C 283.5,215.833 283.5,259.167 283.5,302.5C 283.833,451.334 283.5,600.001 282.5,748.5C 282.5,636.499 282.167,524.499 281.5,412.5C 282.167,332.5 282.833,252.5 283.5,172.5 Z"/></g>
<g><path style="opacity:1" fill="#6d6e71" d="M 478.5,372.5 C 480.764,373.581 482.931,374.915 485,376.5C 485.5,464.833 485.667,553.166 485.5,641.5C 485.167,641.5 484.833,641.5 484.5,641.5C 484.667,553.499 484.5,465.499 484,377.5C 481.672,376.336 479.838,374.67 478.5,372.5 Z"/></g>
<g><path style="opacity:1" fill="#babbbe" d="M 94.5,552.5 C 95.4995,665.665 95.8328,778.999 95.5,892.5C 95.1667,892.5 94.8333,892.5 94.5,892.5C 94.1667,827.167 93.8333,761.833 93.5,696.5C 94.4988,648.67 94.8322,600.67 94.5,552.5 Z"/></g>
<g><path style="opacity:1" fill="#8e9093" d="M 484.5,641.5 C 484.833,641.5 485.167,641.5 485.5,641.5C 485.5,702.833 485.5,764.167 485.5,825.5C 485.5,829.833 485.5,834.167 485.5,838.5C 484.804,822.98 484.137,807.314 483.5,791.5C 484.491,741.523 484.824,691.523 484.5,641.5 Z"/></g>
<g><path style="opacity:0.987" fill="#6c6e70" d="M 1307.5,798.5 C 1327.95,797.686 1347.62,801.186 1366.5,809C 1367.57,809.739 1368.24,810.739 1368.5,812C 1365.36,819.876 1363.69,828.043 1363.5,836.5C 1361.8,836.66 1360.13,836.494 1358.5,836C 1342,815.503 1321.33,809.837 1296.5,819C 1277.34,829.101 1265.84,844.934 1262,866.5C 1256.97,890.36 1260.64,912.693 1273,933.5C 1291.26,954.692 1313.76,960.858 1340.5,952C 1348.89,948.392 1356.72,943.892 1364,938.5C 1365.4,938.78 1366.56,939.447 1367.5,940.5C 1364.75,946.915 1362.92,953.581 1362,960.5C 1356.08,964.365 1349.58,966.865 1342.5,968C 1315.2,974.038 1288.54,972.038 1262.5,962C 1237.41,950 1222.91,930.167 1219,902.5C 1215.25,839.425 1244.75,804.758 1307.5,798.5 Z"/></g>
<g><path style="opacity:0.989" fill="#6c6e70" d="M 1545.5,798.5 C 1572.85,796.462 1597.85,802.962 1620.5,818C 1643.84,839.355 1653.34,865.855 1649,897.5C 1640.66,936.177 1617.16,960.01 1578.5,969C 1550.43,974.027 1523.43,970.694 1497.5,959C 1470.78,942.079 1457.78,917.579 1458.5,885.5C 1460.94,843.24 1482.27,815.74 1522.5,803C 1530.22,801.05 1537.89,799.55 1545.5,798.5 Z M 1546.5,813.5 C 1581.5,813.319 1601.67,830.652 1607,865.5C 1610.22,889.18 1606.22,911.513 1595,932.5C 1578.72,954.481 1557.55,960.981 1531.5,952C 1517.15,944.298 1507.98,932.464 1504,916.5C 1497.66,889.864 1500.33,864.197 1512,839.5C 1519.95,826.036 1531.45,817.37 1546.5,813.5 Z"/></g>
<g><path style="opacity:0.987" fill="#6c6e70" d="M 2060.5,798.5 C 2076.43,797.386 2091.43,800.553 2105.5,808C 2106.69,809.019 2107.69,810.186 2108.5,811.5C 2105.73,819.324 2103.06,827.157 2100.5,835C 2098.74,835.798 2097.07,835.631 2095.5,834.5C 2090.22,821.567 2080.56,814.9 2066.5,814.5C 2052.2,814.975 2043.53,822.141 2040.5,836C 2042.37,846.869 2048.37,854.536 2058.5,859C 2069.86,864.682 2081.2,870.349 2092.5,876C 2114.27,889.964 2121.44,909.464 2114,934.5C 2106.42,953.391 2092.59,964.891 2072.5,969C 2053.89,972.925 2035.55,971.925 2017.5,966C 2014.75,964.877 2012.25,963.377 2010,961.5C 2012.62,951.35 2014.78,941.017 2016.5,930.5C 2018.6,930.201 2020.6,930.534 2022.5,931.5C 2028.02,947.604 2039.35,955.937 2056.5,956.5C 2079.6,954.591 2088.1,942.591 2082,920.5C 2078.47,916.631 2074.63,913.131 2070.5,910C 2059.45,903.806 2048.11,898.139 2036.5,893C 2013.81,879.623 2005.98,860.123 2013,834.5C 2018.47,818.359 2029.31,807.526 2045.5,802C 2050.6,800.64 2055.6,799.474 2060.5,798.5 Z"/></g>
<g><path style="opacity:0.988" fill="#6c6e70" d="M 3005.5,798.5 C 3026.42,797.708 3046.42,801.541 3065.5,810C 3065.96,810.414 3066.29,810.914 3066.5,811.5C 3063.59,818.901 3061.75,826.568 3061,834.5C 3059.93,836.283 3058.43,836.783 3056.5,836C 3036.63,813.133 3013.3,808.8 2986.5,823C 2970.78,834.924 2961.61,850.758 2959,870.5C 2955.2,892.557 2958.87,913.224 2970,932.5C 2984.33,951.169 3003.17,958.669 3026.5,955C 3039.15,952.903 3050.15,947.57 3059.5,939C 3061.81,938.244 3063.81,938.744 3065.5,940.5C 3062.62,947.516 3060.29,954.683 3058.5,962C 3027.74,973.777 2996.74,974.443 2965.5,964C 2938.08,953.327 2921.92,933.493 2917,904.5C 2912.36,840.324 2941.86,804.991 3005.5,798.5 Z"/></g>
<g><path style="opacity:0.989" fill="#6c6d70" d="M 3613.5,798.5 C 3637.55,797.01 3660.22,801.844 3681.5,813C 3710.63,833.986 3722.46,862.486 3717,898.5C 3710.93,929.905 3693.1,951.738 3663.5,964C 3630.99,974.794 3598.99,973.46 3567.5,960C 3539.98,943.481 3526.65,918.981 3527.5,886.5C 3528.55,848.287 3546.55,821.454 3581.5,806C 3592.01,802.204 3602.67,799.704 3613.5,798.5 Z M 3615.5,813.5 C 3643.72,812.353 3662.56,825.019 3672,851.5C 3679.83,880.575 3676.5,908.241 3662,934.5C 3644.55,955.57 3623.05,961.07 3597.5,951C 3583.76,943.052 3575.26,931.219 3572,915.5C 3565.63,887.911 3568.97,861.577 3582,836.5C 3590.4,824.564 3601.57,816.898 3615.5,813.5 Z"/></g>
<g><path style="opacity:0.985" fill="#6c6d70" d="M 1755.5,801.5 C 1759.38,802.059 1763.21,802.725 1767,803.5C 1770.81,802.559 1774.64,802.059 1778.5,802C 1814,839.5 1849.5,877 1885,914.5C 1885.67,882.167 1885.67,849.833 1885,817.5C 1884.78,812.447 1884.28,807.447 1883.5,802.5C 1883.83,802.167 1884.17,801.833 1884.5,801.5C 1888.17,802.167 1891.83,802.833 1895.5,803.5C 1899.17,802.833 1902.83,802.167 1906.5,801.5C 1906.83,802.667 1907.17,803.833 1907.5,805C 1904.03,859.44 1902.7,913.94 1903.5,968.5C 1896.46,967.37 1889.46,967.203 1882.5,968C 1847.77,928.928 1811.93,890.762 1775,853.5C 1774.58,891.867 1774.41,930.2 1774.5,968.5C 1766.85,967.235 1759.18,967.235 1751.5,968.5C 1756.09,912.917 1757.43,857.25 1755.5,801.5 Z"/></g>
<g><path style="opacity:0.993" fill="#6c6e70" d="M 2204.5,801.5 C 2247.5,804.13 2290.5,804.13 2333.5,801.5C 2332.17,808.833 2332.17,816.167 2333.5,823.5C 2319.67,822.447 2305.83,821.447 2292,820.5C 2291.17,820.833 2290.33,821.167 2289.5,821.5C 2288.42,870.496 2288.42,919.496 2289.5,968.5C 2276.35,967.175 2263.18,967.175 2250,968.5C 2249.5,968.167 2249,967.833 2248.5,967.5C 2249.3,960.883 2249.8,954.217 2250,947.5C 2250.5,905.168 2250.67,862.835 2250.5,820.5C 2235.16,821.36 2219.83,822.36 2204.5,823.5C 2205.83,816.167 2205.83,808.833 2204.5,801.5 Z"/></g>
<g><path style="opacity:0.99" fill="#6c6d70" d="M 2432.5,801.5 C 2439.32,802.144 2446.16,802.811 2453,803.5C 2473.15,801.348 2493.32,801.181 2513.5,803C 2532.44,804.947 2544.28,815.113 2549,833.5C 2552.15,862.343 2539.65,880.176 2511.5,887C 2528.18,914.51 2545.85,941.344 2564.5,967.5C 2549.21,967.353 2533.88,967.519 2518.5,968C 2503.46,942.75 2488.29,917.584 2473,892.5C 2472.17,916.698 2472.67,940.865 2474.5,965C 2474.17,966.167 2473.83,967.333 2473.5,968.5C 2460.17,967.167 2446.83,967.167 2433.5,968.5C 2433.17,967 2432.83,965.5 2432.5,964C 2435.14,909.833 2435.14,855.667 2432.5,801.5 Z M 2473.5,816.5 C 2483.66,815.976 2493.33,817.809 2502.5,822C 2508.79,829.074 2511.46,837.408 2510.5,847C 2509.81,871.523 2497.14,883.023 2472.5,881.5C 2472.22,859.811 2472.56,838.144 2473.5,816.5 Z"/></g>
<g><path style="opacity:0.987" fill="#6c6d70" d="M 2660.5,801.5 C 2674.5,804.167 2688.5,804.167 2702.5,801.5C 2699.72,835.778 2698.89,870.112 2700,904.5C 2700.47,915.727 2703.14,926.393 2708,936.5C 2712.28,944.399 2718.78,949.566 2727.5,952C 2762.04,961.49 2782.21,948.657 2788,913.5C 2791.09,877.529 2791.26,841.529 2788.5,805.5C 2788.83,804.167 2789.17,802.833 2789.5,801.5C 2793.5,802.167 2797.5,802.833 2801.5,803.5C 2805.5,802.833 2809.5,802.167 2813.5,801.5C 2813.83,803.333 2814.17,805.167 2814.5,807C 2812.47,840.134 2811.3,873.301 2811,906.5C 2806.81,950.847 2782.31,972.514 2737.5,971.5C 2717.11,972.196 2698.45,967.029 2681.5,956C 2669.86,946.222 2663.36,933.722 2662,918.5C 2661.82,879.459 2661.32,840.459 2660.5,801.5 Z"/></g>
<g><path style="opacity:0.993" fill="#6c6e70" d="M 3153.5,801.5 C 3195.34,804 3237.17,804 3279,801.5C 3280.17,801.833 3281.33,802.167 3282.5,802.5C 3279.87,809.366 3279.87,816.199 3282.5,823C 3267.5,822.389 3252.5,821.556 3237.5,820.5C 3237.33,861.501 3237.5,902.501 3238,943.5C 3238.25,951.024 3238.75,958.524 3239.5,966C 3239.17,966.833 3238.83,967.667 3238.5,968.5C 3225.17,967.167 3211.83,967.167 3198.5,968.5C 3199.65,919.184 3199.65,869.851 3198.5,820.5C 3183.5,821.395 3168.5,822.395 3153.5,823.5C 3154.83,816.167 3154.83,808.833 3153.5,801.5 Z"/></g>
<g><path style="opacity:0.995" fill="#6c6e70" d="M 3382.5,801.5 C 3395.84,804.036 3409.17,804.036 3422.5,801.5C 3421.18,857.168 3421.18,912.835 3422.5,968.5C 3409.5,967.167 3396.5,967.167 3383.5,968.5C 3383.17,965.5 3382.83,962.5 3382.5,959.5C 3385.05,906.834 3385.05,854.167 3382.5,801.5 Z"/></g>
<g><path style="opacity:0.987" fill="#6c6d70" d="M 3823.5,801.5 C 3831.04,803.914 3838.54,803.914 3846,801.5C 3881.64,839.145 3917.31,876.812 3953,914.5C 3953.43,876.796 3953.59,839.13 3953.5,801.5C 3957.03,802.131 3960.53,802.798 3964,803.5C 3967.47,802.798 3970.97,802.131 3974.5,801.5C 3974.83,803.167 3975.17,804.833 3975.5,806.5C 3972.47,860.455 3970.8,914.455 3970.5,968.5C 3963.81,967.378 3957.14,967.212 3950.5,968C 3915.77,928.928 3879.93,890.762 3843,853.5C 3842.45,891.843 3842.45,930.176 3843,968.5C 3835.21,967.246 3827.38,967.246 3819.5,968.5C 3824.27,912.933 3825.6,857.266 3823.5,801.5 Z"/></g>
<g><path style="opacity:1" fill="#b4b4b7" d="M 485.5,825.5 C 485.833,825.5 486.167,825.5 486.5,825.5C 486.503,877.836 486.17,930.169 485.5,982.5C 484.17,934.598 484.17,886.598 485.5,838.5C 485.5,834.167 485.5,829.833 485.5,825.5 Z"/></g>
<g><path style="opacity:1" fill="#6c6e70" d="M 686.5,863.5 C 821.167,863.5 955.833,863.5 1090.5,863.5C 1090.5,866.5 1090.5,869.5 1090.5,872.5C 955.833,872.5 821.167,872.5 686.5,872.5C 686.5,869.5 686.5,866.5 686.5,863.5 Z"/></g>
<g><path style="opacity:1" fill="#6c6e70" d="M 4104.5,863.5 C 4238.83,863.5 4373.17,863.5 4507.5,863.5C 4507.5,866.5 4507.5,869.5 4507.5,872.5C 4373.17,872.5 4238.83,872.5 4104.5,872.5C 4104.5,869.5 4104.5,866.5 4104.5,863.5 Z"/></g>
<g><path style="opacity:1" fill="#b0b2b5" d="M 285.5,772.5 C 284.966,814.664 284.299,856.664 283.5,898.5C 283.5,867.167 283.5,835.833 283.5,804.5C 283.333,793.495 283.5,782.495 284,771.5C 284.383,772.056 284.883,772.389 285.5,772.5 Z"/></g>
<g><path style="opacity:1" fill="#adaeb2" d="M 94.5,892.5 C 94.8333,892.5 95.1667,892.5 95.5,892.5C 95.1765,899.022 95.5098,905.355 96.5,911.5C 96.1684,943.671 96.5018,975.671 97.5,1007.5C 97.1583,1008.34 96.4916,1008.67 95.5,1008.5C 95.0469,969.807 94.7136,931.14 94.5,892.5 Z"/></g>
</svg>
