<?xml version="1.0" encoding="UTF-8"?>
<!DOCTYPE svg PUBLIC "-//W3C//DTD SVG 1.1//EN" "http://www.w3.org/Graphics/SVG/1.1/DTD/svg11.dtd">
<svg xmlns="http://www.w3.org/2000/svg" version="1.1" width="3821px" height="1910px" style="shape-rendering:geometricPrecision; text-rendering:geometricPrecision; image-rendering:optimizeQuality; fill-rule:evenodd; clip-rule:evenodd" xmlns:xlink="http://www.w3.org/1999/xlink">
<g><path style="opacity:0.989" fill="#e0e1e2" d="M 1832.5,-0.5 C 1833.17,-0.5 1833.83,-0.5 1834.5,-0.5C 1885.3,28.4045 1936.3,57.0712 1987.5,85.5C 1986.83,86.5 1986.17,87.5 1985.5,88.5C 1967.65,101.59 1949.99,114.924 1932.5,128.5C 1932.1,127.475 1931.44,127.308 1930.5,128C 1921.42,134.955 1912.26,141.788 1903,148.5C 1887.74,116.985 1872.74,85.3186 1858,53.5C 1856.79,50.2634 1855.29,47.93 1853.5,46.5C 1846.77,31.3797 1839.77,16.3797 1832.5,1.5C 1832.5,0.833333 1832.5,0.166667 1832.5,-0.5 Z"/></g>
<g><path style="opacity:0.994" fill="#919095" d="M 1832.5,1.5 C 1839.77,16.3797 1846.77,31.3797 1853.5,46.5C 1868.99,81.4785 1884.49,116.478 1900,151.5C 1901.22,231.162 1901.72,310.829 1901.5,390.5C 1902.17,502.499 1902.5,614.499 1902.5,726.5C 1902.17,745.341 1902.5,764.007 1903.5,782.5C 1903.5,813.833 1903.5,845.167 1903.5,876.5C 1903.5,876.833 1903.5,877.167 1903.5,877.5C 1879.32,864.824 1855.48,851.491 1832,837.5C 1831.92,558.834 1832.08,280.167 1832.5,1.5 Z"/></g>
<g><path style="opacity:1" fill="#f8f8f8" d="M 1932.5,128.5 C 1923.94,134.937 1915.61,141.604 1907.5,148.5C 1905.94,148.733 1904.6,149.4 1903.5,150.5C 1902.83,230.5 1902.17,310.5 1901.5,390.5C 1901.72,310.829 1901.22,231.162 1900,151.5C 1884.49,116.478 1868.99,81.4785 1853.5,46.5C 1855.29,47.93 1856.79,50.2634 1858,53.5C 1872.74,85.3186 1887.74,116.985 1903,148.5C 1912.26,141.788 1921.42,134.955 1930.5,128C 1931.44,127.308 1932.1,127.475 1932.5,128.5 Z"/></g>
<g><path style="opacity:0.753" fill="#b9bbbd" d="M 1987.5,85.5 C 1988.83,336.5 1988.83,587.5 1987.5,838.5C 1987.83,588.666 1987.5,338.999 1986.5,89.5C 1986.5,88.8333 1986.17,88.5 1985.5,88.5C 1986.17,87.5 1986.83,86.5 1987.5,85.5 Z"/></g>
<g><path style="opacity:1" fill="#a0a2a6" d="M 1985.5,88.5 C 1986.17,88.5 1986.5,88.8333 1986.5,89.5C 1969.47,149.979 1955.97,211.312 1946,273.5C 1921.63,431.56 1908.13,590.56 1905.5,750.5C 1904.88,750.389 1904.38,750.056 1904,749.5C 1903.5,760.495 1903.33,771.495 1903.5,782.5C 1902.5,764.007 1902.17,745.341 1902.5,726.5C 1903.5,578.001 1903.83,429.334 1903.5,280.5C 1904.33,237.669 1904.83,194.669 1905,151.5C 1906.04,150.627 1906.88,149.627 1907.5,148.5C 1915.61,141.604 1923.94,134.937 1932.5,128.5C 1949.99,114.924 1967.65,101.59 1985.5,88.5 Z"/></g>
<g><path style="opacity:1" fill="#c6c7c9" d="M 1986.5,89.5 C 1987.5,338.999 1987.83,588.666 1987.5,838.5C 1959.66,851.889 1931.66,864.889 1903.5,877.5C 1903.5,877.167 1903.5,876.833 1903.5,876.5C 1904.3,834.664 1904.97,792.664 1905.5,750.5C 1908.13,590.56 1921.63,431.56 1946,273.5C 1955.97,211.312 1969.47,149.979 1986.5,89.5 Z"/></g>
<g><path style="opacity:1" fill="#6d6e71" d="M 1907.5,148.5 C 1906.88,149.627 1906.04,150.627 1905,151.5C 1904.83,194.669 1904.33,237.669 1903.5,280.5C 1903.5,237.167 1903.5,193.833 1903.5,150.5C 1904.6,149.4 1905.94,148.733 1907.5,148.5 Z"/></g>
<g><path style="opacity:0.989" fill="#d8d9da" d="M 1799.5,244.5 C 1799.17,245.167 1798.83,245.833 1798.5,246.5C 1780.63,258.597 1762.96,270.93 1745.5,283.5C 1734.9,290.252 1724.4,297.252 1714,304.5C 1700.14,275.44 1686.3,246.44 1672.5,217.5C 1663.03,197.081 1653.36,176.748 1643.5,156.5C 1643.37,155.624 1643.7,154.957 1644.5,154.5C 1696.36,184.259 1748.02,214.259 1799.5,244.5 Z"/></g>
<g><path style="opacity:0.992" fill="#919095" d="M 1643.5,156.5 C 1653.36,176.748 1663.03,197.081 1672.5,217.5C 1685.12,247.4 1698.28,277.067 1712,306.5C 1713.16,429.164 1713.66,551.831 1713.5,674.5C 1713.83,739.833 1714.17,805.167 1714.5,870.5C 1714.71,909.14 1715.05,947.807 1715.5,986.5C 1691.32,973.824 1667.48,960.491 1644,946.5C 1643.5,683.167 1643.33,419.834 1643.5,156.5 Z"/></g>
<g><path style="opacity:0.989" fill="#d8d9da" d="M 2176.5,206.5 C 2167.11,226.955 2157.44,247.288 2147.5,267.5C 2133.67,295.166 2120.34,323.166 2107.5,351.5C 2106.64,352.583 2105.64,352.749 2104.5,352C 2094.21,343.866 2083.55,336.366 2072.5,329.5C 2055.86,317.509 2039.2,305.509 2022.5,293.5C 2022.17,292.5 2021.5,291.833 2020.5,291.5C 2071.67,262.53 2123,233.697 2174.5,205C 2175.82,204.472 2176.48,204.972 2176.5,206.5 Z"/></g>
<g><path style="opacity:0.996" fill="#919095" d="M 2176.5,206.5 C 2176.83,485.167 2176.5,763.834 2175.5,1042.5C 2152.14,1055.51 2128.81,1068.51 2105.5,1081.5C 2105.5,1041.17 2105.5,1000.83 2105.5,960.5C 2106.17,908.169 2106.5,855.836 2106.5,803.5C 2106.43,653.825 2107.27,504.159 2109,354.5C 2122.13,325.588 2134.97,296.588 2147.5,267.5C 2157.44,247.288 2167.11,226.955 2176.5,206.5 Z"/></g>
<g><path style="opacity:0.439" fill="#b7b8bb" d="M 1799.5,244.5 C 1800.83,478.5 1800.83,712.5 1799.5,946.5C 1799.83,712.999 1799.5,479.666 1798.5,246.5C 1798.83,245.833 1799.17,245.167 1799.5,244.5 Z"/></g>
<g><path style="opacity:1" fill="#a0a2a6" d="M 1798.5,246.5 C 1779.14,304.264 1764.64,363.264 1755,423.5C 1730.58,577.856 1717.75,733.189 1716.5,889.5C 1715.51,883.355 1715.18,877.022 1715.5,870.5C 1715.83,756.999 1715.5,643.665 1714.5,530.5C 1714.5,464.5 1714.5,398.5 1714.5,332.5C 1715.33,324.343 1715.83,316.01 1716,307.5C 1718.19,306.167 1720.02,304.5 1721.5,302.5C 1729.5,296.167 1737.5,289.833 1745.5,283.5C 1762.96,270.93 1780.63,258.597 1798.5,246.5 Z"/></g>
<g><path style="opacity:1" fill="#c6c7c9" d="M 1798.5,246.5 C 1799.5,479.666 1799.83,712.999 1799.5,946.5C 1772.48,960.009 1745.15,973.009 1717.5,985.5C 1716.5,953.671 1716.17,921.671 1716.5,889.5C 1717.75,733.189 1730.58,577.856 1755,423.5C 1764.64,363.264 1779.14,304.264 1798.5,246.5 Z"/></g>
<g><path style="opacity:1" fill="#fafafa" d="M 1672.5,217.5 C 1686.3,246.44 1700.14,275.44 1714,304.5C 1724.4,297.252 1734.9,290.252 1745.5,283.5C 1737.5,289.833 1729.5,296.167 1721.5,302.5C 1719.14,303.435 1716.97,304.768 1715,306.5C 1714.5,315.16 1714.33,323.827 1714.5,332.5C 1714.5,398.5 1714.5,464.5 1714.5,530.5C 1714.83,578.67 1714.5,626.67 1713.5,674.5C 1713.66,551.831 1713.16,429.164 1712,306.5C 1698.28,277.067 1685.12,247.4 1672.5,217.5 Z"/></g>
<g><path style="opacity:1" fill="#c6c7c9" d="M 2020.5,291.5 C 2021.5,291.833 2022.17,292.5 2022.5,293.5C 2042.27,365.863 2057.44,439.53 2068,514.5C 2094.3,702.574 2106.47,891.574 2104.5,1081.5C 2076.73,1068.78 2049.07,1055.78 2021.5,1042.5C 2020.5,792.168 2020.17,541.834 2020.5,291.5 Z"/></g>
<g><path style="opacity:1" fill="#a1a3a7" d="M 2022.5,293.5 C 2039.2,305.509 2055.86,317.509 2072.5,329.5C 2081.17,336.5 2089.83,343.5 2098.5,350.5C 2099.84,352.67 2101.67,354.336 2104,355.5C 2104.5,443.499 2104.67,531.499 2104.5,619.5C 2104.82,669.523 2104.49,719.523 2103.5,769.5C 2104.14,785.314 2104.8,800.98 2105.5,816.5C 2104.17,864.598 2104.17,912.598 2105.5,960.5C 2105.5,1000.83 2105.5,1041.17 2105.5,1081.5C 2105.17,1081.5 2104.83,1081.5 2104.5,1081.5C 2106.47,891.574 2094.3,702.574 2068,514.5C 2057.44,439.53 2042.27,365.863 2022.5,293.5 Z"/></g>
<g><path style="opacity:1" fill="#707174" d="M 1721.5,302.5 C 1720.02,304.5 1718.19,306.167 1716,307.5C 1715.83,316.01 1715.33,324.343 1714.5,332.5C 1714.33,323.827 1714.5,315.16 1715,306.5C 1716.97,304.768 1719.14,303.435 1721.5,302.5 Z"/></g>
<g><path style="opacity:1" fill="#f5f5f6" d="M 2147.5,267.5 C 2134.97,296.588 2122.13,325.588 2109,354.5C 2107.27,504.159 2106.43,653.825 2106.5,803.5C 2106.17,803.5 2105.83,803.5 2105.5,803.5C 2105.5,742.167 2105.5,680.833 2105.5,619.5C 2105.67,531.166 2105.5,442.833 2105,354.5C 2102.93,352.915 2100.76,351.581 2098.5,350.5C 2089.83,343.5 2081.17,336.5 2072.5,329.5C 2083.55,336.366 2094.21,343.866 2104.5,352C 2105.64,352.749 2106.64,352.583 2107.5,351.5C 2120.34,323.166 2133.67,295.166 2147.5,267.5 Z"/></g>
<g><path style="opacity:1" fill="#d0d0d2" d="M 1903.5,150.5 C 1903.5,193.833 1903.5,237.167 1903.5,280.5C 1903.83,429.334 1903.5,578.001 1902.5,726.5C 1902.5,614.499 1902.17,502.499 1901.5,390.5C 1902.17,310.5 1902.83,230.5 1903.5,150.5 Z"/></g>
<g><path style="opacity:1" fill="#6d6e71" d="M 2098.5,350.5 C 2100.76,351.581 2102.93,352.915 2105,354.5C 2105.5,442.833 2105.67,531.166 2105.5,619.5C 2105.17,619.5 2104.83,619.5 2104.5,619.5C 2104.67,531.499 2104.5,443.499 2104,355.5C 2101.67,354.336 2099.84,352.67 2098.5,350.5 Z"/></g>
<g><path style="opacity:1" fill="#babbbe" d="M 1714.5,530.5 C 1715.5,643.665 1715.83,756.999 1715.5,870.5C 1715.17,870.5 1714.83,870.5 1714.5,870.5C 1714.17,805.167 1713.83,739.833 1713.5,674.5C 1714.5,626.67 1714.83,578.67 1714.5,530.5 Z"/></g>
<g><path style="opacity:1" fill="#8e9093" d="M 2104.5,619.5 C 2104.83,619.5 2105.17,619.5 2105.5,619.5C 2105.5,680.833 2105.5,742.167 2105.5,803.5C 2105.5,807.833 2105.5,812.167 2105.5,816.5C 2104.8,800.98 2104.14,785.314 2103.5,769.5C 2104.49,719.523 2104.82,669.523 2104.5,619.5 Z"/></g>
<g><path style="opacity:1" fill="#b4b4b7" d="M 2105.5,803.5 C 2105.83,803.5 2106.17,803.5 2106.5,803.5C 2106.5,855.836 2106.17,908.169 2105.5,960.5C 2104.17,912.598 2104.17,864.598 2105.5,816.5C 2105.5,812.167 2105.5,807.833 2105.5,803.5 Z"/></g>
<g><path style="opacity:1" fill="#b0b2b5" d="M 1905.5,750.5 C 1904.97,792.664 1904.3,834.664 1903.5,876.5C 1903.5,845.167 1903.5,813.833 1903.5,782.5C 1903.33,771.495 1903.5,760.495 1904,749.5C 1904.38,750.056 1904.88,750.389 1905.5,750.5 Z"/></g>
<g><path style="opacity:1" fill="#adaeb2" d="M 1714.5,870.5 C 1714.83,870.5 1715.17,870.5 1715.5,870.5C 1715.18,877.022 1715.51,883.355 1716.5,889.5C 1716.17,921.671 1716.5,953.671 1717.5,985.5C 1717.16,986.338 1716.49,986.672 1715.5,986.5C 1715.05,947.807 1714.71,909.14 1714.5,870.5 Z"/></g>
<g><path style="opacity:0.987" fill="#00223d" d="M 821.5,1264.5 C 857.861,1262.98 893.028,1268.64 927,1281.5C 927.833,1307.17 927.666,1332.84 926.5,1358.5C 903.471,1340.99 877.471,1331.32 848.5,1329.5C 832.475,1329.45 818.641,1334.78 807,1345.5C 800.927,1354.4 801.261,1363.07 808,1371.5C 811.883,1375.05 816.049,1378.22 820.5,1381C 845.246,1390.47 869.912,1400.14 894.5,1410C 909.111,1417.22 922.611,1426.05 935,1436.5C 950.937,1454.9 956.937,1476.23 953,1500.5C 949.858,1518.45 942.191,1534.12 930,1547.5C 899.29,1577.09 862.457,1592.93 819.5,1595C 795.221,1596.37 771.221,1594.37 747.5,1589C 730.87,1585.07 714.537,1580.23 698.5,1574.5C 698.333,1547.5 698.5,1520.5 699,1493.5C 719.486,1508.16 741.986,1518.66 766.5,1525C 787.831,1530.91 808.497,1529.24 828.5,1520C 846.867,1510.46 852.033,1496.3 844,1477.5C 835.47,1468.32 825.304,1461.48 813.5,1457C 793.095,1449.64 773.095,1441.31 753.5,1432C 741.684,1425.84 730.684,1418.51 720.5,1410C 698.366,1387.13 692.866,1360.63 704,1330.5C 716.882,1304.95 736.715,1287.12 763.5,1277C 782.383,1270.06 801.717,1265.89 821.5,1264.5 Z"/></g>
<g><path style="opacity:0.987" fill="#00223d" d="M 1129.5,1264.5 C 1166.04,1262.81 1201.37,1268.48 1235.5,1281.5C 1236.83,1307.17 1236.83,1332.83 1235.5,1358.5C 1216.46,1344.99 1195.46,1335.82 1172.5,1331C 1155.67,1327.83 1139.67,1330.17 1124.5,1338C 1110.82,1346.14 1107.99,1356.97 1116,1370.5C 1124.11,1378.48 1133.61,1384.31 1144.5,1388C 1169.38,1395.51 1193.38,1405.18 1216.5,1417C 1257.79,1439.52 1271.29,1473.36 1257,1518.5C 1248.94,1537.24 1236.44,1552.4 1219.5,1564C 1192.24,1583.07 1161.91,1593.41 1128.5,1595C 1087.42,1596.88 1047.75,1590.21 1009.5,1575C 1008.18,1561.56 1007.51,1547.89 1007.5,1534C 1007.67,1520.5 1007.83,1507 1008,1493.5C 1035.82,1514.4 1067.15,1526.07 1102,1528.5C 1121.86,1528.9 1138.53,1521.9 1152,1507.5C 1160.16,1493.3 1157.99,1480.8 1145.5,1470C 1138.76,1465.6 1131.76,1461.6 1124.5,1458C 1107.83,1451.33 1091.17,1444.67 1074.5,1438C 1054.2,1429.35 1036.37,1417.18 1021,1401.5C 1009.18,1385.41 1004.84,1367.41 1008,1347.5C 1011.16,1329 1019.66,1313.5 1033.5,1301C 1051.17,1285.66 1071.5,1275.33 1094.5,1270C 1106.22,1267.58 1117.89,1265.75 1129.5,1264.5 Z"/></g>
<g><path style="opacity:0.987" fill="#00223d" d="M -0.5,1269.5 C 33.5,1269.5 67.5,1269.5 101.5,1269.5C 101.5,1310.83 101.5,1352.17 101.5,1393.5C 127.833,1393.5 154.167,1393.5 180.5,1393.5C 180.5,1352.17 180.5,1310.83 180.5,1269.5C 214.833,1269.5 249.167,1269.5 283.5,1269.5C 283.5,1376.5 283.5,1483.5 283.5,1590.5C 249.167,1590.5 214.833,1590.5 180.5,1590.5C 180.5,1545.83 180.5,1501.17 180.5,1456.5C 154.167,1456.5 127.833,1456.5 101.5,1456.5C 101.5,1501.17 101.5,1545.83 101.5,1590.5C 67.5,1590.5 33.5,1590.5 -0.5,1590.5C -0.5,1483.5 -0.5,1376.5 -0.5,1269.5 Z"/></g>
<g><path style="opacity:0.989" fill="#00223d" d="M 445.5,1269.5 C 479.5,1269.5 513.5,1269.5 547.5,1269.5C 585.5,1376.5 623.5,1483.5 661.5,1590.5C 624.498,1590.67 587.498,1590.5 550.5,1590C 545.106,1569.26 539.94,1548.42 535,1527.5C 507.566,1526.17 480.066,1526.17 452.5,1527.5C 447.167,1548.17 441.833,1568.83 436.5,1589.5C 401.5,1590.83 366.5,1590.83 331.5,1589.5C 369.706,1482.88 407.706,1376.21 445.5,1269.5 Z M 493.5,1379.5 C 502.788,1408.63 511.788,1437.96 520.5,1467.5C 502.846,1468.5 485.179,1468.83 467.5,1468.5C 476.169,1438.83 484.836,1409.16 493.5,1379.5 Z"/></g>
<g><path style="opacity:0.989" fill="#00223d" d="M 1410.5,1269.5 C 1444.74,1269.17 1478.91,1269.5 1513,1270.5C 1551.07,1376.87 1589.23,1483.2 1627.5,1589.5C 1590.17,1590.5 1552.84,1590.83 1515.5,1590.5C 1510.5,1569.17 1505.5,1547.83 1500.5,1526.5C 1473.16,1526.33 1445.83,1526.5 1418.5,1527C 1412.78,1548.05 1407.45,1569.22 1402.5,1590.5C 1367.5,1590.5 1332.5,1590.5 1297.5,1590.5C 1335.36,1483.58 1373.03,1376.58 1410.5,1269.5 Z M 1459.5,1379.5 C 1468.61,1408.94 1477.28,1438.61 1485.5,1468.5C 1467.83,1468.67 1450.16,1468.5 1432.5,1468C 1441.8,1438.6 1450.8,1409.1 1459.5,1379.5 Z"/></g>
<g><path style="opacity:0.988" fill="#00223d" d="M 1672.5,1269.5 C 1707.51,1269.17 1742.51,1269.5 1777.5,1270.5C 1798.27,1312.38 1818.77,1354.38 1839,1396.5C 1846.78,1413.18 1853.78,1430.18 1860,1447.5C 1861.05,1449.11 1862.55,1449.77 1864.5,1449.5C 1862.7,1389.52 1862.04,1329.52 1862.5,1269.5C 1895.17,1269.5 1927.83,1269.5 1960.5,1269.5C 1960.5,1376.5 1960.5,1483.5 1960.5,1590.5C 1925.83,1590.83 1891.16,1590.5 1856.5,1589.5C 1837.67,1551.17 1818.83,1512.83 1800,1474.5C 1790.55,1454.16 1781.89,1433.49 1774,1412.5C 1772.6,1410.81 1770.77,1410.14 1768.5,1410.5C 1769.48,1426.48 1770.32,1442.48 1771,1458.5C 1771.5,1502.5 1771.67,1546.5 1771.5,1590.5C 1738.5,1590.5 1705.5,1590.5 1672.5,1590.5C 1672.5,1483.5 1672.5,1376.5 1672.5,1269.5 Z"/></g>
<g><path style="opacity:0.989" fill="#00223d" d="M 2299.5,1269.5 C 2333.74,1269.17 2367.91,1269.5 2402,1270.5C 2440.07,1376.87 2478.23,1483.2 2516.5,1589.5C 2479.17,1590.5 2441.84,1590.83 2404.5,1590.5C 2399.5,1569.17 2394.5,1547.83 2389.5,1526.5C 2362.16,1526.33 2334.83,1526.5 2307.5,1527C 2301.78,1548.05 2296.45,1569.22 2291.5,1590.5C 2256.5,1590.5 2221.5,1590.5 2186.5,1590.5C 2224.36,1483.58 2262.03,1376.58 2299.5,1269.5 Z M 2348.5,1380.5 C 2357.77,1409.56 2366.44,1438.89 2374.5,1468.5C 2356.83,1468.67 2339.16,1468.5 2321.5,1468C 2330.6,1438.86 2339.6,1409.69 2348.5,1380.5 Z"/></g>
<g><path style="opacity:0.995" fill="#00223d" d="M 2564.5,1269.5 C 2598.5,1269.5 2632.5,1269.5 2666.5,1269.5C 2666.5,1354.5 2666.5,1439.5 2666.5,1524.5C 2713.17,1524.5 2759.83,1524.5 2806.5,1524.5C 2806.5,1546.5 2806.5,1568.5 2806.5,1590.5C 2725.83,1590.5 2645.17,1590.5 2564.5,1590.5C 2564.5,1483.5 2564.5,1376.5 2564.5,1269.5 Z"/></g>
<g><path style="opacity:0.987" fill="#00223d" d="M 2845.5,1269.5 C 2879.83,1269.5 2914.17,1269.5 2948.5,1269.5C 2948.5,1354.5 2948.5,1439.5 2948.5,1524.5C 2995.17,1524.5 3041.83,1524.5 3088.5,1524.5C 3088.5,1546.5 3088.5,1568.5 3088.5,1590.5C 3007.5,1590.5 2926.5,1590.5 2845.5,1590.5C 2845.5,1483.5 2845.5,1376.5 2845.5,1269.5 Z"/></g>
<g><path style="opacity:0.989" fill="#00223d" d="M 3211.5,1269.5 C 3245.74,1269.17 3279.91,1269.5 3314,1270.5C 3352.07,1376.87 3390.23,1483.2 3428.5,1589.5C 3391.17,1590.5 3353.84,1590.83 3316.5,1590.5C 3311.5,1569.17 3306.5,1547.83 3301.5,1526.5C 3274.16,1526.33 3246.83,1526.5 3219.5,1527C 3213.78,1548.05 3208.45,1569.22 3203.5,1590.5C 3168.5,1590.5 3133.5,1590.5 3098.5,1590.5C 3136.36,1483.58 3174.03,1376.58 3211.5,1269.5 Z M 3260.5,1379.5 C 3269.56,1408.89 3278.56,1438.39 3287.5,1468C 3269.5,1468.67 3251.5,1468.67 3233.5,1468C 3242.8,1438.6 3251.8,1409.1 3260.5,1379.5 Z"/></g>
<g><path style="opacity:0.989" fill="#00223d" d="M 3820.5,1269.5 C 3820.5,1376.5 3820.5,1483.5 3820.5,1590.5C 3787.17,1590.5 3753.83,1590.5 3720.5,1590.5C 3720.67,1520.83 3720.5,1451.17 3720,1381.5C 3696.06,1433.05 3671.89,1484.38 3647.5,1535.5C 3623.4,1484.3 3599.56,1432.96 3576,1381.5C 3575.5,1451.17 3575.33,1520.83 3575.5,1590.5C 3542.17,1590.5 3508.83,1590.5 3475.5,1590.5C 3475.5,1483.5 3475.5,1376.5 3475.5,1269.5C 3512.83,1269.33 3550.17,1269.5 3587.5,1270C 3607.27,1310.37 3627.43,1350.54 3648,1390.5C 3668.1,1350.62 3687.94,1310.62 3707.5,1270.5C 3745.16,1269.5 3782.83,1269.17 3820.5,1269.5 Z"/></g>
<g><path style="opacity:0.962" fill="#6c6e70" d="M 633.5,1909.5 C 627.167,1909.5 620.833,1909.5 614.5,1909.5C 553.317,1902.84 526.15,1868.84 533,1807.5C 539.442,1774.06 558.942,1752.22 591.5,1742C 621.427,1733.48 650.76,1735.14 679.5,1747C 680.574,1747.74 681.241,1748.74 681.5,1750C 678.358,1757.88 676.691,1766.04 676.5,1774.5C 674.801,1774.66 673.134,1774.49 671.5,1774C 652.628,1751.52 629.961,1746.85 603.5,1760C 586.375,1772.4 576.542,1789.23 574,1810.5C 569.949,1834.92 575.283,1856.92 590,1876.5C 612.77,1896.44 637.603,1899.27 664.5,1885C 668.677,1882.15 672.844,1879.32 677,1876.5C 678.395,1876.78 679.562,1877.45 680.5,1878.5C 677.918,1885.69 675.585,1892.85 673.5,1900C 660.543,1905.29 647.21,1908.45 633.5,1909.5 Z"/></g>
<g><path style="opacity:0.967" fill="#6c6e70" d="M 875.5,1909.5 C 869.5,1909.5 863.5,1909.5 857.5,1909.5C 835.28,1908.59 815.28,1901.43 797.5,1888C 774.914,1864.13 767.08,1835.96 774,1803.5C 784.472,1768.48 807.639,1746.98 843.5,1739C 868.515,1734.4 892.848,1736.73 916.5,1746C 943.276,1758.79 958.443,1779.95 962,1809.5C 965.192,1861.31 941.692,1893.81 891.5,1907C 886.012,1907.77 880.679,1908.61 875.5,1909.5 Z M 859.5,1751.5 C 894.499,1751.32 914.665,1768.65 920,1803.5C 923.221,1827.18 919.221,1849.51 908,1870.5C 891.716,1892.48 870.549,1898.98 844.5,1890C 830.145,1882.3 820.979,1870.46 817,1854.5C 810.664,1827.86 813.33,1802.2 825,1777.5C 832.954,1764.04 844.454,1755.37 859.5,1751.5 Z"/></g>
<g><path style="opacity:0.961" fill="#6c6e70" d="M 1371.5,1909.5 C 1365.83,1909.5 1360.17,1909.5 1354.5,1909.5C 1348.58,1908.66 1342.58,1907.5 1336.5,1906C 1331.53,1904.76 1327.03,1902.6 1323,1899.5C 1325.62,1889.35 1327.78,1879.02 1329.5,1868.5C 1331.6,1868.2 1333.6,1868.53 1335.5,1869.5C 1343.42,1889.63 1358.08,1897.46 1379.5,1893C 1396.2,1886.76 1401.37,1875.26 1395,1858.5C 1392.17,1855.67 1389.33,1852.83 1386.5,1850C 1372.17,1842.33 1357.83,1834.67 1343.5,1827C 1325.43,1812.93 1319.6,1794.77 1326,1772.5C 1334.33,1750.86 1350.16,1739.03 1373.5,1737C 1389.44,1735.39 1404.44,1738.39 1418.5,1746C 1419.69,1747.02 1420.69,1748.19 1421.5,1749.5C 1418.73,1757.32 1416.06,1765.16 1413.5,1773C 1411.74,1773.8 1410.07,1773.63 1408.5,1772.5C 1403.22,1759.57 1393.56,1752.9 1379.5,1752.5C 1365.2,1752.97 1356.53,1760.14 1353.5,1774C 1355.37,1784.87 1361.37,1792.54 1371.5,1797C 1385.93,1803.05 1399.6,1810.38 1412.5,1819C 1430.19,1835.43 1434.36,1854.93 1425,1877.5C 1418.65,1890.18 1408.82,1899.01 1395.5,1904C 1387.54,1906.6 1379.54,1908.43 1371.5,1909.5 Z"/></g>
<g><path style="opacity:0.963" fill="#6c6e70" d="M 2331.5,1909.5 C 2325.17,1909.5 2318.83,1909.5 2312.5,1909.5C 2253.46,1903.96 2225.96,1871.63 2230,1812.5C 2235.6,1775.24 2256.43,1751.41 2292.5,1741C 2322.02,1733.31 2350.69,1735.64 2378.5,1748C 2378.96,1748.41 2379.29,1748.91 2379.5,1749.5C 2376.61,1757.29 2374.61,1765.29 2373.5,1773.5C 2372.28,1774.61 2370.94,1774.78 2369.5,1774C 2349.63,1751.13 2326.3,1746.8 2299.5,1761C 2283.78,1772.92 2274.61,1788.76 2272,1808.5C 2268.82,1828.35 2271.48,1847.35 2280,1865.5C 2293.82,1887.49 2313.65,1896.66 2339.5,1893C 2352.15,1890.9 2363.15,1885.57 2372.5,1877C 2374.81,1876.24 2376.81,1876.74 2378.5,1878.5C 2375.62,1885.52 2373.29,1892.68 2371.5,1900C 2358.53,1905.29 2345.2,1908.46 2331.5,1909.5 Z"/></g>
<g><path style="opacity:0.968" fill="#6c6e70" d="M 2943.5,1909.5 C 2937.83,1909.5 2932.17,1909.5 2926.5,1909.5C 2902.01,1908.84 2880.51,1900.51 2862,1884.5C 2843.83,1863.18 2836.83,1838.51 2841,1810.5C 2850.22,1769.28 2875.72,1745.12 2917.5,1738C 2939.75,1734.92 2961.42,1737.25 2982.5,1745C 3010.01,1756.85 3025.84,1777.69 3030,1807.5C 3034.66,1856.48 3013.82,1888.98 2967.5,1905C 2959.46,1907.06 2951.46,1908.56 2943.5,1909.5 Z M 2928.5,1751.5 C 2956.72,1750.35 2975.56,1763.02 2985,1789.5C 2992.83,1818.57 2989.5,1846.24 2975,1872.5C 2957.55,1893.57 2936.05,1899.07 2910.5,1889C 2896.76,1881.05 2888.26,1869.22 2885,1853.5C 2878.63,1825.91 2881.97,1799.58 2895,1774.5C 2903.4,1762.56 2914.57,1754.9 2928.5,1751.5 Z"/></g>
<g><path style="opacity:0.964" fill="#6c6e70" d="M 1068.5,1739.5 C 1072.38,1740.06 1076.21,1740.73 1080,1741.5C 1083.81,1740.56 1087.64,1740.06 1091.5,1740C 1127,1777.5 1162.5,1815 1198,1852.5C 1198.67,1820.17 1198.67,1787.83 1198,1755.5C 1197.78,1750.45 1197.28,1745.45 1196.5,1740.5C 1196.83,1740.17 1197.17,1739.83 1197.5,1739.5C 1201.17,1740.17 1204.83,1740.83 1208.5,1741.5C 1212.17,1740.83 1215.83,1740.17 1219.5,1739.5C 1219.83,1740.67 1220.17,1741.83 1220.5,1743C 1217.03,1797.44 1215.7,1851.94 1216.5,1906.5C 1209.46,1905.37 1202.46,1905.2 1195.5,1906C 1160.77,1866.93 1124.93,1828.76 1088,1791.5C 1087.58,1829.87 1087.41,1868.2 1087.5,1906.5C 1079.85,1905.24 1072.18,1905.24 1064.5,1906.5C 1069.09,1850.92 1070.43,1795.25 1068.5,1739.5 Z"/></g>
<g><path style="opacity:0.968" fill="#6c6e70" d="M 1517.5,1739.5 C 1560.5,1742.13 1603.5,1742.13 1646.5,1739.5C 1645.17,1746.83 1645.17,1754.17 1646.5,1761.5C 1632.67,1760.45 1618.83,1759.45 1605,1758.5C 1604.17,1758.83 1603.33,1759.17 1602.5,1759.5C 1601.42,1808.5 1601.42,1857.5 1602.5,1906.5C 1589.35,1905.18 1576.18,1905.18 1563,1906.5C 1562.5,1906.17 1562,1905.83 1561.5,1905.5C 1562.3,1898.88 1562.8,1892.22 1563,1885.5C 1563.5,1843.17 1563.67,1800.83 1563.5,1758.5C 1548.16,1759.36 1532.83,1760.36 1517.5,1761.5C 1518.83,1754.17 1518.83,1746.83 1517.5,1739.5 Z"/></g>
<g><path style="opacity:0.972" fill="#6c6e70" d="M 1745.5,1739.5 C 1752.32,1740.14 1759.16,1740.81 1766,1741.5C 1786.15,1739.35 1806.32,1739.18 1826.5,1741C 1845.44,1742.95 1857.28,1753.11 1862,1771.5C 1865.15,1800.34 1852.65,1818.18 1824.5,1825C 1841.18,1852.51 1858.85,1879.34 1877.5,1905.5C 1862.21,1905.35 1846.88,1905.52 1831.5,1906C 1816.46,1880.75 1801.29,1855.58 1786,1830.5C 1785.17,1854.7 1785.67,1878.87 1787.5,1903C 1787.17,1904.17 1786.83,1905.33 1786.5,1906.5C 1773.17,1905.17 1759.83,1905.17 1746.5,1906.5C 1746.17,1905 1745.83,1903.5 1745.5,1902C 1748.14,1847.83 1748.14,1793.67 1745.5,1739.5 Z M 1786.5,1754.5 C 1796.66,1753.98 1806.33,1755.81 1815.5,1760C 1821.79,1767.07 1824.46,1775.41 1823.5,1785C 1822.81,1809.52 1810.14,1821.02 1785.5,1819.5C 1785.22,1797.81 1785.56,1776.14 1786.5,1754.5 Z"/></g>
<g><path style="opacity:0.965" fill="#6c6e70" d="M 2059.5,1909.5 C 2053.5,1909.5 2047.5,1909.5 2041.5,1909.5C 2024.44,1908.81 2008.77,1903.65 1994.5,1894C 1982.86,1884.22 1976.36,1871.72 1975,1856.5C 1974.83,1817.79 1974.33,1779.13 1973.5,1740.5C 1974,1740.17 1974.5,1739.83 1975,1739.5C 1988.48,1741.92 2001.98,1741.92 2015.5,1739.5C 2012.72,1773.78 2011.89,1808.11 2013,1842.5C 2013.47,1853.73 2016.14,1864.39 2021,1874.5C 2025.28,1882.4 2031.78,1887.57 2040.5,1890C 2075.04,1899.49 2095.21,1886.66 2101,1851.5C 2104.09,1815.53 2104.26,1779.53 2101.5,1743.5C 2101.83,1742.17 2102.17,1740.83 2102.5,1739.5C 2106.5,1740.17 2110.5,1740.83 2114.5,1741.5C 2118.5,1740.83 2122.5,1740.17 2126.5,1739.5C 2126.83,1741.33 2127.17,1743.17 2127.5,1745C 2125.47,1778.13 2124.3,1811.3 2124,1844.5C 2120.98,1884.68 2099.48,1906.35 2059.5,1909.5 Z"/></g>
<g><path style="opacity:0.969" fill="#6c6e70" d="M 2466.5,1739.5 C 2508.34,1742 2550.17,1742 2592,1739.5C 2593.17,1739.83 2594.33,1740.17 2595.5,1740.5C 2592.87,1747.37 2592.87,1754.2 2595.5,1761C 2580.5,1760.39 2565.5,1759.56 2550.5,1758.5C 2550.33,1799.5 2550.5,1840.5 2551,1881.5C 2551.25,1889.02 2551.75,1896.52 2552.5,1904C 2552.17,1904.83 2551.83,1905.67 2551.5,1906.5C 2538.17,1905.17 2524.83,1905.17 2511.5,1906.5C 2512.65,1857.18 2512.65,1807.85 2511.5,1758.5C 2496.5,1759.39 2481.5,1760.39 2466.5,1761.5C 2467.83,1754.17 2467.83,1746.83 2466.5,1739.5 Z"/></g>
<g><path style="opacity:0.98" fill="#6c6e70" d="M 2695.5,1739.5 C 2708.84,1742.04 2722.17,1742.04 2735.5,1739.5C 2734.18,1795.17 2734.18,1850.83 2735.5,1906.5C 2722.5,1905.17 2709.5,1905.17 2696.5,1906.5C 2696.17,1903.5 2695.83,1900.5 2695.5,1897.5C 2698.05,1844.83 2698.05,1792.17 2695.5,1739.5 Z"/></g>
<g><path style="opacity:0.965" fill="#6c6e70" d="M 3136.5,1739.5 C 3144.04,1741.91 3151.54,1741.91 3159,1739.5C 3194.64,1777.15 3230.31,1814.81 3266,1852.5C 3266.43,1814.8 3266.59,1777.13 3266.5,1739.5C 3270.03,1740.13 3273.53,1740.8 3277,1741.5C 3280.47,1740.8 3283.97,1740.13 3287.5,1739.5C 3287.83,1741.17 3288.17,1742.83 3288.5,1744.5C 3285.47,1798.45 3283.8,1852.45 3283.5,1906.5C 3276.81,1905.38 3270.14,1905.21 3263.5,1906C 3228.77,1866.93 3192.93,1828.76 3156,1791.5C 3155.45,1829.84 3155.45,1868.18 3156,1906.5C 3148.21,1905.25 3140.38,1905.25 3132.5,1906.5C 3137.27,1850.93 3138.6,1795.27 3136.5,1739.5 Z"/></g>
<g><path style="opacity:0.97" fill="#6c6e70" d="M -0.5,1801.5 C 134.167,1801.5 268.833,1801.5 403.5,1801.5C 403.5,1804.5 403.5,1807.5 403.5,1810.5C 268.833,1810.5 134.167,1810.5 -0.5,1810.5C -0.5,1807.5 -0.5,1804.5 -0.5,1801.5 Z"/></g>
<g><path style="opacity:0.973" fill="#6c6e70" d="M 3820.5,1801.5 C 3820.5,1804.5 3820.5,1807.5 3820.5,1810.5C 3686.17,1810.5 3551.83,1810.5 3417.5,1810.5C 3417.5,1807.5 3417.5,1804.5 3417.5,1801.5C 3551.83,1801.5 3686.17,1801.5 3820.5,1801.5 Z"/></g>
</svg>
