<?xml version="1.0" encoding="UTF-8"?>
<!DOCTYPE svg PUBLIC "-//W3C//DTD SVG 1.1//EN" "http://www.w3.org/Graphics/SVG/1.1/DTD/svg11.dtd">
<svg xmlns="http://www.w3.org/2000/svg" version="1.1" width="830px" height="225px" style="shape-rendering:geometricPrecision; text-rendering:geometricPrecision; image-rendering:optimizeQuality; fill-rule:evenodd; clip-rule:evenodd" xmlns:xlink="http://www.w3.org/1999/xlink">
<g><path style="opacity:1" fill="#fdfefc" d="M -0.5,-0.5 C 20.8333,-0.5 42.1667,-0.5 63.5,-0.5C 63.5,-0.166667 63.5,0.166667 63.5,0.5C 60.9438,1.54341 58.7772,3.21008 57,5.5C 54.2589,8.72889 51.7589,12.0622 49.5,15.5C 48.1667,15.5 47.5,16.1667 47.5,17.5C 45.8828,18.038 44.2161,18.3713 42.5,18.5C 42.756,20.9124 41.756,22.5791 39.5,23.5C 38.1686,81.9986 38.1686,140.332 39.5,198.5C 41.5491,201.55 44.2157,203.883 47.5,205.5C 47.3284,206.492 47.6618,207.158 48.5,207.5C 49.4308,211.429 51.7641,214.095 55.5,215.5C 58.1667,218.5 60.8333,221.5 63.5,224.5C 42.1667,224.5 20.8333,224.5 -0.5,224.5C -0.5,202.833 -0.5,181.167 -0.5,159.5C -0.166667,159.5 0.166667,159.5 0.5,159.5C 0.833333,159.5 1.16667,159.5 1.5,159.5C 2.41938,162.089 4.08605,164.089 6.5,165.5C 7.83333,167.167 9.16667,168.833 10.5,170.5C 11.517,172.911 13.1837,174.578 15.5,175.5C 17.8605,178.527 20.5271,181.194 23.5,183.5C 23.56,184.043 23.8933,184.376 24.5,184.5C 25.4999,148.506 25.8332,112.506 25.5,76.5C 23.3206,71.4868 20.154,67.1535 16,63.5C 15.8184,60.7737 15.3184,58.1071 14.5,55.5C 13.5713,56.6888 13.238,58.0222 13.5,59.5C 10.5,59.8333 9.16667,58.5 9.5,55.5C 7.83333,55.5 6.16667,55.5 4.5,55.5C 3.73517,53.071 2.0685,51.7377 -0.5,51.5C -0.5,34.1667 -0.5,16.8333 -0.5,-0.5 Z"/></g>
<g><path style="opacity:1" fill="#fcfcfc" d="M 65.5,-0.5 C 320.167,-0.5 574.833,-0.5 829.5,-0.5C 829.5,74.5 829.5,149.5 829.5,224.5C 574.833,224.5 320.167,224.5 65.5,224.5C 65.5,224.167 65.5,223.833 65.5,223.5C 69.6073,218.963 73.9406,214.63 78.5,210.5C 79.3857,209.675 79.719,208.675 79.5,207.5C 80.5,207.5 81.5,207.5 82.5,207.5C 85.8153,207.028 88.1486,205.195 89.5,202C 90.8333,201.333 92.1667,200.667 93.5,200C 92.8353,144.402 92.1687,88.9023 91.5,33.5C 91.2627,29.278 91.596,25.1114 92.5,21C 92.1667,20.5 91.8333,20 91.5,19.5C 89.9017,20.4847 88.235,20.6514 86.5,20C 84.9168,18.2417 83.2501,16.7417 81.5,15.5C 80.8333,15.5 80.1667,15.5 79.5,15.5C 79.631,14.7611 79.4643,14.0944 79,13.5C 76.3367,11.6664 73.8367,9.6664 71.5,7.5C 69.9092,4.56908 67.9092,1.90241 65.5,-0.5 Z"/></g>
<g><path style="opacity:1" fill="#c5e9ad" d="M 64.5,-0.5 C 64.8333,-0.5 65.1667,-0.5 65.5,-0.5C 67.9092,1.90241 69.9092,4.56908 71.5,7.5C 68.4275,5.43087 66.0941,2.7642 64.5,-0.5 Z"/></g>
<g><path style="opacity:1" fill="#c2e9a8" d="M 63.5,0.5 C 59.5203,6.11312 54.8537,11.1131 49.5,15.5C 51.7589,12.0622 54.2589,8.72889 57,5.5C 58.7772,3.21008 60.9438,1.54341 63.5,0.5 Z"/></g>
<g><path style="opacity:1" fill="#6fc732" d="M 79.5,15.5 C 80.1667,15.5 80.8333,15.5 81.5,15.5C 83.7631,19.1029 86.4297,22.4362 89.5,25.5C 89.5,25.8333 89.5,26.1667 89.5,26.5C 82.573,34.4231 74.9063,41.7564 66.5,48.5C 65.3698,49.6223 64.7031,50.9557 64.5,52.5C 63.5012,98.6637 63.1679,144.997 63.5,191.5C 58.1667,191.5 52.8333,191.5 47.5,191.5C 47.5,138.167 47.5,84.8333 47.5,31.5C 52.8333,31.5 58.1667,31.5 63.5,31.5C 63.1712,25.7945 63.5046,20.1278 64.5,14.5C 66.8392,15.724 69.1725,15.724 71.5,14.5C 70.3825,11.886 68.7159,9.71935 66.5,8C 66.8333,7.5 67.1667,7 67.5,6.5C 71.07,8.28086 73.7367,10.9475 75.5,14.5C 76.6888,15.4287 78.0222,15.762 79.5,15.5 Z"/></g>
<g><path style="opacity:1" fill="#eafee0" d="M 47.5,17.5 C 46.8333,18.5 46.1667,19.5 45.5,20.5C 43.8523,21.8098 42.1856,23.1431 40.5,24.5C 39.5,82.4962 39.1667,140.496 39.5,198.5C 38.1686,140.332 38.1686,81.9986 39.5,23.5C 41.756,22.5791 42.756,20.9124 42.5,18.5C 44.2161,18.3713 45.8828,18.038 47.5,17.5 Z"/></g>
<g><path style="opacity:1" fill="#7ebd4a" d="M 45.5,20.5 C 44.925,22.4113 43.925,24.078 42.5,25.5C 41.8826,25.6107 41.3826,25.944 41,26.5C 40.3333,83.1667 40.3333,139.833 41,196.5C 41.6708,197.252 42.5041,197.586 43.5,197.5C 45.2672,199.938 46.6006,202.605 47.5,205.5C 44.2157,203.883 41.5491,201.55 39.5,198.5C 39.1667,140.496 39.5,82.4962 40.5,24.5C 42.1856,23.1431 43.8523,21.8098 45.5,20.5 Z"/></g>
<g><path style="opacity:1" fill="#6cca28" d="M 42.5,25.5 C 42.17,82.6548 42.5033,139.988 43.5,197.5C 42.5041,197.586 41.6708,197.252 41,196.5C 40.3333,139.833 40.3333,83.1667 41,26.5C 41.3826,25.944 41.8826,25.6107 42.5,25.5 Z"/></g>
<g><path style="opacity:1" fill="#f6fdf2" d="M 91.5,33.5 C 92.1687,88.9023 92.8353,144.402 93.5,200C 92.1667,200.667 90.8333,201.333 89.5,202C 88.1486,205.195 85.8153,207.028 82.5,207.5C 82.5,206.833 82.5,206.167 82.5,205.5C 85.8822,203.451 88.5488,200.785 90.5,197.5C 91.499,143.003 91.8323,88.3359 91.5,33.5 Z"/></g>
<g><path style="opacity:1" fill="#278238" d="M 89.5,25.5 C 90.4614,27.2646 90.7947,29.2646 90.5,31.5C 89.8333,86.1667 89.1667,140.833 88.5,195.5C 88.6667,144.166 88.5,92.8323 88,41.5C 86.406,42.7159 84.906,44.0493 83.5,45.5C 82.8182,44.7573 82.1515,44.0906 81.5,43.5C 81.1437,40.4359 81.9771,37.7693 84,35.5C 85.3985,34.9491 86.7318,34.6158 88,34.5C 88.6838,33.2161 88.5171,32.0495 87.5,31C 89.0368,29.8904 89.7035,28.3904 89.5,26.5C 89.5,26.1667 89.5,25.8333 89.5,25.5 Z"/></g>
<g><path style="opacity:1" fill="#34763f" d="M 90.5,31.5 C 90.5,86.8333 90.5,142.167 90.5,197.5C 88.5488,200.785 85.8822,203.451 82.5,205.5C 83.0116,202.152 84.845,199.819 88,198.5C 88.4828,197.552 88.6495,196.552 88.5,195.5C 89.1667,140.833 89.8333,86.1667 90.5,31.5 Z"/></g>
<g><path style="opacity:1" fill="#dbfbdb" d="M 81.5,15.5 C 83.2501,16.7417 84.9168,18.2417 86.5,20C 88.235,20.6514 89.9017,20.4847 91.5,19.5C 91.8333,20 92.1667,20.5 92.5,21C 91.596,25.1114 91.2627,29.278 91.5,33.5C 91.8323,88.3359 91.499,143.003 90.5,197.5C 90.5,142.167 90.5,86.8333 90.5,31.5C 90.7947,29.2646 90.4614,27.2646 89.5,25.5C 86.4297,22.4362 83.7631,19.1029 81.5,15.5 Z"/></g>
<g><path style="opacity:1" fill="#69c652" d="M 64.5,52.5 C 64.1677,109.669 64.501,166.669 65.5,223.5C 65.5,223.833 65.5,224.167 65.5,224.5C 64.8333,224.5 64.1667,224.5 63.5,224.5C 60.8333,221.5 58.1667,218.5 55.5,215.5C 58.5116,216.255 61.1783,217.588 63.5,219.5C 63.5,210.167 63.5,200.833 63.5,191.5C 63.1679,144.997 63.5012,98.6637 64.5,52.5 Z"/></g>
<g><path style="opacity:1" fill="#268520" d="M 89.5,26.5 C 89.7035,28.3904 89.0368,29.8904 87.5,31C 88.5171,32.0495 88.6838,33.2161 88,34.5C 86.7318,34.6158 85.3985,34.9491 84,35.5C 81.9771,37.7693 81.1437,40.4359 81.5,43.5C 81.762,44.9778 81.4287,46.3112 80.5,47.5C 79.6922,45.5767 79.1922,43.5767 79,41.5C 74.8837,44.0729 72.5504,47.7396 72,52.5C 69.2159,49.7159 67.5492,50.3826 67,54.5C 66.8252,110.874 66.3252,167.207 65.5,223.5C 64.501,166.669 64.1677,109.669 64.5,52.5C 64.7031,50.9557 65.3698,49.6223 66.5,48.5C 74.9063,41.7564 82.573,34.4231 89.5,26.5 Z"/></g>
<g><path style="opacity:1" fill="#26842f" d="M 81.5,43.5 C 82.1515,44.0906 82.8182,44.7573 83.5,45.5C 84.906,44.0493 86.406,42.7159 88,41.5C 88.5,92.8323 88.6667,144.166 88.5,195.5C 88.6495,196.552 88.4828,197.552 88,198.5C 84.845,199.819 83.0116,202.152 82.5,205.5C 82.5,206.167 82.5,206.833 82.5,207.5C 81.5,207.5 80.5,207.5 79.5,207.5C 79.719,208.675 79.3857,209.675 78.5,210.5C 73.9406,214.63 69.6073,218.963 65.5,223.5C 66.3252,167.207 66.8252,110.874 67,54.5C 67.5492,50.3826 69.2159,49.7159 72,52.5C 72.5504,47.7396 74.8837,44.0729 79,41.5C 79.1922,43.5767 79.6922,45.5767 80.5,47.5C 81.4287,46.3112 81.762,44.9778 81.5,43.5 Z"/></g>
<g><path style="opacity:1" fill="#ebfbe5" d="M 4.5,56.5 C 4.5,56.1667 4.5,55.8333 4.5,55.5C 6.16667,55.5 7.83333,55.5 9.5,55.5C 9.16667,58.5 10.5,59.8333 13.5,59.5C 13.238,58.0222 13.5713,56.6888 14.5,55.5C 15.3184,58.1071 15.8184,60.7737 16,63.5C 20.154,67.1535 23.3206,71.4868 25.5,76.5C 25.1667,76.5 24.8333,76.5 24.5,76.5C 23.1667,75.5 21.8333,74.5 20.5,73.5C 19.1667,71.5 17.5,69.8333 15.5,68.5C 13.2114,63.2707 9.54477,59.2707 4.5,56.5 Z"/></g>
<g><path style="opacity:1" fill="#0a0a0a" d="M 157.5,73.5 C 175.418,70.7573 180.918,77.7573 174,94.5C 170.417,96.2902 166.584,96.9569 162.5,96.5C 162.5,102.167 162.5,107.833 162.5,113.5C 160.833,113.5 159.167,113.5 157.5,113.5C 157.5,100.167 157.5,86.8333 157.5,73.5 Z"/></g>
<g><path style="opacity:1" fill="#080808" d="M 182.5,73.5 C 184.167,73.5 185.833,73.5 187.5,73.5C 187.5,86.8333 187.5,100.167 187.5,113.5C 185.833,113.5 184.167,113.5 182.5,113.5C 182.5,100.167 182.5,86.8333 182.5,73.5 Z"/></g>
<g><path style="opacity:1" fill="#0a0a0a" d="M 195.5,73.5 C 197.167,73.5 198.833,73.5 200.5,73.5C 203.361,82.2463 206.527,90.913 210,99.5C 210.5,90.8397 210.666,82.1731 210.5,73.5C 212.167,73.5 213.833,73.5 215.5,73.5C 215.5,86.8333 215.5,100.167 215.5,113.5C 213.712,113.785 212.045,113.452 210.5,112.5C 207.235,104.54 204.069,96.5397 201,88.5C 200.5,96.8267 200.334,105.16 200.5,113.5C 198.833,113.5 197.167,113.5 195.5,113.5C 195.5,100.167 195.5,86.8333 195.5,73.5 Z"/></g>
<g><path style="opacity:1" fill="#0c0c0c" d="M 222.5,73.5 C 224.467,73.2606 226.301,73.5939 228,74.5C 230.803,82.5775 233.803,90.5775 237,98.5C 237.5,90.1733 237.666,81.84 237.5,73.5C 239.167,73.5 240.833,73.5 242.5,73.5C 242.5,86.8333 242.5,100.167 242.5,113.5C 240.833,113.5 239.167,113.5 237.5,113.5C 234.639,104.754 231.473,96.087 228,87.5C 227.5,96.1603 227.334,104.827 227.5,113.5C 225.833,113.5 224.167,113.5 222.5,113.5C 222.5,100.167 222.5,86.8333 222.5,73.5 Z"/></g>
<g><path style="opacity:1" fill="#0e0e0e" d="M 256.5,73.5 C 258.167,73.5 259.833,73.5 261.5,73.5C 264.117,86.582 267.117,99.582 270.5,112.5C 268.604,113.466 266.604,113.799 264.5,113.5C 264.492,110.455 264.159,107.455 263.5,104.5C 260.167,104.5 256.833,104.5 253.5,104.5C 253.037,107.482 252.704,110.482 252.5,113.5C 250.833,113.5 249.167,113.5 247.5,113.5C 249.739,99.9694 252.739,86.636 256.5,73.5 Z"/></g>
<g><path style="opacity:1" fill="#070707" d="M 319.5,73.5 C 324.833,73.5 330.167,73.5 335.5,73.5C 335.5,74.8333 335.5,76.1667 335.5,77.5C 331.833,77.5 328.167,77.5 324.5,77.5C 324.5,82.1667 324.5,86.8333 324.5,91.5C 327.833,91.5 331.167,91.5 334.5,91.5C 334.5,92.8333 334.5,94.1667 334.5,95.5C 331.167,95.5 327.833,95.5 324.5,95.5C 324.5,100.167 324.5,104.833 324.5,109.5C 328.167,109.5 331.833,109.5 335.5,109.5C 335.5,110.833 335.5,112.167 335.5,113.5C 330.167,113.5 324.833,113.5 319.5,113.5C 319.5,100.167 319.5,86.8333 319.5,73.5 Z"/></g>
<g><path style="opacity:1" fill="#0b0b0b" d="M 382.5,72.5 C 389.33,71.8327 393.496,74.8327 395,81.5C 395.881,90.5623 395.548,99.5623 394,108.5C 389.449,115.471 384.116,116.138 378,110.5C 375.073,99.9522 374.74,89.2855 377,78.5C 378.36,75.9774 380.193,73.9774 382.5,72.5 Z"/></g>
<g><path style="opacity:1" fill="#0a0a0a" d="M 408.5,89.5 C 408.217,88.7109 407.717,88.0442 407,87.5C 406.5,96.1603 406.334,104.827 406.5,113.5C 405.167,113.5 403.833,113.5 402.5,113.5C 402.5,100.167 402.5,86.8333 402.5,73.5C 404.144,73.2865 405.644,73.6198 407,74.5C 410,82.1667 413,89.8333 416,97.5C 416.5,89.5069 416.666,81.5069 416.5,73.5C 418.167,73.5 419.833,73.5 421.5,73.5C 421.5,86.8333 421.5,100.167 421.5,113.5C 419.833,113.5 418.167,113.5 416.5,113.5C 414.035,105.438 411.368,97.4379 408.5,89.5 Z"/></g>
<g><path style="opacity:1" fill="#090909" d="M 450.5,73.5 C 456.833,73.5 463.167,73.5 469.5,73.5C 469.5,74.8333 469.5,76.1667 469.5,77.5C 467.167,77.5 464.833,77.5 462.5,77.5C 462.5,89.5 462.5,101.5 462.5,113.5C 460.833,113.5 459.167,113.5 457.5,113.5C 457.5,101.5 457.5,89.5 457.5,77.5C 455.167,77.5 452.833,77.5 450.5,77.5C 450.5,76.1667 450.5,74.8333 450.5,73.5 Z"/></g>
<g><path style="opacity:1" fill="#0a0a0a" d="M 474.5,73.5 C 490.354,70.8486 496.187,77.182 492,92.5C 490.926,93.6184 489.76,94.6184 488.5,95.5C 490.5,101.167 492.5,106.833 494.5,112.5C 492.647,113.76 490.814,113.76 489,112.5C 487.391,107.177 485.891,101.844 484.5,96.5C 482.833,96.5 481.167,96.5 479.5,96.5C 479.5,102.167 479.5,107.833 479.5,113.5C 477.833,113.5 476.167,113.5 474.5,113.5C 474.5,100.167 474.5,86.8333 474.5,73.5 Z"/></g>
<g><path style="opacity:1" fill="#0d0d0d" d="M 499.5,73.5 C 501.167,73.5 502.833,73.5 504.5,73.5C 504.333,84.505 504.5,95.505 505,106.5C 507.178,110.065 509.844,110.399 513,107.5C 513.5,96.1716 513.667,84.8382 513.5,73.5C 515.167,73.5 516.833,73.5 518.5,73.5C 518.667,85.1714 518.5,96.8381 518,108.5C 512.697,115.965 507.03,116.298 501,109.5C 499.609,97.5534 499.109,85.5534 499.5,73.5 Z"/></g>
<g><path style="opacity:1" fill="#030303" d="M 547.5,73.5 C 553.833,73.5 560.167,73.5 566.5,73.5C 566.5,74.8333 566.5,76.1667 566.5,77.5C 564.167,77.5 561.833,77.5 559.5,77.5C 559.5,89.5 559.5,101.5 559.5,113.5C 557.833,113.5 556.167,113.5 554.5,113.5C 554.5,101.5 554.5,89.5 554.5,77.5C 552.167,77.5 549.833,77.5 547.5,77.5C 547.5,76.1667 547.5,74.8333 547.5,73.5 Z"/></g>
<g><path style="opacity:1" fill="#090909" d="M 571.5,73.5 C 573.167,73.5 574.833,73.5 576.5,73.5C 576.5,86.8333 576.5,100.167 576.5,113.5C 574.833,113.5 573.167,113.5 571.5,113.5C 571.5,100.167 571.5,86.8333 571.5,73.5 Z"/></g>
<g><path style="opacity:1" fill="#111111" d="M 590.5,72.5 C 596.003,72.1827 599.836,74.516 602,79.5C 602.895,89.5606 602.562,99.5606 601,109.5C 596.016,115.497 590.683,115.83 585,110.5C 582.11,99.9261 581.777,89.2594 584,78.5C 585.436,75.5581 587.603,73.5581 590.5,72.5 Z"/></g>
<g><path style="opacity:1" fill="#0a0a0a" d="M 622.5,96.5 C 622.987,97.4734 623.487,98.4734 624,99.5C 624.5,90.8397 624.666,82.1731 624.5,73.5C 626.167,73.5 627.833,73.5 629.5,73.5C 629.5,86.8333 629.5,100.167 629.5,113.5C 627.533,113.739 625.699,113.406 624,112.5C 621.197,104.422 618.197,96.4225 615,88.5C 614.5,96.8267 614.334,105.16 614.5,113.5C 612.833,113.5 611.167,113.5 609.5,113.5C 609.5,100.167 609.5,86.8333 609.5,73.5C 611.167,73.5 612.833,73.5 614.5,73.5C 616.77,81.31 619.437,88.9767 622.5,96.5 Z"/></g>
<g><path style="opacity:1" fill="#080808" d="M 647.5,73.5 C 664.045,71.0404 669.712,77.7071 664.5,93.5C 661.041,96.2308 657.041,97.2308 652.5,96.5C 652.5,102.167 652.5,107.833 652.5,113.5C 650.833,113.5 649.167,113.5 647.5,113.5C 647.5,100.167 647.5,86.8333 647.5,73.5 Z"/></g>
<g><path style="opacity:1" fill="#0b0b0b" d="M 672.5,73.5 C 688.124,70.2879 693.957,76.2879 690,91.5C 689.19,93.3058 688.024,94.8058 686.5,96C 688.354,101.544 690.354,107.044 692.5,112.5C 690.647,113.76 688.814,113.76 687,112.5C 685.185,107.237 683.685,101.903 682.5,96.5C 680.833,96.5 679.167,96.5 677.5,96.5C 677.5,102.167 677.5,107.833 677.5,113.5C 675.833,113.5 674.167,113.5 672.5,113.5C 672.5,100.167 672.5,86.8333 672.5,73.5 Z"/></g>
<g><path style="opacity:1" fill="#0e0e0e" d="M 704.5,72.5 C 711.364,71.8757 715.531,74.8757 717,81.5C 717.667,89.5 717.667,97.5 717,105.5C 714.067,114.253 708.734,116.253 701,111.5C 699.133,109.192 698.133,106.525 698,103.5C 697.124,94.7704 697.458,86.1037 699,77.5C 700.73,75.5981 702.563,73.9314 704.5,72.5 Z"/></g>
<g><path style="opacity:1" fill="#0c0c0c" d="M 731.5,73.5 C 733.167,73.5 734.833,73.5 736.5,73.5C 736.667,84.1719 736.5,94.8385 736,105.5C 735.124,110.864 731.957,113.864 726.5,114.5C 723.63,114.398 721.297,113.232 719.5,111C 721.314,108.226 723.648,107.726 726.5,109.5C 728.374,109.61 729.874,108.944 731,107.5C 731.5,96.1716 731.667,84.8382 731.5,73.5 Z"/></g>
<g><path style="opacity:1" fill="#070707" d="M 743.5,73.5 C 748.833,73.5 754.167,73.5 759.5,73.5C 759.5,74.8333 759.5,76.1667 759.5,77.5C 755.833,77.5 752.167,77.5 748.5,77.5C 748.5,82.1667 748.5,86.8333 748.5,91.5C 751.5,91.5 754.5,91.5 757.5,91.5C 757.5,92.8333 757.5,94.1667 757.5,95.5C 754.5,95.5 751.5,95.5 748.5,95.5C 748.5,100.167 748.5,104.833 748.5,109.5C 752.167,109.5 755.833,109.5 759.5,109.5C 759.5,110.833 759.5,112.167 759.5,113.5C 754.167,113.5 748.833,113.5 743.5,113.5C 743.5,100.167 743.5,86.8333 743.5,73.5 Z"/></g>
<g><path style="opacity:1" fill="#020202" d="M 787.5,73.5 C 793.5,73.5 799.5,73.5 805.5,73.5C 805.5,74.8333 805.5,76.1667 805.5,77.5C 803.167,77.5 800.833,77.5 798.5,77.5C 798.5,89.5 798.5,101.5 798.5,113.5C 797.167,113.5 795.833,113.5 794.5,113.5C 794.5,101.5 794.5,89.5 794.5,77.5C 792.167,77.5 789.833,77.5 787.5,77.5C 787.5,76.1667 787.5,74.8333 787.5,73.5 Z"/></g>
<g><path style="opacity:1" fill="#020202" d="M 299.5,73.5 C 300.833,73.5 302.167,73.5 303.5,73.5C 303.5,85.5 303.5,97.5 303.5,109.5C 307.167,109.5 310.833,109.5 314.5,109.5C 314.5,110.833 314.5,112.167 314.5,113.5C 309.5,113.5 304.5,113.5 299.5,113.5C 299.5,100.167 299.5,86.8333 299.5,73.5 Z"/></g>
<g><path style="opacity:1" fill="#101010" d="M 531.5,72.5 C 538.75,72.0872 543.084,75.4206 544.5,82.5C 542.955,83.4519 541.288,83.7852 539.5,83.5C 539.374,77.8085 536.707,76.1418 531.5,78.5C 528.868,88.5086 528.868,98.5086 531.5,108.5C 536.707,110.858 539.374,109.192 539.5,103.5C 541.288,103.215 542.955,103.548 544.5,104.5C 542.766,113.027 537.766,115.86 529.5,113C 527.513,111.681 526.346,109.848 526,107.5C 523.751,97.0665 524.085,86.7332 527,76.5C 528.397,74.9297 529.897,73.5964 531.5,72.5 Z"/></g>
<g><path style="opacity:1" fill="#ededed" d="M 383.5,77.5 C 386.833,77.0268 389,78.3601 390,81.5C 390.91,90.2438 390.576,98.9105 389,107.5C 384.877,110.585 382.211,109.585 381,104.5C 380.333,97.1667 380.333,89.8333 381,82.5C 381.366,80.5483 382.199,78.8816 383.5,77.5 Z"/></g>
<g><path style="opacity:1" fill="#f5f5f5" d="M 590.5,77.5 C 593.547,76.8554 595.713,77.8554 597,80.5C 597.667,89.1667 597.667,97.8333 597,106.5C 594.192,110.386 591.526,110.386 589,106.5C 588.333,97.5 588.333,88.5 589,79.5C 589.717,78.9558 590.217,78.2891 590.5,77.5 Z"/></g>
<g><path style="opacity:1" fill="#111111" d="M 771.5,72.5 C 779.332,71.9994 783.332,75.666 783.5,83.5C 781.833,83.5 780.167,83.5 778.5,83.5C 778.519,78.0164 776.019,76.3497 771,78.5C 769.886,83.3907 769.386,88.3907 769.5,93.5C 769.386,98.6093 769.886,103.609 771,108.5C 776.019,110.65 778.519,108.984 778.5,103.5C 780.167,103.5 781.833,103.5 783.5,103.5C 783.825,108.382 781.825,111.882 777.5,114C 772.496,115.225 768.663,113.725 766,109.5C 764.438,99.5606 764.105,89.5606 765,79.5C 766.018,75.9853 768.185,73.652 771.5,72.5 Z"/></g>
<g><path style="opacity:1" fill="#f7f7f7" d="M 169.5,78.5 C 172.09,82.8041 172.09,87.1375 169.5,91.5C 167.5,91.5 165.5,91.5 163.5,91.5C 163.5,87.1667 163.5,82.8333 163.5,78.5C 165.5,78.5 167.5,78.5 169.5,78.5 Z"/></g>
<g><path style="opacity:1" fill="#0f0f0f" d="M 281.5,72.5 C 288.899,72.5654 292.566,76.2321 292.5,83.5C 291.022,83.762 289.689,83.4287 288.5,82.5C 287.142,77.2479 284.309,76.2479 280,79.5C 278.927,84.0827 278.427,88.7494 278.5,93.5C 278.292,98.6508 278.958,103.651 280.5,108.5C 284.672,110.219 287.339,108.885 288.5,104.5C 290.074,103.369 291.741,103.202 293.5,104C 291.947,112.903 286.947,115.903 278.5,113C 275.527,110.552 274.027,107.386 274,103.5C 273.333,96.8333 273.333,90.1667 274,83.5C 274.063,78.0063 276.563,74.3397 281.5,72.5 Z"/></g>
<g><path style="opacity:1" fill="#101010" d="M 358.5,72.5 C 366.368,72.0368 370.368,75.7035 370.5,83.5C 368.833,83.5 367.167,83.5 365.5,83.5C 366.179,77.7646 363.845,76.098 358.5,78.5C 356.958,83.3492 356.292,88.3492 356.5,93.5C 356.292,98.6508 356.958,103.651 358.5,108.5C 363.431,110.416 365.764,108.75 365.5,103.5C 367.167,103.5 368.833,103.5 370.5,103.5C 370.01,112.824 365.343,115.99 356.5,113C 354.951,111.786 353.785,110.286 353,108.5C 350.74,97.7145 351.073,87.0478 354,76.5C 355.397,74.9297 356.897,73.5964 358.5,72.5 Z"/></g>
<g><path style="opacity:1" fill="#ebebeb" d="M 479.5,77.5 C 485.375,76.5415 488.375,79.0415 488.5,85C 488.401,90.9333 485.401,93.1 479.5,91.5C 479.5,86.8333 479.5,82.1667 479.5,77.5 Z"/></g>
<g><path style="opacity:1" fill="#ebebeb" d="M 652.5,77.5 C 658.134,76.4683 661.134,78.8017 661.5,84.5C 661.6,90.7357 658.6,93.4024 652.5,92.5C 652.5,87.5 652.5,82.5 652.5,77.5 Z"/></g>
<g><path style="opacity:1" fill="#eaeaea" d="M 677.5,77.5 C 683.674,76.2485 686.674,78.7485 686.5,85C 686.401,90.9333 683.401,93.1 677.5,91.5C 677.5,86.8333 677.5,82.1667 677.5,77.5 Z"/></g>
<g><path style="opacity:1" fill="#efefef" d="M 704.5,77.5 C 708.751,76.7304 711.251,78.3971 712,82.5C 712.87,90.897 712.537,99.2303 711,107.5C 706.877,110.585 704.211,109.585 703,104.5C 702.029,95.3808 702.529,86.3808 704.5,77.5 Z"/></g>
<g><path style="opacity:1" fill="#e7fdcb" d="M -0.5,51.5 C 2.0685,51.7377 3.73517,53.071 4.5,55.5C 3.41683,55.4606 2.41683,55.1272 1.5,54.5C 0.500121,89.4937 0.166788,124.494 0.5,159.5C 0.166667,159.5 -0.166667,159.5 -0.5,159.5C -0.5,123.5 -0.5,87.5 -0.5,51.5 Z"/></g>
<g><path style="opacity:1" fill="#81b658" d="M 4.5,55.5 C 4.5,55.8333 4.5,56.1667 4.5,56.5C 3.5,56.5 2.5,56.5 1.5,56.5C 1.5,90.8333 1.5,125.167 1.5,159.5C 1.16667,159.5 0.833333,159.5 0.5,159.5C 0.166788,124.494 0.500121,89.4937 1.5,54.5C 2.41683,55.1272 3.41683,55.4606 4.5,55.5 Z"/></g>
<g><path style="opacity:1" fill="#7bbd43" d="M 20.5,73.5 C 21.8333,74.5 23.1667,75.5 24.5,76.5C 24.8317,112.337 24.4984,148.004 23.5,183.5C 20.5271,181.194 17.8605,178.527 15.5,175.5C 17.9138,177.224 20.5804,178.558 23.5,179.5C 23.6667,145.498 23.5,111.498 23,77.5C 21.5187,76.5291 20.6854,75.1958 20.5,73.5 Z"/></g>
<g><path style="opacity:1" fill="#b1dc90" d="M 24.5,76.5 C 24.8333,76.5 25.1667,76.5 25.5,76.5C 25.8332,112.506 25.4999,148.506 24.5,184.5C 23.8933,184.376 23.56,184.043 23.5,183.5C 24.4984,148.004 24.8317,112.337 24.5,76.5 Z"/></g>
<g><path style="opacity:1" fill="#868686" d="M 169.5,78.5 C 167.5,78.5 165.5,78.5 163.5,78.5C 163.5,82.8333 163.5,87.1667 163.5,91.5C 165.5,91.5 167.5,91.5 169.5,91.5C 167.393,92.4682 165.059,92.8016 162.5,92.5C 162.5,87.5 162.5,82.5 162.5,77.5C 165.059,77.1984 167.393,77.5318 169.5,78.5 Z"/></g>
<g><path style="opacity:1" fill="#b6b6b6" d="M 624.5,73.5 C 624.666,82.1731 624.5,90.8397 624,99.5C 623.487,98.4734 622.987,97.4734 622.5,96.5C 623.167,88.8333 623.833,81.1667 624.5,73.5 Z"/></g>
<g><path style="opacity:1" fill="#e6e6e6" d="M 258.5,83.5 C 260.504,88.5247 261.504,93.858 261.5,99.5C 259.5,99.5 257.5,99.5 255.5,99.5C 256.074,94.0548 257.074,88.7214 258.5,83.5 Z"/></g>
<g><path style="opacity:1" fill="#7fc14a" d="M 4.5,56.5 C 9.54477,59.2707 13.2114,63.2707 15.5,68.5C 14.448,68.6495 13.448,68.4828 12.5,68C 11.6364,66.3035 10.3031,65.1368 8.5,64.5C 7.9993,61.3328 6.33264,58.9995 3.5,57.5C 2.33343,91.4951 2.16676,125.495 3,159.5C 4.42132,161.405 5.58798,163.405 6.5,165.5C 4.08605,164.089 2.41938,162.089 1.5,159.5C 1.5,125.167 1.5,90.8333 1.5,56.5C 2.5,56.5 3.5,56.5 4.5,56.5 Z"/></g>
<g><path style="opacity:1" fill="#70c733" d="M 15.5,68.5 C 17.5,69.8333 19.1667,71.5 20.5,73.5C 20.6854,75.1958 21.5187,76.5291 23,77.5C 23.5,111.498 23.6667,145.498 23.5,179.5C 20.5804,178.558 17.9138,177.224 15.5,175.5C 14.483,173.089 12.8163,171.422 10.5,170.5C 9.16667,168.833 7.83333,167.167 6.5,165.5C 5.58798,163.405 4.42132,161.405 3,159.5C 2.16676,125.495 2.33343,91.4951 3.5,57.5C 6.33264,58.9995 7.9993,61.3328 8.5,64.5C 10.3031,65.1368 11.6364,66.3035 12.5,68C 13.448,68.4828 14.448,68.6495 15.5,68.5 Z"/></g>
<g><path style="opacity:1" fill="#121212" d="M 817.5,72.5 C 824.856,72.523 828.523,76.1897 828.5,83.5C 826.833,83.5 825.167,83.5 823.5,83.5C 822.974,77.3574 820.14,76.0241 815,79.5C 814.333,82.1667 814.333,84.8333 815,87.5C 819.093,89.6453 823.093,91.9786 827,94.5C 829,99.8333 829,105.167 827,110.5C 821.632,115.732 816.299,115.732 811,110.5C 809.798,108.323 809.298,105.989 809.5,103.5C 811.167,103.5 812.833,103.5 814.5,103.5C 815.026,109.643 817.86,110.976 823,107.5C 823.752,104.106 823.585,100.773 822.5,97.5C 819.754,95.5269 816.754,94.0269 813.5,93C 809.281,88.1004 808.448,82.6004 811,76.5C 813.013,74.7518 815.18,73.4185 817.5,72.5 Z"/></g>
<g><path style="opacity:1" fill="#111111" d="M 435.5,72.5 C 443.043,72.0876 447.043,75.5876 447.5,83C 445.866,83.4935 444.199,83.6602 442.5,83.5C 441.897,77.3494 439.064,76.016 434,79.5C 433.333,82.1667 433.333,84.8333 434,87.5C 438.172,89.9186 442.172,92.5852 446,95.5C 450.754,109.729 445.92,115.562 431.5,113C 428.971,110.358 427.971,107.192 428.5,103.5C 430.167,103.5 431.833,103.5 433.5,103.5C 433.062,109.313 435.562,110.98 441,108.5C 444.859,99.7209 442.026,94.5543 432.5,93C 428.695,88.9089 427.528,84.0755 429,78.5C 430.436,75.5581 432.603,73.5581 435.5,72.5 Z"/></g>
<g><path style="opacity:1" fill="#989898" d="M 408.5,89.5 C 407.833,97.5 407.167,105.5 406.5,113.5C 406.334,104.827 406.5,96.1603 407,87.5C 407.717,88.0442 408.217,88.7109 408.5,89.5 Z"/></g>
<g><path style="opacity:1" fill="#337a37" d="M 128.5,159.5 C 128.83,139.66 128.497,119.993 127.5,100.5C 127.783,99.7109 128.283,99.0442 129,98.5C 129.829,119.004 129.663,139.337 128.5,159.5 Z"/></g>
<g><path style="opacity:1" fill="#b7ddbe" d="M 103.5,124.5 C 103.333,144.169 103.5,163.836 104,183.5C 105.045,182.627 105.878,181.627 106.5,180.5C 108.167,179.167 109.833,177.833 111.5,176.5C 109.612,179.899 107.112,182.899 104,185.5C 103.667,185.167 103.333,184.833 103,184.5C 102.171,164.329 102.338,144.329 103.5,124.5 Z"/></g>
<g><path style="opacity:1" fill="#3a7f43" d="M 127.5,100.5 C 126.268,106.066 122.935,109.732 117.5,111.5C 117.649,112.552 117.483,113.552 117,114.5C 111.575,117.588 107.575,121.922 105,127.5C 104.833,136.333 104.667,145.167 104.5,154C 104.502,163.193 105.168,172.026 106.5,180.5C 105.878,181.627 105.045,182.627 104,183.5C 103.5,163.836 103.333,144.169 103.5,124.5C 103.369,123.761 103.536,123.094 104,122.5C 111.729,115.053 119.562,107.719 127.5,100.5 Z"/></g>
<g><path style="opacity:1" fill="#24842e" d="M 127.5,100.5 C 128.497,119.993 128.83,139.66 128.5,159.5C 123.174,165.493 117.507,171.16 111.5,176.5C 109.833,177.833 108.167,179.167 106.5,180.5C 105.168,172.026 104.502,163.193 104.5,154C 104.667,145.167 104.833,136.333 105,127.5C 107.575,121.922 111.575,117.588 117,114.5C 117.483,113.552 117.649,112.552 117.5,111.5C 122.935,109.732 126.268,106.066 127.5,100.5 Z"/></g>
<g><path style="opacity:1" fill="#101010" d="M 285.5,129.5 C 287.167,129.5 288.833,129.5 290.5,129.5C 290.5,131.167 290.5,132.833 290.5,134.5C 288.833,134.5 287.167,134.5 285.5,134.5C 285.5,132.833 285.5,131.167 285.5,129.5 Z"/></g>
<g><path style="opacity:1" fill="#121212" d="M 572.5,129.5 C 574.167,129.5 575.833,129.5 577.5,129.5C 577.5,131.167 577.5,132.833 577.5,134.5C 575.833,134.5 574.167,134.5 572.5,134.5C 572.5,132.833 572.5,131.167 572.5,129.5 Z"/></g>
<g><path style="opacity:1" fill="#020202" d="M 367.5,169.5 C 365.517,169.843 364.183,169.176 363.5,167.5C 364.495,156.012 364.828,144.345 364.5,132.5C 365.5,132.5 366.5,132.5 367.5,132.5C 367.5,144.833 367.5,157.167 367.5,169.5 Z"/></g>
<g><path style="opacity:1" fill="#0a0a0a" d="M 435.5,131.5 C 437.167,131.5 438.833,131.5 440.5,131.5C 440.179,142.748 440.513,153.915 441.5,165C 452.828,165.5 464.162,165.667 475.5,165.5C 471.449,150.718 476.949,144.718 492,147.5C 496.367,149.318 496.534,151.318 492.5,153.5C 481.669,147.507 477.503,150.507 480,162.5C 480.833,163.333 481.667,164.167 482.5,165C 487.155,165.499 491.821,165.666 496.5,165.5C 496.5,166.833 496.5,168.167 496.5,169.5C 477.164,169.667 457.83,169.5 438.5,169C 437.107,167.829 436.273,166.329 436,164.5C 435.5,153.505 435.333,142.505 435.5,131.5 Z"/></g>
<g><path style="opacity:1" fill="#0c0c0c" d="M 641.5,131.5 C 643.167,131.5 644.833,131.5 646.5,131.5C 646.168,142.52 646.501,153.52 647.5,164.5C 651.296,166.164 654.796,165.83 658,163.5C 658.5,152.839 658.667,142.172 658.5,131.5C 659.833,131.5 661.167,131.5 662.5,131.5C 662.667,143.171 662.5,154.838 662,166.5C 661.5,167.667 660.667,168.5 659.5,169C 654.574,170.036 649.907,169.536 645.5,167.5C 644.692,167.808 644.025,168.308 643.5,169C 636.833,169.667 630.167,169.667 623.5,169C 622.975,168.308 622.308,167.808 621.5,167.5C 616.115,171.293 610.782,171.293 605.5,167.5C 600.377,171.203 595.377,171.203 590.5,167.5C 585.833,170.167 581.167,170.167 576.5,167.5C 571.967,170.139 567.467,170.139 563,167.5C 562.5,168 562,168.5 561.5,169C 554.117,169.799 546.783,169.632 539.5,168.5C 539.758,176.909 535.758,180.909 527.5,180.5C 527.5,179.167 527.5,177.833 527.5,176.5C 531.162,177.363 533.328,176.03 534,172.5C 534.5,163.84 534.666,155.173 534.5,146.5C 535.833,146.5 537.167,146.5 538.5,146.5C 538.334,152.176 538.501,157.843 539,163.5C 539.5,164 540,164.5 540.5,165C 546.491,165.499 552.491,165.666 558.5,165.5C 558.5,160.833 558.5,156.167 558.5,151.5C 560.167,151.5 561.833,151.5 563.5,151.5C 563.334,155.514 563.501,159.514 564,163.5C 566.418,165.68 569.084,166.013 572,164.5C 572.499,160.179 572.666,155.846 572.5,151.5C 574.167,151.5 575.833,151.5 577.5,151.5C 577.174,155.884 577.508,160.217 578.5,164.5C 580.768,165.544 583.101,165.711 585.5,165C 586.476,158.924 586.81,152.758 586.5,146.5C 588.144,146.286 589.644,146.62 591,147.5C 590.902,153.62 591.736,159.454 593.5,165C 596.227,165.818 598.894,165.652 601.5,164.5C 602.262,160.889 602.762,157.222 603,153.5C 604.455,148.366 607.788,146.033 613,146.5C 620.76,146.26 624.593,150.093 624.5,158C 623.124,160.55 623.457,162.883 625.5,165C 630.5,165.667 635.5,165.667 640.5,165C 641.487,153.915 641.821,142.748 641.5,131.5 Z"/></g>
<g><path style="opacity:1" fill="#0d0d0d" d="M 704.5,131.5 C 706.167,131.5 707.833,131.5 709.5,131.5C 709.168,142.52 709.501,153.52 710.5,164.5C 718.139,165.801 725.805,165.801 733.5,164.5C 734.585,161.227 734.752,157.894 734,154.5C 733.5,153.333 732.667,152.5 731.5,152C 727.179,151.501 722.846,151.334 718.5,151.5C 718.34,149.801 718.506,148.134 719,146.5C 722.833,142 726.667,137.5 730.5,133C 733.34,132.512 734.506,133.679 734,136.5C 730.796,139.369 727.963,142.535 725.5,146C 738.913,147.476 743.08,154.643 738,167.5C 737.25,168.126 736.416,168.626 735.5,169C 726.506,169.5 717.506,169.666 708.5,169.5C 708.157,177.341 703.991,181.341 696,181.5C 684.37,179.59 680.37,172.924 684,161.5C 685.2,157.235 687.367,156.569 690.5,159.5C 686.616,164.771 686.616,169.938 690.5,175C 695.374,177.4 699.707,176.733 703.5,173C 704.474,159.203 704.807,145.37 704.5,131.5 Z"/></g>
<g><path style="opacity:1" fill="#0b0b0b" d="M 746.5,131.5 C 748.167,131.5 749.833,131.5 751.5,131.5C 751.5,142.833 751.5,154.167 751.5,165.5C 763.5,165.5 775.5,165.5 787.5,165.5C 787.5,159.167 787.5,152.833 787.5,146.5C 789.144,146.286 790.644,146.62 792,147.5C 792.17,153.196 792.67,158.862 793.5,164.5C 797.032,165.803 800.532,165.803 804,164.5C 804.499,158.509 804.666,152.509 804.5,146.5C 806.167,146.5 807.833,146.5 809.5,146.5C 809.171,152.537 809.504,158.537 810.5,164.5C 814.032,165.803 817.532,165.803 821,164.5C 821.499,158.509 821.666,152.509 821.5,146.5C 823.167,146.5 824.833,146.5 826.5,146.5C 826.666,151.844 826.499,157.177 826,162.5C 825.907,165.007 825.074,167.174 823.5,169C 818.245,170.047 813.245,169.547 808.5,167.5C 802.833,170.167 797.167,170.167 791.5,167.5C 790.692,167.808 790.025,168.308 789.5,169C 775.833,169.667 762.167,169.667 748.5,169C 748,168.5 747.5,168 747,167.5C 746.5,155.505 746.333,143.505 746.5,131.5 Z"/></g>
<g><path style="opacity:1" fill="#151515" d="M 164.5,133.5 C 168.908,133.062 170.575,135.062 169.5,139.5C 167.833,139.5 166.167,139.5 164.5,139.5C 164.5,137.5 164.5,135.5 164.5,133.5 Z"/></g>
<g><path style="opacity:1" fill="#0f0f0f" d="M 171.5,133.5 C 172.833,133.5 174.167,133.5 175.5,133.5C 175.5,135.5 175.5,137.5 175.5,139.5C 174.167,139.5 172.833,139.5 171.5,139.5C 171.5,137.5 171.5,135.5 171.5,133.5 Z"/></g>
<g><path style="opacity:1" fill="#212121" d="M 367.5,169.5 C 367.5,157.167 367.5,144.833 367.5,132.5C 366.5,132.5 365.5,132.5 364.5,132.5C 364.828,144.345 364.495,156.012 363.5,167.5C 363.5,155.5 363.5,143.5 363.5,131.5C 365.167,131.5 366.833,131.5 368.5,131.5C 368.829,144.344 368.495,157.011 367.5,169.5 Z"/></g>
<g><path style="opacity:1" fill="#0d0d0d" d="M 281.5,136.5 C 283.167,136.5 284.833,136.5 286.5,136.5C 286.5,138.167 286.5,139.833 286.5,141.5C 284.833,141.5 283.167,141.5 281.5,141.5C 281.5,139.833 281.5,138.167 281.5,136.5 Z"/></g>
<g><path style="opacity:1" fill="#0c0c0c" d="M 288.5,136.5 C 290.167,136.5 291.833,136.5 293.5,136.5C 293.5,138.167 293.5,139.833 293.5,141.5C 291.833,141.5 290.167,141.5 288.5,141.5C 288.5,139.833 288.5,138.167 288.5,136.5 Z"/></g>
<g><path style="opacity:1" fill="#0f0f0f" d="M 315.5,136.5 C 317.167,136.5 318.833,136.5 320.5,136.5C 320.5,138.167 320.5,139.833 320.5,141.5C 318.833,141.5 317.167,141.5 315.5,141.5C 315.5,139.833 315.5,138.167 315.5,136.5 Z"/></g>
<g><path style="opacity:1" fill="#0a0a0a" d="M 569.5,136.5 C 570.833,136.5 572.167,136.5 573.5,136.5C 573.5,138.167 573.5,139.833 573.5,141.5C 572.167,141.5 570.833,141.5 569.5,141.5C 569.5,139.833 569.5,138.167 569.5,136.5 Z"/></g>
<g><path style="opacity:1" fill="#101010" d="M 575.5,136.5 C 577.167,136.5 578.833,136.5 580.5,136.5C 580.5,138.167 580.5,139.833 580.5,141.5C 578.833,141.5 577.167,141.5 575.5,141.5C 575.5,139.833 575.5,138.167 575.5,136.5 Z"/></g>
<g><path style="opacity:1" fill="#101010" d="M 787.5,136.5 C 789.167,136.5 790.833,136.5 792.5,136.5C 792.5,138.167 792.5,139.833 792.5,141.5C 790.833,141.5 789.167,141.5 787.5,141.5C 787.5,139.833 787.5,138.167 787.5,136.5 Z"/></g>
<g><path style="opacity:1" fill="#111111" d="M 210.5,130.5 C 219.78,132.69 219.78,133.857 210.5,134C 209.446,135.388 209.28,136.888 210,138.5C 212.473,139.12 214.973,139.786 217.5,140.5C 213.5,141.833 209.5,141.833 205.5,140.5C 206.213,138.224 206.713,135.891 207,133.5C 208.145,132.364 209.312,131.364 210.5,130.5 Z"/></g>
<g><path style="opacity:1" fill="#040404" d="M 351.5,131.5 C 352.833,131.5 354.167,131.5 355.5,131.5C 355.667,143.505 355.5,155.505 355,167.5C 354.5,168 354,168.5 353.5,169C 344.173,169.5 334.839,169.666 325.5,169.5C 325.5,168.167 325.5,166.833 325.5,165.5C 329.5,165.5 333.5,165.5 337.5,165.5C 337.5,156.833 337.5,148.167 337.5,139.5C 338.833,139.5 340.167,139.5 341.5,139.5C 341.5,148.167 341.5,156.833 341.5,165.5C 345.03,166.011 348.196,165.344 351,163.5C 351.5,152.839 351.667,142.172 351.5,131.5 Z"/></g>
<g><path style="opacity:1" fill="#0e0e0e" d="M 402.5,139.5 C 404.167,139.5 405.833,139.5 407.5,139.5C 407.5,141.167 407.5,142.833 407.5,144.5C 405.833,144.5 404.167,144.5 402.5,144.5C 402.5,142.833 402.5,141.167 402.5,139.5 Z"/></g>
<g><path style="opacity:1" fill="#0f0f0f" d="M 409.5,139.5 C 411.167,139.5 412.833,139.5 414.5,139.5C 414.5,141.167 414.5,142.833 414.5,144.5C 412.833,144.5 411.167,144.5 409.5,144.5C 409.5,142.833 409.5,141.167 409.5,139.5 Z"/></g>
<g><path style="opacity:1" fill="#0c0c0c" d="M 175.5,142.5 C 177.144,142.286 178.644,142.62 180,143.5C 180.5,150.826 180.666,158.159 180.5,165.5C 184.437,165.793 188.27,165.46 192,164.5C 192.499,158.509 192.666,152.509 192.5,146.5C 193.833,146.5 195.167,146.5 196.5,146.5C 196.334,152.176 196.501,157.843 197,163.5C 198.822,165.045 200.989,165.712 203.5,165.5C 205.429,165.46 207.262,165.127 209,164.5C 209.499,158.509 209.666,152.509 209.5,146.5C 210.833,146.5 212.167,146.5 213.5,146.5C 213.666,153.508 213.5,160.508 213,167.5C 212.5,168 212,168.5 211.5,169C 206.833,169.667 202.167,169.667 197.5,169C 196.5,167 195.5,167 194.5,169C 189.167,169.667 183.833,169.667 178.5,169C 176.957,166 174.957,165.334 172.5,167C 161.988,167.815 157.822,162.981 160,152.5C 163.405,146.629 168.572,144.296 175.5,145.5C 175.5,144.5 175.5,143.5 175.5,142.5 Z"/></g>
<g><path style="opacity:1" fill="#0e0e0e" d="M 508.5,146.5 C 511.85,146.335 515.183,146.502 518.5,147C 520.667,147.833 522.167,149.333 523,151.5C 523.667,159.833 523.667,168.167 523,176.5C 521.833,177.667 520.667,178.833 519.5,180C 515.23,181.075 510.897,181.575 506.5,181.5C 506.5,179.833 506.5,178.167 506.5,176.5C 510.182,176.665 513.848,176.499 517.5,176C 519.016,174.103 519.683,171.936 519.5,169.5C 505.924,172.423 500.424,167.09 503,153.5C 503.967,150.379 505.8,148.046 508.5,146.5 Z"/></g>
<g><path style="opacity:1" fill="#0b0b0b" d="M 222.5,131.5 C 224.167,131.5 225.833,131.5 227.5,131.5C 227.5,142.833 227.5,154.167 227.5,165.5C 241.837,165.667 256.171,165.5 270.5,165C 271.467,160.599 271.8,156.099 271.5,151.5C 273.167,151.5 274.833,151.5 276.5,151.5C 276.174,155.884 276.508,160.217 277.5,164.5C 280.034,165.788 282.534,165.788 285,164.5C 285.499,160.179 285.666,155.846 285.5,151.5C 287.167,151.5 288.833,151.5 290.5,151.5C 290.174,155.884 290.508,160.217 291.5,164.5C 293.768,165.544 296.101,165.711 298.5,165C 299.476,158.924 299.81,152.758 299.5,146.5C 300.833,146.5 302.167,146.5 303.5,146.5C 303.334,152.176 303.501,157.843 304,163.5C 307.442,165.733 311.108,166.067 315,164.5C 315.499,158.509 315.666,152.509 315.5,146.5C 317.167,146.5 318.833,146.5 320.5,146.5C 320.666,152.842 320.5,159.175 320,165.5C 319.682,167.061 318.849,168.228 317.5,169C 313.167,169.667 308.833,169.667 304.5,169C 304,168.5 303.5,168 303,167.5C 298.467,170.136 293.967,170.136 289.5,167.5C 284.833,170.167 280.167,170.167 275.5,167.5C 274.692,167.808 274.025,168.308 273.5,169C 257.167,169.667 240.833,169.667 224.5,169C 223.874,168.25 223.374,167.416 223,166.5C 222.5,154.838 222.333,143.171 222.5,131.5 Z"/></g>
<g><path style="opacity:1" fill="#090909" d="M 423.5,146.5 C 425.167,146.5 426.833,146.5 428.5,146.5C 428.666,153.175 428.5,159.842 428,166.5C 427.5,167.667 426.667,168.5 425.5,169C 414.167,169.667 402.833,169.667 391.5,169C 390.151,168.228 389.318,167.061 389,165.5C 388.501,160.511 388.334,155.511 388.5,150.5C 390.144,150.286 391.644,150.62 393,151.5C 393.499,156.155 393.666,160.821 393.5,165.5C 403.5,165.5 413.5,165.5 423.5,165.5C 423.5,159.167 423.5,152.833 423.5,146.5 Z"/></g>
<g><path style="opacity:1" fill="#efefef" d="M 167.5,150.5 C 170.167,150.5 172.833,150.5 175.5,150.5C 175.957,154.584 175.29,158.417 173.5,162C 165.297,163.626 162.631,160.46 165.5,152.5C 166.522,152.145 167.189,151.478 167.5,150.5 Z"/></g>
<g><path style="opacity:1" fill="#f5f5f5" d="M 518.5,155.5 C 518.5,158.5 518.5,161.5 518.5,164.5C 515.833,164.5 513.167,164.5 510.5,164.5C 506.519,160.114 506.519,155.614 510.5,151C 514.949,149.716 517.615,151.216 518.5,155.5 Z"/></g>
<g><path style="opacity:1" fill="#ececec" d="M 610.5,150.5 C 616.013,149.744 619.013,152.077 619.5,157.5C 619.562,164.654 616.229,166.988 609.5,164.5C 606.693,159.62 607.026,154.953 610.5,150.5 Z"/></g>
<g><path style="opacity:1" fill="#a4a4a4" d="M 518.5,155.5 C 519.479,158.625 519.813,161.958 519.5,165.5C 516.287,165.81 513.287,165.477 510.5,164.5C 513.167,164.5 515.833,164.5 518.5,164.5C 518.5,161.5 518.5,158.5 518.5,155.5 Z"/></g>
<g><path style="opacity:1" fill="#ceeea9" d="M 10.5,170.5 C 12.8163,171.422 14.483,173.089 15.5,175.5C 13.1837,174.578 11.517,172.911 10.5,170.5 Z"/></g>
<g><path style="opacity:1" fill="#101010" d="M 187.5,175.5 C 189.167,175.5 190.833,175.5 192.5,175.5C 192.5,177.167 192.5,178.833 192.5,180.5C 190.833,180.5 189.167,180.5 187.5,180.5C 187.5,178.833 187.5,177.167 187.5,175.5 Z"/></g>
<g><path style="opacity:1" fill="#101010" d="M 194.5,175.5 C 196.167,175.5 197.833,175.5 199.5,175.5C 199.5,177.167 199.5,178.833 199.5,180.5C 197.833,180.5 196.167,180.5 194.5,180.5C 194.5,178.833 194.5,177.167 194.5,175.5 Z"/></g>
<g><path style="opacity:1" fill="#0d0d0d" d="M 800.5,175.5 C 802.167,175.5 803.833,175.5 805.5,175.5C 805.5,177.167 805.5,178.833 805.5,180.5C 803.833,180.5 802.167,180.5 800.5,180.5C 800.5,178.833 800.5,177.167 800.5,175.5 Z"/></g>
<g><path style="opacity:1" fill="#0e0e0e" d="M 807.5,175.5 C 809.167,175.5 810.833,175.5 812.5,175.5C 812.5,177.167 812.5,178.833 812.5,180.5C 810.833,180.5 809.167,180.5 807.5,180.5C 807.5,178.833 807.5,177.167 807.5,175.5 Z"/></g>
<g><path style="opacity:1" fill="#131313" d="M 820.5,174.5 C 821.833,174.5 823.167,174.5 824.5,174.5C 824.5,176.5 824.5,178.5 824.5,180.5C 822.833,180.5 821.167,180.5 819.5,180.5C 819.325,178.379 819.659,176.379 820.5,174.5 Z"/></g>
<g><path style="opacity:1" fill="#171717" d="M 339.5,173.5 C 341.713,173.848 343.713,174.681 345.5,176C 344.975,176.692 344.308,177.192 343.5,177.5C 338.977,175.401 337.143,176.734 338,181.5C 340.381,182.435 342.881,182.768 345.5,182.5C 345.5,183.5 345.5,184.5 345.5,185.5C 341.5,185.5 337.5,185.5 333.5,185.5C 334.814,182.359 335.647,179.026 336,175.5C 337.302,174.915 338.469,174.249 339.5,173.5 Z"/></g>
<g><path style="opacity:1" fill="#71c637" d="M 63.5,-0.5 C 63.8333,-0.5 64.1667,-0.5 64.5,-0.5C 66.0941,2.7642 68.4275,5.43087 71.5,7.5C 73.8367,9.6664 76.3367,11.6664 79,13.5C 79.4643,14.0944 79.631,14.7611 79.5,15.5C 78.0222,15.762 76.6888,15.4287 75.5,14.5C 73.7367,10.9475 71.07,8.28086 67.5,6.5C 67.1667,7 66.8333,7.5 66.5,8C 68.7159,9.71935 70.3825,11.886 71.5,14.5C 69.1725,15.724 66.8392,15.724 64.5,14.5C 63.5046,20.1278 63.1712,25.7945 63.5,31.5C 58.1667,31.5 52.8333,31.5 47.5,31.5C 47.5,84.8333 47.5,138.167 47.5,191.5C 52.8333,191.5 58.1667,191.5 63.5,191.5C 63.5,200.833 63.5,210.167 63.5,219.5C 61.1783,217.588 58.5116,216.255 55.5,215.5C 53.0787,212.756 50.7454,210.09 48.5,207.5C 47.6618,207.158 47.3284,206.492 47.5,205.5C 46.6006,202.605 45.2672,199.938 43.5,197.5C 42.5033,139.988 42.17,82.6548 42.5,25.5C 43.925,24.078 44.925,22.4113 45.5,20.5C 46.1667,19.5 46.8333,18.5 47.5,17.5C 47.5,16.1667 48.1667,15.5 49.5,15.5C 54.8537,11.1131 59.5203,6.11312 63.5,0.5C 63.5,0.166667 63.5,-0.166667 63.5,-0.5 Z"/></g>
<g><path style="opacity:1" fill="#caeeb9" d="M 48.5,207.5 C 50.7454,210.09 53.0787,212.756 55.5,215.5C 51.7641,214.095 49.4308,211.429 48.5,207.5 Z"/></g>
</svg>
