<?xml version="1.0" encoding="UTF-8"?>
<!DOCTYPE svg PUBLIC "-//W3C//DTD SVG 1.1//EN" "http://www.w3.org/Graphics/SVG/1.1/DTD/svg11.dtd">
<svg xmlns="http://www.w3.org/2000/svg" version="1.1" width="250px" height="79px" style="shape-rendering:geometricPrecision; text-rendering:geometricPrecision; image-rendering:optimizeQuality; fill-rule:evenodd; clip-rule:evenodd" xmlns:xlink="http://www.w3.org/1999/xlink">
<g><path style="opacity:0.881" fill="#9c0a0d" d="M 38.5,45.5 C 38.5,41.1667 38.5,36.8333 38.5,32.5C 44.5105,34.5072 50.5105,36.5072 56.5,38.5C 56.719,37.325 56.3857,36.325 55.5,35.5C 49.5953,33.296 43.762,30.9626 38,28.5C 37.5002,19.5062 37.3336,10.5062 37.5,1.5C 47.6496,4.21653 57.6496,7.54986 67.5,11.5C 68.4909,15.4454 68.8242,19.4454 68.5,23.5C 62.3381,22.091 56.3381,20.091 50.5,17.5C 49.0996,19.7817 49.7663,21.2817 52.5,22C 57.7564,24.1407 63.0897,25.9741 68.5,27.5C 68.8316,36.8571 68.4983,46.1904 67.5,55.5C 58.0529,51.4157 48.3863,48.0823 38.5,45.5 Z"/></g>
<g><path style="opacity:0.767" fill="#8f9193" d="M 29.5,3.5 C 30.5,3.5 31.5,3.5 32.5,3.5C 32.8226,7.22605 32.4892,10.8927 31.5,14.5C 28.2606,15.7043 25.094,17.0376 22,18.5C 21.1735,14.4589 21.3401,10.4589 22.5,6.5C 25.0164,5.67011 27.3498,4.67011 29.5,3.5 Z"/></g>
<g><path style="opacity:0.845" fill="#444545" d="M 95.5,7.5 C 101.345,7.15097 107.012,7.9843 112.5,10C 113.088,13.3867 112.255,16.5534 110,19.5C 107.008,18.0029 103.841,17.0029 100.5,16.5C 98.2753,16.3053 96.6087,17.1387 95.5,19C 95.9054,19.9454 96.572,20.6121 97.5,21C 104.085,21.2108 109.585,23.7108 114,28.5C 116.534,35.5508 114.368,40.7175 107.5,44C 100.412,45.9415 93.4116,45.6082 86.5,43C 85.4258,42.2613 84.7591,41.2613 84.5,40C 84.974,37.2508 85.974,34.7508 87.5,32.5C 91.0366,34.6761 94.8699,36.0095 99,36.5C 101.149,36.3417 102.983,35.5084 104.5,34C 99.3908,31.5056 94.0574,29.5056 88.5,28C 83.0564,21.7443 83.3897,15.7443 89.5,10C 91.6115,9.15532 93.6115,8.32198 95.5,7.5 Z"/></g>
<g><path style="opacity:0.853" fill="#444545" d="M 132.5,7.5 C 152.853,7.56839 160.02,17.2351 154,36.5C 142.353,48.4946 130.686,48.4946 119,36.5C 113.295,21.9159 117.795,12.2492 132.5,7.5 Z M 133.5,17.5 C 143.295,17.4603 146.795,22.127 144,31.5C 141.398,35.2118 137.898,36.3785 133.5,35C 125.649,29.1897 125.649,23.3564 133.5,17.5 Z"/></g>
<g><path style="opacity:0.763" fill="#8f9193" d="M 15.5,8.5 C 16.5,8.5 17.5,8.5 18.5,8.5C 18.6653,12.1817 18.4986,15.8484 18,19.5C 14.906,20.9624 11.7394,22.2957 8.5,23.5C 7.50909,19.5546 7.17575,15.5546 7.5,11.5C 10.5418,11.2671 13.2084,10.2671 15.5,8.5 Z"/></g>
<g><path style="opacity:0.873" fill="#444545" d="M 160.5,8.5 C 164.167,8.5 167.833,8.5 171.5,8.5C 171.5,17.5 171.5,26.5 171.5,35.5C 177.167,35.5 182.833,35.5 188.5,35.5C 188.5,38.5 188.5,41.5 188.5,44.5C 179.167,44.5 169.833,44.5 160.5,44.5C 160.5,32.5 160.5,20.5 160.5,8.5 Z"/></g>
<g><path style="opacity:0.883" fill="#444545" d="M 191.5,8.5 C 195.167,8.5 198.833,8.5 202.5,8.5C 202.5,20.5 202.5,32.5 202.5,44.5C 198.833,44.5 195.167,44.5 191.5,44.5C 191.5,32.5 191.5,20.5 191.5,8.5 Z"/></g>
<g><path style="opacity:0.885" fill="#444545" d="M 208.5,8.5 C 217.25,8.09014 225.916,8.59014 234.5,10C 245.512,16.0385 248.345,24.8719 243,36.5C 239.579,40.257 235.412,42.757 230.5,44C 223.174,44.4997 215.841,44.6663 208.5,44.5C 208.5,32.5 208.5,20.5 208.5,8.5 Z M 219.5,17.5 C 227.459,15.9028 232.459,18.9028 234.5,26.5C 232.263,33.7954 227.263,36.7954 219.5,35.5C 219.5,29.5 219.5,23.5 219.5,17.5 Z"/></g>
<g><path style="opacity:0.781" fill="#8f9193" d="M 16.5,23.5 C 18.4228,27.0293 19.0894,31.0293 18.5,35.5C 14.9855,35.8789 11.6521,36.8789 8.5,38.5C 7.3414,34.878 7.17473,31.2113 8,27.5C 11.0469,26.4384 13.8802,25.1051 16.5,23.5 Z"/></g>
<g><path style="opacity:0.891" fill="#530000" d="M 38.5,32.5 C 38.5,36.8333 38.5,41.1667 38.5,45.5C 32.8318,47.2224 27.1651,49.0558 21.5,51C 20.0267,51.7096 19.3601,52.8762 19.5,54.5C 25.92,52.7908 32.2534,50.7908 38.5,48.5C 38.5,52.8333 38.5,57.1667 38.5,61.5C 28.1605,64.8355 17.8272,68.1688 7.5,71.5C 7.5,61.8333 7.5,52.1667 7.5,42.5C 17.9265,39.4533 28.2598,36.12 38.5,32.5 Z"/></g>
<g><path style="opacity:0.869" fill="#9c0a0d" d="M 38.5,48.5 C 48.1555,51.9927 57.8222,55.4927 67.5,59C 68.4637,63.0659 68.797,67.2325 68.5,71.5C 58.455,68.3739 48.455,65.0406 38.5,61.5C 38.5,57.1667 38.5,52.8333 38.5,48.5 Z"/></g>
<g><path style="opacity:0.6" fill="#8f9193" d="M 88.5,56.5 C 92.1219,55.924 95.1219,56.924 97.5,59.5C 97.1131,60.7199 96.2798,61.3865 95,61.5C 89.7934,59.3864 87.4601,61.053 88,66.5C 89.0852,67.2931 90.2519,67.9598 91.5,68.5C 93.4086,67.6518 95.4086,67.3184 97.5,67.5C 97.6399,69.1238 96.9733,70.2904 95.5,71C 88.658,73.2524 84.658,70.919 83.5,64C 84.3243,60.8267 85.9909,58.3267 88.5,56.5 Z"/></g>
<g><path style="opacity:0.615" fill="#8f9193" d="M 102.5,56.5 C 112.987,56.8132 115.654,61.4799 110.5,70.5C 100.213,73.378 96.3794,69.7114 99,59.5C 100.145,58.3636 101.312,57.3636 102.5,56.5 Z M 103.5,60.5 C 108,60.1638 109.833,62.1638 109,66.5C 106.667,69.1667 104.333,69.1667 102,66.5C 101.252,64.1599 101.752,62.1599 103.5,60.5 Z"/></g>
<g><path style="opacity:0.599" fill="#8f9193" d="M 114.5,56.5 C 115.873,56.3433 117.207,56.51 118.5,57C 120.333,59.5 122.167,62 124,64.5C 124.497,61.854 124.664,59.1873 124.5,56.5C 125.833,56.5 127.167,56.5 128.5,56.5C 128.5,61.5 128.5,66.5 128.5,71.5C 127.127,71.6567 125.793,71.49 124.5,71C 123.023,68.5551 121.19,66.3884 119,64.5C 118.503,66.8098 118.337,69.1432 118.5,71.5C 117.167,71.5 115.833,71.5 114.5,71.5C 114.5,66.5 114.5,61.5 114.5,56.5 Z"/></g>
<g><path style="opacity:0.575" fill="#8f9193" d="M 132.5,56.5 C 139.409,56.9242 146.409,56.9242 153.5,56.5C 153.5,57.8333 153.5,59.1667 153.5,60.5C 152.167,60.5 150.833,60.5 149.5,60.5C 149.5,64.1667 149.5,67.8333 149.5,71.5C 148.167,71.5 146.833,71.5 145.5,71.5C 145.5,67.8333 145.5,64.1667 145.5,60.5C 141.743,61.2643 138.076,61.5977 134.5,61.5C 136.908,62.4535 139.075,63.7868 141,65.5C 141.825,67.7008 141.325,69.5341 139.5,71C 136.5,71.6667 133.5,71.6667 130.5,71C 129.663,69.9887 129.33,68.8221 129.5,67.5C 132.244,68.205 134.911,68.205 137.5,67.5C 134.945,66.2398 132.445,64.9064 130,63.5C 129.162,60.5193 129.995,58.1859 132.5,56.5 Z"/></g>
<g><path style="opacity:0.638" fill="#8f9193" d="M 154.5,56.5 C 162.81,54.3368 166.644,57.3368 166,65.5C 165.5,66 165,66.5 164.5,67C 169.052,71.1873 168.385,72.3539 162.5,70.5C 159.918,66.1997 158.584,66.5331 158.5,71.5C 157.167,71.5 155.833,71.5 154.5,71.5C 154.5,66.5 154.5,61.5 154.5,56.5 Z M 158.5,60.5 C 160.665,60.1159 162.332,60.7826 163.5,62.5C 162.332,64.2174 160.665,64.8841 158.5,64.5C 158.5,63.1667 158.5,61.8333 158.5,60.5 Z"/></g>
<g><path style="opacity:0.581" fill="#8f9193" d="M 168.5,56.5 C 169.833,56.5 171.167,56.5 172.5,56.5C 172.177,60.226 172.511,63.8927 173.5,67.5C 174.72,68.7111 175.887,68.7111 177,67.5C 177.499,63.8484 177.665,60.1817 177.5,56.5C 178.833,56.5 180.167,56.5 181.5,56.5C 181.666,60.5138 181.499,64.5138 181,68.5C 179.537,70.8853 177.371,71.8853 174.5,71.5C 172.307,71.6738 170.473,71.0071 169,69.5C 168.501,65.1794 168.334,60.8461 168.5,56.5 Z"/></g>
<g><path style="opacity:0.575" fill="#8f9193" d="M 187.5,56.5 C 190.602,56.154 193.435,56.8207 196,58.5C 199.836,56.6112 204.003,55.9445 208.5,56.5C 208.5,57.8333 208.5,59.1667 208.5,60.5C 207.167,60.5 205.833,60.5 204.5,60.5C 204.5,64.1667 204.5,67.8333 204.5,71.5C 203.167,71.5 201.833,71.5 200.5,71.5C 200.5,67.8333 200.5,64.1667 200.5,60.5C 197.266,61.1267 194.099,61.1267 191,60.5C 186.669,61.7987 185.836,64.1321 188.5,67.5C 191.096,68.2129 193.763,68.2129 196.5,67.5C 196.64,69.1238 195.973,70.2904 194.5,71C 186.057,73.216 182.224,70.0493 183,61.5C 184.025,59.313 185.525,57.6464 187.5,56.5 Z"/></g>
<g><path style="opacity:0.573" fill="#8f9193" d="M 209.5,56.5 C 210.833,56.5 212.167,56.5 213.5,56.5C 213.5,61.5 213.5,66.5 213.5,71.5C 212.167,71.5 210.833,71.5 209.5,71.5C 209.5,66.5 209.5,61.5 209.5,56.5 Z"/></g>
<g><path style="opacity:0.588" fill="#8f9193" d="M 219.5,56.5 C 230.632,56.7823 233.299,61.6156 227.5,71C 218.608,73.6622 214.441,70.4956 215,61.5C 216.025,59.313 217.525,57.6464 219.5,56.5 Z M 220.5,60.5 C 225,60.1638 226.833,62.1638 226,66.5C 222.692,69.2754 220.192,68.6088 218.5,64.5C 219.18,63.1401 219.847,61.8068 220.5,60.5 Z"/></g>
<g><path style="opacity:0.654" fill="#8f9193" d="M 232.5,56.5 C 233.552,56.3505 234.552,56.5172 235.5,57C 236.958,59.46 238.791,61.6266 241,63.5C 241.497,61.1902 241.663,58.8568 241.5,56.5C 242.833,56.5 244.167,56.5 245.5,56.5C 245.5,61.5 245.5,66.5 245.5,71.5C 240.733,70.9118 237.566,68.2451 236,63.5C 235.503,66.146 235.336,68.8127 235.5,71.5C 234.5,71.5 233.5,71.5 232.5,71.5C 232.5,66.5 232.5,61.5 232.5,56.5 Z"/></g>
</svg>
